{
DisplayStrings = (
":"
);

glyphs = (
{
glyphname = Aacute;
lastChange = "2013-03-20 20:06:28 +0000";
layers = (
{
layerId = "B4B43AB8-DB99-4954-A9F8-B6F89E957C89";
name = Regular;
paths = (
{
closed = 1;
nodes = (
"225.89 204 LINE",
"433.171 204 LINE",
"473.208 89 LINE",
"430 89 LINE SMOOTH",
"413.369 89 OFFCURVE",
"400 78.305 OFFCURVE",
"400 64 CURVE SMOOTH",
"400 15 LINE SMOOTH",
"400 2.32233 OFFCURVE",
"412.322 -10 OFFCURVE",
"430 -10 CURVE SMOOTH",
"681 -10 LINE SMOOTH",
"697.631 -10 OFFCURVE",
"711 0.694971 OFFCURVE",
"711 15 CURVE SMOOTH",
"711 64 LINE SMOOTH",
"711 76.1382 OFFCURVE",
"700.711 89 OFFCURVE",
"681 89 CURVE SMOOTH",
"624.857 89 LINE",
"425.181 668.259 LINE",
"420.453 679.899 OFFCURVE",
"406.801 689 OFFCURVE",
"391 689 CURVE SMOOTH",
"294 689 LINE SMOOTH",
"278.199 689 OFFCURVE",
"264.547 679.899 OFFCURVE",
"260.073 668.714 CURVE",
"62.1146 89 LINE",
"15 89 LINE SMOOTH",
"-2 89 OFFCURVE",
"-15 78.305 OFFCURVE",
"-15 64 CURVE SMOOTH",
"-15 15 LINE SMOOTH",
"-15 2.86176 OFFCURVE",
"-5 -10 OFFCURVE",
"15 -10 CURVE SMOOTH",
"228 -10 LINE SMOOTH",
"244.631 -10 OFFCURVE",
"258 0.694971 OFFCURVE",
"258 15 CURVE SMOOTH",
"258 64 LINE SMOOTH",
"258 76.6777 OFFCURVE",
"245.678 89 OFFCURVE",
"228 89 CURVE SMOOTH",
"186.705 89 LINE"
);
},
{
closed = 1;
nodes = (
"328.922 535.512 LINE",
"404.542 299 LINE",
"252.498 299 LINE"
);
},
{
closed = 1;
nodes = (
"298.368 750.173 LINE",
"292.209 735.055 OFFCURVE",
"302 722 OFFCURVE",
"321 722 CURVE SMOOTH",
"369 722 LINE SMOOTH",
"383.597 722 OFFCURVE",
"399.14 729.771 OFFCURVE",
"404.72 738.7 CURVE",
"474.368 840.342 LINE",
"483.494 852.658 OFFCURVE",
"479.658 868 OFFCURVE",
"456 868 CURVE SMOOTH",
"378 868 LINE SMOOTH",
"362.864 868 OFFCURVE",
"347.728 859.351 OFFCURVE",
"343.073 847.714 CURVE"
);
}
);
width = 696;
}
);
unicode = 00C1;
},
{
glyphname = Abreve;
lastChange = "2013-03-20 20:06:28 +0000";
layers = (
{
layerId = "B4B43AB8-DB99-4954-A9F8-B6F89E957C89";
name = Regular;
paths = (
{
closed = 1;
nodes = (
"225.89 204 LINE",
"433.171 204 LINE",
"473.208 89 LINE",
"430 89 LINE SMOOTH",
"413.369 89 OFFCURVE",
"400 78.305 OFFCURVE",
"400 64 CURVE SMOOTH",
"400 15 LINE SMOOTH",
"400 2.32233 OFFCURVE",
"412.322 -10 OFFCURVE",
"430 -10 CURVE SMOOTH",
"681 -10 LINE SMOOTH",
"697.631 -10 OFFCURVE",
"711 0.694971 OFFCURVE",
"711 15 CURVE SMOOTH",
"711 64 LINE SMOOTH",
"711 76.1382 OFFCURVE",
"700.711 89 OFFCURVE",
"681 89 CURVE SMOOTH",
"624.857 89 LINE",
"425.181 668.259 LINE",
"420.453 679.899 OFFCURVE",
"406.801 689 OFFCURVE",
"391 689 CURVE SMOOTH",
"294 689 LINE SMOOTH",
"278.199 689 OFFCURVE",
"264.547 679.899 OFFCURVE",
"260.073 668.714 CURVE",
"62.1146 89 LINE",
"15 89 LINE SMOOTH",
"-2 89 OFFCURVE",
"-15 78.305 OFFCURVE",
"-15 64 CURVE SMOOTH",
"-15 15 LINE SMOOTH",
"-15 2.86176 OFFCURVE",
"-5 -10 OFFCURVE",
"15 -10 CURVE SMOOTH",
"228 -10 LINE SMOOTH",
"244.631 -10 OFFCURVE",
"258 0.694971 OFFCURVE",
"258 15 CURVE SMOOTH",
"258 64 LINE SMOOTH",
"258 76.6777 OFFCURVE",
"245.678 89 OFFCURVE",
"228 89 CURVE SMOOTH",
"186.705 89 LINE"
);
},
{
closed = 1;
nodes = (
"328.922 535.512 LINE",
"404.542 299 LINE",
"252.498 299 LINE"
);
},
{
closed = 1;
nodes = (
"300.127 821 OFFCURVE",
"283.86 830.196 OFFCURVE",
"277.552 855.425 CURVE SMOOTH",
"273.118 873.161 OFFCURVE",
"261.333 882 OFFCURVE",
"239 882 CURVE SMOOTH",
"207 882 LINE SMOOTH",
"184.322 882 OFFCURVE",
"173 870.678 OFFCURVE",
"173 853 CURVE SMOOTH",
"175.091 775.57 OFFCURVE",
"239.452 725 OFFCURVE",
"351 725 CURVE SMOOTH",
"456.051 725 OFFCURVE",
"525.704 774.1 OFFCURVE",
"531.952 852.203 CURVE SMOOTH",
"533.178 870.5 OFFCURVE",
"521.678 882 OFFCURVE",
"499 882 CURVE SMOOTH",
"468 882 LINE SMOOTH",
"446.658 882 OFFCURVE",
"433.311 873.992 OFFCURVE",
"427.683 855.983 CURVE SMOOTH",
"418.781 827.498 OFFCURVE",
"400.586 821 OFFCURVE",
"354 821 CURVE SMOOTH"
);
}
);
width = 696;
}
);
unicode = 0102;
},
{
glyphname = Acircumflex;
lastChange = "2013-03-20 20:06:28 +0000";
layers = (
{
layerId = "B4B43AB8-DB99-4954-A9F8-B6F89E957C89";
name = Regular;
paths = (
{
closed = 1;
nodes = (
"225.89 204 LINE",
"433.171 204 LINE",
"473.208 89 LINE",
"430 89 LINE SMOOTH",
"413.369 89 OFFCURVE",
"400 78.305 OFFCURVE",
"400 64 CURVE SMOOTH",
"400 15 LINE SMOOTH",
"400 2.32233 OFFCURVE",
"412.322 -10 OFFCURVE",
"430 -10 CURVE SMOOTH",
"681 -10 LINE SMOOTH",
"697.631 -10 OFFCURVE",
"711 0.694971 OFFCURVE",
"711 15 CURVE SMOOTH",
"711 64 LINE SMOOTH",
"711 76.1382 OFFCURVE",
"700.711 89 OFFCURVE",
"681 89 CURVE SMOOTH",
"624.857 89 LINE",
"425.181 668.259 LINE",
"420.453 679.899 OFFCURVE",
"406.801 689 OFFCURVE",
"391 689 CURVE SMOOTH",
"294 689 LINE SMOOTH",
"278.199 689 OFFCURVE",
"264.547 679.899 OFFCURVE",
"260.073 668.714 CURVE",
"62.1146 89 LINE",
"15 89 LINE SMOOTH",
"-2 89 OFFCURVE",
"-15 78.305 OFFCURVE",
"-15 64 CURVE SMOOTH",
"-15 15 LINE SMOOTH",
"-15 2.86176 OFFCURVE",
"-5 -10 OFFCURVE",
"15 -10 CURVE SMOOTH",
"228 -10 LINE SMOOTH",
"244.631 -10 OFFCURVE",
"258 0.694971 OFFCURVE",
"258 15 CURVE SMOOTH",
"258 64 LINE SMOOTH",
"258 76.6777 OFFCURVE",
"245.678 89 OFFCURVE",
"228 89 CURVE SMOOTH",
"186.705 89 LINE"
);
},
{
closed = 1;
nodes = (
"328.922 535.512 LINE",
"404.542 299 LINE",
"252.498 299 LINE"
);
},
{
closed = 1;
nodes = (
"258 722 LINE SMOOTH",
"272.597 722 OFFCURVE",
"287.642 729.523 OFFCURVE",
"294 738 CURVE SMOOTH",
"339.115 794.313 LINE",
"385.383 737.674 LINE SMOOTH",
"392.993 727.789 OFFCURVE",
"408.431 722 OFFCURVE",
"422 722 CURVE SMOOTH",
"479 722 LINE SMOOTH",
"501.652 722 OFFCURVE",
"508.191 735.078 OFFCURVE",
"497 750 CURVE SMOOTH",
"414.906 857.083 LINE SMOOTH",
"408.642 865.477 OFFCURVE",
"393.597 873 OFFCURVE",
"379 873 CURVE SMOOTH",
"303 873 LINE SMOOTH",
"288.403 873 OFFCURVE",
"273.358 865.477 OFFCURVE",
"267 857 CURVE SMOOTH",
"185.094 750.083 LINE SMOOTH",
"173.809 735.078 OFFCURVE",
"180.348 722 OFFCURVE",
"203 722 CURVE SMOOTH"
);
}
);
width = 696;
}
);
unicode = 00C2;
},
{
glyphname = Adieresis;
lastChange = "2013-03-20 20:06:28 +0000";
layers = (
{
layerId = "B4B43AB8-DB99-4954-A9F8-B6F89E957C89";
name = Regular;
paths = (
{
closed = 1;
nodes = (
"225.89 204 LINE",
"433.171 204 LINE",
"473.208 89 LINE",
"430 89 LINE SMOOTH",
"413.369 89 OFFCURVE",
"400 78.305 OFFCURVE",
"400 64 CURVE SMOOTH",
"400 15 LINE SMOOTH",
"400 2.32233 OFFCURVE",
"412.322 -10 OFFCURVE",
"430 -10 CURVE SMOOTH",
"681 -10 LINE SMOOTH",
"697.631 -10 OFFCURVE",
"711 0.694971 OFFCURVE",
"711 15 CURVE SMOOTH",
"711 64 LINE SMOOTH",
"711 76.1382 OFFCURVE",
"700.711 89 OFFCURVE",
"681 89 CURVE SMOOTH",
"624.857 89 LINE",
"425.181 668.259 LINE",
"420.453 679.899 OFFCURVE",
"406.801 689 OFFCURVE",
"391 689 CURVE SMOOTH",
"294 689 LINE SMOOTH",
"278.199 689 OFFCURVE",
"264.547 679.899 OFFCURVE",
"260.073 668.714 CURVE",
"62.1146 89 LINE",
"15 89 LINE SMOOTH",
"-2 89 OFFCURVE",
"-15 78.305 OFFCURVE",
"-15 64 CURVE SMOOTH",
"-15 15 LINE SMOOTH",
"-15 2.86176 OFFCURVE",
"-5 -10 OFFCURVE",
"15 -10 CURVE SMOOTH",
"228 -10 LINE SMOOTH",
"244.631 -10 OFFCURVE",
"258 0.694971 OFFCURVE",
"258 15 CURVE SMOOTH",
"258 64 LINE SMOOTH",
"258 76.6777 OFFCURVE",
"245.678 89 OFFCURVE",
"228 89 CURVE SMOOTH",
"186.705 89 LINE"
);
},
{
closed = 1;
nodes = (
"328.922 535.512 LINE",
"404.542 299 LINE",
"252.498 299 LINE"
);
},
{
closed = 1;
nodes = (
"489.548 728 OFFCURVE",
"526 756.641 OFFCURVE",
"526 800 CURVE SMOOTH",
"526 841.924 OFFCURVE",
"495.25 870 OFFCURVE",
"449 870 CURVE SMOOTH",
"406.107 870 OFFCURVE",
"372 841.14 OFFCURVE",
"372 800 CURVE SMOOTH",
"372 758.097 OFFCURVE",
"404.714 728 OFFCURVE",
"449 728 CURVE SMOOTH"
);
},
{
closed = 1;
nodes = (
"286.548 728 OFFCURVE",
"323 756.641 OFFCURVE",
"323 800 CURVE SMOOTH",
"323 841.924 OFFCURVE",
"292.25 870 OFFCURVE",
"246 870 CURVE SMOOTH",
"203.107 870 OFFCURVE",
"169 841.14 OFFCURVE",
"169 800 CURVE SMOOTH",
"169 758.097 OFFCURVE",
"201.714 728 OFFCURVE",
"246 728 CURVE SMOOTH"
);
}
);
width = 696;
}
);
unicode = 00C4;
},
{
glyphname = Agrave;
lastChange = "2013-03-20 20:06:28 +0000";
layers = (
{
layerId = "B4B43AB8-DB99-4954-A9F8-B6F89E957C89";
name = Regular;
paths = (
{
closed = 1;
nodes = (
"225.89 204 LINE",
"433.171 204 LINE",
"473.208 89 LINE",
"430 89 LINE SMOOTH",
"413.369 89 OFFCURVE",
"400 78.305 OFFCURVE",
"400 64 CURVE SMOOTH",
"400 15 LINE SMOOTH",
"400 2.32233 OFFCURVE",
"412.322 -10 OFFCURVE",
"430 -10 CURVE SMOOTH",
"681 -10 LINE SMOOTH",
"697.631 -10 OFFCURVE",
"711 0.694971 OFFCURVE",
"711 15 CURVE SMOOTH",
"711 64 LINE SMOOTH",
"711 76.1382 OFFCURVE",
"700.711 89 OFFCURVE",
"681 89 CURVE SMOOTH",
"624.857 89 LINE",
"425.181 668.259 LINE",
"420.453 679.899 OFFCURVE",
"406.801 689 OFFCURVE",
"391 689 CURVE SMOOTH",
"294 689 LINE SMOOTH",
"278.199 689 OFFCURVE",
"264.547 679.899 OFFCURVE",
"260.073 668.714 CURVE",
"62.1146 89 LINE",
"15 89 LINE SMOOTH",
"-2 89 OFFCURVE",
"-15 78.305 OFFCURVE",
"-15 64 CURVE SMOOTH",
"-15 15 LINE SMOOTH",
"-15 2.86176 OFFCURVE",
"-5 -10 OFFCURVE",
"15 -10 CURVE SMOOTH",
"228 -10 LINE SMOOTH",
"244.631 -10 OFFCURVE",
"258 0.694971 OFFCURVE",
"258 15 CURVE SMOOTH",
"258 64 LINE SMOOTH",
"258 76.6777 OFFCURVE",
"245.678 89 OFFCURVE",
"228 89 CURVE SMOOTH",
"186.705 89 LINE"
);
},
{
closed = 1;
nodes = (
"328.922 535.512 LINE",
"404.542 299 LINE",
"252.498 299 LINE"
);
},
{
closed = 1;
nodes = (
"355.701 845.071 LINE",
"348.244 859.817 OFFCURVE",
"337.333 868 OFFCURVE",
"315 868 CURVE SMOOTH",
"245 868 LINE SMOOTH",
"218.348 868 OFFCURVE",
"211.863 855 OFFCURVE",
"224.869 837.118 CURVE SMOOTH",
"289.579 741.393 LINE",
"299.358 728.523 OFFCURVE",
"312.403 722 OFFCURVE",
"332 722 CURVE SMOOTH",
"372 722 LINE SMOOTH",
"395 722 OFFCURVE",
"404.914 735.219 OFFCURVE",
"396.619 753.191 CURVE SMOOTH"
);
}
);
width = 696;
}
);
unicode = 00C0;
},
{
glyphname = Amacron;
lastChange = "2013-03-20 20:06:28 +0000";
layers = (
{
layerId = "B4B43AB8-DB99-4954-A9F8-B6F89E957C89";
name = Regular;
paths = (
{
closed = 1;
nodes = (
"225.89 204 LINE",
"433.171 204 LINE",
"473.208 89 LINE",
"430 89 LINE SMOOTH",
"413.369 89 OFFCURVE",
"400 78.305 OFFCURVE",
"400 64 CURVE SMOOTH",
"400 15 LINE SMOOTH",
"400 2.32233 OFFCURVE",
"412.322 -10 OFFCURVE",
"430 -10 CURVE SMOOTH",
"681 -10 LINE SMOOTH",
"697.631 -10 OFFCURVE",
"711 0.694971 OFFCURVE",
"711 15 CURVE SMOOTH",
"711 64 LINE SMOOTH",
"711 76.1382 OFFCURVE",
"700.711 89 OFFCURVE",
"681 89 CURVE SMOOTH",
"624.857 89 LINE",
"425.181 668.259 LINE",
"420.453 679.899 OFFCURVE",
"406.801 689 OFFCURVE",
"391 689 CURVE SMOOTH",
"294 689 LINE SMOOTH",
"278.199 689 OFFCURVE",
"264.547 679.899 OFFCURVE",
"260.073 668.714 CURVE",
"62.1146 89 LINE",
"15 89 LINE SMOOTH",
"-2 89 OFFCURVE",
"-15 78.305 OFFCURVE",
"-15 64 CURVE SMOOTH",
"-15 15 LINE SMOOTH",
"-15 2.86176 OFFCURVE",
"-5 -10 OFFCURVE",
"15 -10 CURVE SMOOTH",
"228 -10 LINE SMOOTH",
"244.631 -10 OFFCURVE",
"258 0.694971 OFFCURVE",
"258 15 CURVE SMOOTH",
"258 64 LINE SMOOTH",
"258 76.6777 OFFCURVE",
"245.678 89 OFFCURVE",
"228 89 CURVE SMOOTH",
"186.705 89 LINE"
);
},
{
closed = 1;
nodes = (
"328.922 535.512 LINE",
"404.542 299 LINE",
"252.498 299 LINE"
);
},
{
closed = 1;
nodes = (
"478 750 LINE SMOOTH",
"500.678 750 OFFCURVE",
"512 761.322 OFFCURVE",
"512 779 CURVE SMOOTH",
"512 822 LINE SMOOTH",
"512 839.678 OFFCURVE",
"500.678 851 OFFCURVE",
"478 851 CURVE SMOOTH",
"218 851 LINE SMOOTH",
"195.322 851 OFFCURVE",
"184 839.678 OFFCURVE",
"184 822 CURVE SMOOTH",
"184 779 LINE SMOOTH",
"184 761.322 OFFCURVE",
"195.322 750 OFFCURVE",
"218 750 CURVE SMOOTH"
);
}
);
width = 696;
}
);
unicode = 0100;
},
{
glyphname = Aogonek;
lastChange = "2013-03-20 20:06:28 +0000";
layers = (
{
layerId = "B4B43AB8-DB99-4954-A9F8-B6F89E957C89";
name = Regular;
paths = (
{
closed = 1;
nodes = (
"435 -198 OFFCURVE",
"470.197 -243 OFFCURVE",
"534 -243 CURVE SMOOTH",
"573.35 -243 OFFCURVE",
"610.315 -226 OFFCURVE",
"631.45 -211 CURVE",
"651 -199 OFFCURVE",
"651 -189 OFFCURVE",
"643.168 -174 CURVE",
"633.416 -155 LINE SMOOTH",
"627.862 -143 OFFCURVE",
"606.924 -137 OFFCURVE",
"592.675 -145 CURVE SMOOTH",
"578.581 -152 OFFCURVE",
"571.275 -154 OFFCURVE",
"562 -154 CURVE SMOOTH",
"545.403 -154 OFFCURVE",
"544 -146 OFFCURVE",
"544 -128 CURVE SMOOTH",
"544 -98 OFFCURVE",
"562.886 -60 OFFCURVE",
"609.051 -10 CURVE",
"681 -10 LINE SMOOTH",
"697.631 -10 OFFCURVE",
"711 0.694971 OFFCURVE",
"711 15 CURVE SMOOTH",
"711 64 LINE SMOOTH",
"711 76.1382 OFFCURVE",
"700.711 89 OFFCURVE",
"681 89 CURVE SMOOTH",
"624.857 89 LINE",
"425.181 668.259 LINE",
"420.453 679.899 OFFCURVE",
"406.801 689 OFFCURVE",
"391 689 CURVE SMOOTH",
"294 689 LINE SMOOTH",
"278.199 689 OFFCURVE",
"264.547 679.899 OFFCURVE",
"260.073 668.714 CURVE",
"62.1146 89 LINE",
"15 89 LINE SMOOTH",
"-2 89 OFFCURVE",
"-15 78.305 OFFCURVE",
"-15 64 CURVE SMOOTH",
"-15 15 LINE SMOOTH",
"-15 2.86176 OFFCURVE",
"-5 -10 OFFCURVE",
"15 -10 CURVE SMOOTH",
"228 -10 LINE SMOOTH",
"244.631 -10 OFFCURVE",
"258 0.694971 OFFCURVE",
"258 15 CURVE SMOOTH",
"258 64 LINE SMOOTH",
"258 76.6777 OFFCURVE",
"245.678 89 OFFCURVE",
"228 89 CURVE SMOOTH",
"186.705 89 LINE",
"225.89 204 LINE",
"433.171 204 LINE",
"473.208 89 LINE",
"430 89 LINE SMOOTH",
"413.369 89 OFFCURVE",
"400 78.305 OFFCURVE",
"400 64 CURVE SMOOTH",
"400 15 LINE SMOOTH",
"400 2.32233 OFFCURVE",
"412.322 -10 OFFCURVE",
"430 -10 CURVE SMOOTH",
"508.713 -10 LINE",
"470.538 -48 OFFCURVE",
"435 -94 OFFCURVE",
"435 -147 CURVE SMOOTH"
);
},
{
closed = 1;
nodes = (
"328.922 535.512 LINE",
"404.542 299 LINE",
"252.498 299 LINE"
);
}
);
width = 696;
}
);
unicode = 0104;
},
{
glyphname = Aring;
lastChange = "2013-03-20 20:20:52 +0000";
layers = (
{
layerId = "B4B43AB8-DB99-4954-A9F8-B6F89E957C89";
name = Regular;
paths = (
{
closed = 1;
nodes = (
"225.89 204 LINE",
"433.171 204 LINE",
"473.208 89 LINE",
"430 89 LINE SMOOTH",
"413.369 89 OFFCURVE",
"400 78.305 OFFCURVE",
"400 64 CURVE SMOOTH",
"400 15 LINE SMOOTH",
"400 2.32233 OFFCURVE",
"412.322 -10 OFFCURVE",
"430 -10 CURVE SMOOTH",
"681 -10 LINE SMOOTH",
"697.631 -10 OFFCURVE",
"711 0.694971 OFFCURVE",
"711 15 CURVE SMOOTH",
"711 64 LINE SMOOTH",
"711 76.1382 OFFCURVE",
"700.711 89 OFFCURVE",
"681 89 CURVE SMOOTH",
"624.857 89 LINE",
"425.181 668.259 LINE",
"420.453 679.899 OFFCURVE",
"406.801 689 OFFCURVE",
"391 689 CURVE SMOOTH",
"294 689 LINE SMOOTH",
"278.199 689 OFFCURVE",
"264.547 679.899 OFFCURVE",
"260.073 668.714 CURVE",
"62.1146 89 LINE",
"15 89 LINE SMOOTH",
"-2 89 OFFCURVE",
"-15 78.305 OFFCURVE",
"-15 64 CURVE SMOOTH",
"-15 15 LINE SMOOTH",
"-15 2.86176 OFFCURVE",
"-5 -10 OFFCURVE",
"15 -10 CURVE SMOOTH",
"228 -10 LINE SMOOTH",
"244.631 -10 OFFCURVE",
"258 0.694971 OFFCURVE",
"258 15 CURVE SMOOTH",
"258 64 LINE SMOOTH",
"258 76.6777 OFFCURVE",
"245.678 89 OFFCURVE",
"228 89 CURVE SMOOTH",
"186.705 89 LINE"
);
},
{
closed = 1;
nodes = (
"328.922 535.512 LINE",
"404.542 299 LINE",
"252.498 299 LINE"
);
},
{
closed = 1;
nodes = (
"410.215 695 OFFCURVE",
"270.064 695 OFFCURVE",
"342 695 CURVE SMOOTH"
);
},
{
closed = 1;
nodes = (
"422 723 OFFCURVE",
"483 787 OFFCURVE",
"483 863 CURVE SMOOTH",
"483 926 OFFCURVE",
"429 990 OFFCURVE",
"337 990 CURVE SMOOTH",
"254 990 OFFCURVE",
"190 928 OFFCURVE",
"190 857 CURVE SMOOTH",
"190 788 OFFCURVE",
"242 723 OFFCURVE",
"334 723 CURVE SMOOTH"
);
},
{
closed = 1;
nodes = (
"374 927 OFFCURVE",
"399 902 OFFCURVE",
"399 859 CURVE SMOOTH",
"399 816 OFFCURVE",
"373 787 OFFCURVE",
"340 787 CURVE SMOOTH",
"308 787 OFFCURVE",
"282 816 OFFCURVE",
"282 859 CURVE SMOOTH",
"282 902 OFFCURVE",
"305 927 OFFCURVE",
"340 927 CURVE SMOOTH"
);
}
);
width = 696;
}
);
unicode = 00C5;
},
{
glyphname = Aringacute;
lastChange = "2013-03-20 20:06:28 +0000";
layers = (
{
layerId = "B4B43AB8-DB99-4954-A9F8-B6F89E957C89";
name = Regular;
paths = (
{
closed = 1;
nodes = (
"225.89 204 LINE",
"433.171 204 LINE",
"473.208 89 LINE",
"430 89 LINE SMOOTH",
"413.369 89 OFFCURVE",
"400 78.305 OFFCURVE",
"400 64 CURVE SMOOTH",
"400 15 LINE SMOOTH",
"400 2.32233 OFFCURVE",
"412.322 -10 OFFCURVE",
"430 -10 CURVE SMOOTH",
"681 -10 LINE SMOOTH",
"697.631 -10 OFFCURVE",
"711 0.694971 OFFCURVE",
"711 15 CURVE SMOOTH",
"711 64 LINE SMOOTH",
"711 76.1382 OFFCURVE",
"700.711 89 OFFCURVE",
"681 89 CURVE SMOOTH",
"624.857 89 LINE",
"426.621 664.083 LINE",
"444.637 690.588 OFFCURVE",
"456 719.931 OFFCURVE",
"456 752 CURVE SMOOTH",
"456 804.138 OFFCURVE",
"413.711 857 OFFCURVE",
"342 857 CURVE SMOOTH",
"277.214 857 OFFCURVE",
"227 805.618 OFFCURVE",
"227 747 CURVE SMOOTH",
"227 708.889 OFFCURVE",
"240.917 683.382 OFFCURVE",
"258.199 663.527 CURVE",
"62.1146 89 LINE",
"15 89 LINE SMOOTH",
"-2 89 OFFCURVE",
"-15 78.305 OFFCURVE",
"-15 64 CURVE SMOOTH",
"-15 15 LINE SMOOTH",
"-15 2.86176 OFFCURVE",
"-5 -10 OFFCURVE",
"15 -10 CURVE SMOOTH",
"228 -10 LINE SMOOTH",
"244.631 -10 OFFCURVE",
"258 0.694971 OFFCURVE",
"258 15 CURVE SMOOTH",
"258 64 LINE SMOOTH",
"258 76.6777 OFFCURVE",
"245.678 89 OFFCURVE",
"228 89 CURVE SMOOTH",
"186.705 89 LINE"
);
},
{
closed = 1;
nodes = (
"328.922 535.512 LINE",
"404.542 299 LINE",
"252.498 299 LINE"
);
},
{
closed = 1;
nodes = (
"278.368 882.173 LINE",
"272.209 867.055 OFFCURVE",
"282 854 OFFCURVE",
"301 854 CURVE SMOOTH",
"349 854 LINE SMOOTH",
"363.597 854 OFFCURVE",
"379.14 861.771 OFFCURVE",
"384.72 870.7 CURVE",
"454.368 972.342 LINE",
"463.494 984.658 OFFCURVE",
"459.658 1000 OFFCURVE",
"436 1000 CURVE SMOOTH",
"358 1000 LINE SMOOTH",
"342.864 1000 OFFCURVE",
"327.728 991.351 OFFCURVE",
"323.073 979.714 CURVE"
);
},
{
closed = 1;
nodes = (
"358.812 785 OFFCURVE",
"370 770.858 OFFCURVE",
"370 747 CURVE SMOOTH",
"370 724.084 OFFCURVE",
"357.665 708 OFFCURVE",
"342 708 CURVE SMOOTH",
"326.618 708 OFFCURVE",
"315 723.957 OFFCURVE",
"315 747 CURVE SMOOTH",
"315 771.138 OFFCURVE",
"324.804 785 OFFCURVE",
"342 785 CURVE SMOOTH"
);
}
);
width = 696;
}
);
unicode = 01FA;
},
{
glyphname = Atilde;
lastChange = "2013-03-20 20:06:28 +0000";
layers = (
{
layerId = "B4B43AB8-DB99-4954-A9F8-B6F89E957C89";
name = Regular;
paths = (
{
closed = 1;
nodes = (
"225.89 204 LINE",
"433.171 204 LINE",
"473.208 89 LINE",
"430 89 LINE SMOOTH",
"413.369 89 OFFCURVE",
"400 78.305 OFFCURVE",
"400 64 CURVE SMOOTH",
"400 15 LINE SMOOTH",
"400 2.32233 OFFCURVE",
"412.322 -10 OFFCURVE",
"430 -10 CURVE SMOOTH",
"681 -10 LINE SMOOTH",
"697.631 -10 OFFCURVE",
"711 0.694971 OFFCURVE",
"711 15 CURVE SMOOTH",
"711 64 LINE SMOOTH",
"711 76.1382 OFFCURVE",
"700.711 89 OFFCURVE",
"681 89 CURVE SMOOTH",
"624.857 89 LINE",
"425.181 668.259 LINE",
"420.453 679.899 OFFCURVE",
"406.801 689 OFFCURVE",
"391 689 CURVE SMOOTH",
"294 689 LINE SMOOTH",
"278.199 689 OFFCURVE",
"264.547 679.899 OFFCURVE",
"260.073 668.714 CURVE",
"62.1146 89 LINE",
"15 89 LINE SMOOTH",
"-2 89 OFFCURVE",
"-15 78.305 OFFCURVE",
"-15 64 CURVE SMOOTH",
"-15 15 LINE SMOOTH",
"-15 2.86176 OFFCURVE",
"-5 -10 OFFCURVE",
"15 -10 CURVE SMOOTH",
"228 -10 LINE SMOOTH",
"244.631 -10 OFFCURVE",
"258 0.694971 OFFCURVE",
"258 15 CURVE SMOOTH",
"258 64 LINE SMOOTH",
"258 76.6777 OFFCURVE",
"245.678 89 OFFCURVE",
"228 89 CURVE SMOOTH",
"186.705 89 LINE"
);
},
{
closed = 1;
nodes = (
"328.922 535.512 LINE",
"404.542 299 LINE",
"252.498 299 LINE"
);
},
{
closed = 1;
nodes = (
"218.729 868 OFFCURVE",
"163 849.002 OFFCURVE",
"163 764 CURVE SMOOTH",
"163 753.968 OFFCURVE",
"168.587 740 OFFCURVE",
"190 740 CURVE SMOOTH",
"221 740 LINE SMOOTH",
"235.597 740 OFFCURVE",
"248 746.202 OFFCURVE",
"248 760 CURVE SMOOTH",
"248 770.984 OFFCURVE",
"249.596 772 OFFCURVE",
"263 772 CURVE SMOOTH",
"293.826 772 OFFCURVE",
"378.826 734 OFFCURVE",
"442 734 CURVE SMOOTH",
"488.501 734 OFFCURVE",
"533 768.611 OFFCURVE",
"533 843 CURVE SMOOTH",
"533 853.032 OFFCURVE",
"527.413 867 OFFCURVE",
"506 867 CURVE SMOOTH",
"482 867 LINE SMOOTH",
"468.217 867 OFFCURVE",
"452 860.513 OFFCURVE",
"452 844 CURVE SMOOTH",
"452 827.394 OFFCURVE",
"450.029 827 OFFCURVE",
"433 827 CURVE SMOOTH",
"390.55 827 OFFCURVE",
"307.55 868 OFFCURVE",
"251 868 CURVE SMOOTH"
);
}
);
width = 696;
}
);
unicode = 00C3;
},
{
glyphname = AE;
lastChange = "2013-03-20 20:06:29 +0000";
layers = (
{
anchors = (
{
name = top;
position = "{440, 679}";
}
);
layerId = "B4B43AB8-DB99-4954-A9F8-B6F89E957C89";
name = Regular;
paths = (
{
closed = 1;
nodes = (
"422 204 LINE",
"422 89 LINE",
"388 89 LINE",
"365.844 90.5215 OFFCURVE",
"354 78.6777 OFFCURVE",
"354 61 CURVE SMOOTH",
"354 19 LINE SMOOTH",
"354 1.32233 OFFCURVE",
"365.322 -10 OFFCURVE",
"388 -10 CURVE SMOOTH",
"840 -10 LINE SMOOTH",
"862.678 -10 OFFCURVE",
"874 1.32233 OFFCURVE",
"874 19 CURVE SMOOTH",
"874 145 LINE SMOOTH",
"874 162.678 OFFCURVE",
"862.678 174 OFFCURVE",
"840 174 CURVE SMOOTH",
"792 174 LINE SMOOTH",
"769.322 174 OFFCURVE",
"757.822 162.5 OFFCURVE",
"759.033 144.335 CURVE SMOOTH",
"762.385 89 LINE",
"564 89 LINE",
"564 298 LINE",
"681.307 298 LINE",
"679.035 264.68 LINE SMOOTH",
"677.822 246.5 OFFCURVE",
"689.322 235 OFFCURVE",
"712 235 CURVE SMOOTH",
"760 235 LINE SMOOTH",
"782.678 235 OFFCURVE",
"794 246.322 OFFCURVE",
"794 264 CURVE SMOOTH",
"794 433 LINE SMOOTH",
"794 450.678 OFFCURVE",
"782.678 462 OFFCURVE",
"760 462 CURVE SMOOTH",
"712 462 LINE SMOOTH",
"689.322 462 OFFCURVE",
"677.822 450.5 OFFCURVE",
"679.033 432.335 CURVE SMOOTH",
"682.131 396 LINE",
"564 396 LINE",
"564 589 LINE",
"742.375 589 LINE",
"739.028 534.614 LINE SMOOTH",
"737.822 516.5 OFFCURVE",
"749.322 505 OFFCURVE",
"772 505 CURVE SMOOTH",
"820 505 LINE SMOOTH",
"842.678 505 OFFCURVE",
"854 516.322 OFFCURVE",
"854 534 CURVE SMOOTH",
"854 660 LINE SMOOTH",
"854 677.678 OFFCURVE",
"842.678 689 OFFCURVE",
"820 689 CURVE SMOOTH",
"296 689 LINE SMOOTH",
"273.322 689 OFFCURVE",
"262 677.678 OFFCURVE",
"262 660 CURVE SMOOTH",
"262 617 LINE SMOOTH",
"262 599.322 OFFCURVE",
"273.844 587.479 OFFCURVE",
"296.998 589.022 CURVE",
"322.93 589 LINE",
"56.5837 89 LINE",
"19 89 LINE",
"-3 90.5215 OFFCURVE",
"-15 78.6777 OFFCURVE",
"-15 61 CURVE SMOOTH",
"-15 19 LINE SMOOTH",
"-15 1.32233 OFFCURVE",
"-4 -10 OFFCURVE",
"19 -10 CURVE SMOOTH",
"220 -10 LINE SMOOTH",
"242.678 -10 OFFCURVE",
"254 1.32233 OFFCURVE",
"254 19 CURVE SMOOTH",
"254 61 LINE SMOOTH",
"254 78.6777 OFFCURVE",
"242.156 90.5215 OFFCURVE",
"219.002 88.9779 CURVE",
"188.983 89 LINE",
"249.465 204 LINE"
);
},
{
closed = 1;
nodes = (
"422 299 LINE",
"294.023 299 LINE",
"422 540.908 LINE"
);
}
);
width = 879;
}
);
unicode = 00C6;
},
{
glyphname = AEacute;
lastChange = "2013-03-20 20:06:28 +0000";
layers = (
{
layerId = "B4B43AB8-DB99-4954-A9F8-B6F89E957C89";
name = Regular;
paths = (
{
closed = 1;
nodes = (
"422 204 LINE",
"422 89 LINE",
"388 89 LINE",
"365.844 90.5215 OFFCURVE",
"354 78.6777 OFFCURVE",
"354 61 CURVE SMOOTH",
"354 19 LINE SMOOTH",
"354 1.32233 OFFCURVE",
"365.322 -10 OFFCURVE",
"388 -10 CURVE SMOOTH",
"840 -10 LINE SMOOTH",
"862.678 -10 OFFCURVE",
"874 1.32233 OFFCURVE",
"874 19 CURVE SMOOTH",
"874 145 LINE SMOOTH",
"874 162.678 OFFCURVE",
"862.678 174 OFFCURVE",
"840 174 CURVE SMOOTH",
"792 174 LINE SMOOTH",
"769.322 174 OFFCURVE",
"757.822 162.5 OFFCURVE",
"759.033 144.335 CURVE SMOOTH",
"762.385 89 LINE",
"564 89 LINE",
"564 298 LINE",
"681.307 298 LINE",
"679.035 264.68 LINE SMOOTH",
"677.822 246.5 OFFCURVE",
"689.322 235 OFFCURVE",
"712 235 CURVE SMOOTH",
"760 235 LINE SMOOTH",
"782.678 235 OFFCURVE",
"794 246.322 OFFCURVE",
"794 264 CURVE SMOOTH",
"794 433 LINE SMOOTH",
"794 450.678 OFFCURVE",
"782.678 462 OFFCURVE",
"760 462 CURVE SMOOTH",
"712 462 LINE SMOOTH",
"689.322 462 OFFCURVE",
"677.822 450.5 OFFCURVE",
"679.033 432.335 CURVE SMOOTH",
"682.131 396 LINE",
"564 396 LINE",
"564 589 LINE",
"742.375 589 LINE",
"739.028 534.614 LINE SMOOTH",
"737.822 516.5 OFFCURVE",
"749.322 505 OFFCURVE",
"772 505 CURVE SMOOTH",
"820 505 LINE SMOOTH",
"842.678 505 OFFCURVE",
"854 516.322 OFFCURVE",
"854 534 CURVE SMOOTH",
"854 660 LINE SMOOTH",
"854 677.678 OFFCURVE",
"842.678 689 OFFCURVE",
"820 689 CURVE SMOOTH",
"296 689 LINE SMOOTH",
"273.322 689 OFFCURVE",
"262 677.678 OFFCURVE",
"262 660 CURVE SMOOTH",
"262 617 LINE SMOOTH",
"262 599.322 OFFCURVE",
"273.844 587.479 OFFCURVE",
"296.998 589.022 CURVE",
"322.93 589 LINE",
"56.5837 89 LINE",
"19 89 LINE",
"-3 90.5215 OFFCURVE",
"-15 78.6777 OFFCURVE",
"-15 61 CURVE SMOOTH",
"-15 19 LINE SMOOTH",
"-15 1.32233 OFFCURVE",
"-4 -10 OFFCURVE",
"19 -10 CURVE SMOOTH",
"220 -10 LINE SMOOTH",
"242.678 -10 OFFCURVE",
"254 1.32233 OFFCURVE",
"254 19 CURVE SMOOTH",
"254 61 LINE SMOOTH",
"254 78.6777 OFFCURVE",
"242.156 90.5215 OFFCURVE",
"219.002 88.9779 CURVE",
"188.983 89 LINE",
"249.465 204 LINE"
);
},
{
closed = 1;
nodes = (
"422 299 LINE",
"294.023 299 LINE",
"422 540.908 LINE"
);
},
{
closed = 1;
nodes = (
"498.368 750.173 LINE",
"492.209 735.055 OFFCURVE",
"502 722 OFFCURVE",
"521 722 CURVE SMOOTH",
"569 722 LINE SMOOTH",
"583.597 722 OFFCURVE",
"599.14 729.771 OFFCURVE",
"604.72 738.7 CURVE",
"674.368 840.342 LINE",
"683.494 852.658 OFFCURVE",
"679.658 868 OFFCURVE",
"656 868 CURVE SMOOTH",
"578 868 LINE SMOOTH",
"562.864 868 OFFCURVE",
"547.728 859.351 OFFCURVE",
"543.073 847.714 CURVE"
);
}
);
width = 879;
}
);
unicode = 01FC;
},
{
glyphname = B;
lastChange = "2013-03-20 20:06:28 +0000";
layers = (
{
layerId = "B4B43AB8-DB99-4954-A9F8-B6F89E957C89";
name = Regular;
paths = (
{
closed = 1;
nodes = (
"24 15 LINE SMOOTH",
"24 0.694971 OFFCURVE",
"37.3687 -10 OFFCURVE",
"54 -10 CURVE SMOOTH",
"194 -10 LINE SMOOTH",
"248 -10 OFFCURVE",
"289.696 -10 OFFCURVE",
"333.044 -7 CURVE SMOOTH",
"476.081 2.42208 OFFCURVE",
"577 81.6381 OFFCURVE",
"577 200 CURVE SMOOTH",
"577 278.226 OFFCURVE",
"528.971 345.228 OFFCURVE",
"436.012 370.508 CURVE",
"486.953 399.544 OFFCURVE",
"535 453.415 OFFCURVE",
"535 525 CURVE SMOOTH",
"535 630.868 OFFCURVE",
"438.801 695 OFFCURVE",
"268 695 CURVE SMOOTH",
"209.72 695 OFFCURVE",
"102.304 691.988 OFFCURVE",
"54.3755 689.991 CURVE",
"35.2894 690 OFFCURVE",
"25 677.138 OFFCURVE",
"25 664 CURVE SMOOTH",
"25 613 LINE SMOOTH",
"25 600.322 OFFCURVE",
"37.3223 588 OFFCURVE",
"55 588 CURVE SMOOTH",
"92 588 LINE",
"92 89 LINE",
"54 89 LINE SMOOTH",
"37.3687 89 OFFCURVE",
"24 78.305 OFFCURVE",
"24 64 CURVE SMOOTH"
);
},
{
closed = 1;
nodes = (
"234 305 LINE",
"291 305 LINE SMOOTH",
"382.664 305 OFFCURVE",
"434 273.705 OFFCURVE",
"434 202 CURVE SMOOTH",
"434 111.148 OFFCURVE",
"364.795 87 OFFCURVE",
"264 87 CURVE SMOOTH",
"234 87 LINE"
);
},
{
closed = 1;
nodes = (
"234 594 LINE",
"266 594 LINE SMOOTH",
"341.493 594 OFFCURVE",
"390 575.128 OFFCURVE",
"390 501 CURVE SMOOTH",
"390 433.681 OFFCURVE",
"343.149 408 OFFCURVE",
"257 408 CURVE SMOOTH",
"234 408 LINE"
);
}
);
width = 587;
}
);
unicode = 0042;
},
{
glyphname = C;
lastChange = "2013-03-20 20:06:29 +0000";
layers = (
{
anchors = (
{
name = bottom;
position = "{315, 0}";
},
{
name = top;
position = "{315, 679}";
}
);
layerId = "B4B43AB8-DB99-4954-A9F8-B6F89E957C89";
name = Regular;
paths = (
{
closed = 1;
nodes = (
"28 127.153 OFFCURVE",
"131.666 -22 OFFCURVE",
"368 -22 CURVE SMOOTH",
"454.829 -22 OFFCURVE",
"530.996 0.215428 OFFCURVE",
"575.588 22.0162 CURVE SMOOTH",
"594 31.2016 OFFCURVE",
"594 40 OFFCURVE",
"594 50 CURVE SMOOTH",
"594 177 LINE SMOOTH",
"594 191.305 OFFCURVE",
"580.631 202 OFFCURVE",
"564 202 CURVE SMOOTH",
"507 202 LINE SMOOTH",
"490.369 202 OFFCURVE",
"476.701 191.066 OFFCURVE",
"478.062 176.095 CURVE SMOOTH",
"481.794 110.466 LINE",
"456.663 93.1486 OFFCURVE",
"419.801 85 OFFCURVE",
"372 85 CURVE SMOOTH",
"229.304 85 OFFCURVE",
"178 205.105 OFFCURVE",
"178 352 CURVE SMOOTH",
"178 489.94 OFFCURVE",
"222.442 598 OFFCURVE",
"355 598 CURVE SMOOTH",
"400.918 598 OFFCURVE",
"444.971 584.5 OFFCURVE",
"480.829 562.114 CURVE",
"478.014 496.428 LINE",
"476.701 481.934 OFFCURVE",
"490.369 471 OFFCURVE",
"507 471 CURVE SMOOTH",
"563 471 LINE SMOOTH",
"580.678 471 OFFCURVE",
"593 483.322 OFFCURVE",
"593 496 CURVE SMOOTH",
"593 625 LINE SMOOTH",
"593 637.138 OFFCURVE",
"585.663 646.309 OFFCURVE",
"572.285 653.742 CURVE SMOOTH",
"512.038 686.867 OFFCURVE",
"433.38 706 OFFCURVE",
"356 706 CURVE SMOOTH",
"209.156 706 OFFCURVE",
"28 609.595 OFFCURVE",
"28 336 CURVE SMOOTH"
);
}
);
width = 629;
}
);
unicode = 0043;
},
{
glyphname = Cacute;
lastChange = "2013-03-20 20:06:28 +0000";
layers = (
{
layerId = "B4B43AB8-DB99-4954-A9F8-B6F89E957C89";
name = Regular;
paths = (
{
closed = 1;
nodes = (
"28 127.153 OFFCURVE",
"131.666 -22 OFFCURVE",
"368 -22 CURVE SMOOTH",
"454.829 -22 OFFCURVE",
"530.996 0.215428 OFFCURVE",
"575.588 22.0162 CURVE SMOOTH",
"594 31.2016 OFFCURVE",
"594 40 OFFCURVE",
"594 50 CURVE SMOOTH",
"594 177 LINE SMOOTH",
"594 191.305 OFFCURVE",
"580.631 202 OFFCURVE",
"564 202 CURVE SMOOTH",
"507 202 LINE SMOOTH",
"490.369 202 OFFCURVE",
"476.701 191.066 OFFCURVE",
"478.062 176.095 CURVE SMOOTH",
"481.794 110.466 LINE",
"456.663 93.1486 OFFCURVE",
"419.801 85 OFFCURVE",
"372 85 CURVE SMOOTH",
"229.304 85 OFFCURVE",
"178 205.105 OFFCURVE",
"178 352 CURVE SMOOTH",
"178 489.94 OFFCURVE",
"222.442 598 OFFCURVE",
"355 598 CURVE SMOOTH",
"400.918 598 OFFCURVE",
"444.971 584.5 OFFCURVE",
"480.829 562.114 CURVE",
"478.014 496.428 LINE",
"476.701 481.934 OFFCURVE",
"490.369 471 OFFCURVE",
"507 471 CURVE SMOOTH",
"563 471 LINE SMOOTH",
"580.678 471 OFFCURVE",
"593 483.322 OFFCURVE",
"593 496 CURVE SMOOTH",
"593 625 LINE SMOOTH",
"593 637.138 OFFCURVE",
"585.663 646.309 OFFCURVE",
"572.285 653.742 CURVE SMOOTH",
"512.038 686.867 OFFCURVE",
"433.38 706 OFFCURVE",
"356 706 CURVE SMOOTH",
"209.156 706 OFFCURVE",
"28 609.595 OFFCURVE",
"28 336 CURVE SMOOTH"
);
},
{
closed = 1;
nodes = (
"307.368 750.173 LINE",
"301.209 735.055 OFFCURVE",
"311 722 OFFCURVE",
"330 722 CURVE SMOOTH",
"378 722 LINE SMOOTH",
"392.597 722 OFFCURVE",
"408.14 729.771 OFFCURVE",
"413.72 738.7 CURVE",
"483.368 840.342 LINE",
"492.494 852.658 OFFCURVE",
"488.658 868 OFFCURVE",
"465 868 CURVE SMOOTH",
"387 868 LINE SMOOTH",
"371.864 868 OFFCURVE",
"356.728 859.351 OFFCURVE",
"352.073 847.714 CURVE"
);
}
);
width = 629;
}
);
unicode = 0106;
},
{
glyphname = Ccaron;
lastChange = "2013-03-20 20:06:28 +0000";
layers = (
{
layerId = "B4B43AB8-DB99-4954-A9F8-B6F89E957C89";
name = Regular;
paths = (
{
closed = 1;
nodes = (
"28 127.153 OFFCURVE",
"131.666 -22 OFFCURVE",
"368 -22 CURVE SMOOTH",
"454.829 -22 OFFCURVE",
"530.996 0.215428 OFFCURVE",
"575.588 22.0162 CURVE SMOOTH",
"594 31.2016 OFFCURVE",
"594 40 OFFCURVE",
"594 50 CURVE SMOOTH",
"594 177 LINE SMOOTH",
"594 191.305 OFFCURVE",
"580.631 202 OFFCURVE",
"564 202 CURVE SMOOTH",
"507 202 LINE SMOOTH",
"490.369 202 OFFCURVE",
"476.701 191.066 OFFCURVE",
"478.062 176.095 CURVE SMOOTH",
"481.794 110.466 LINE",
"456.663 93.1486 OFFCURVE",
"419.801 85 OFFCURVE",
"372 85 CURVE SMOOTH",
"229.304 85 OFFCURVE",
"178 205.105 OFFCURVE",
"178 352 CURVE SMOOTH",
"178 489.94 OFFCURVE",
"222.442 598 OFFCURVE",
"355 598 CURVE SMOOTH",
"400.918 598 OFFCURVE",
"444.971 584.5 OFFCURVE",
"480.829 562.114 CURVE",
"478.014 496.428 LINE",
"476.701 481.934 OFFCURVE",
"490.369 471 OFFCURVE",
"507 471 CURVE SMOOTH",
"563 471 LINE SMOOTH",
"580.678 471 OFFCURVE",
"593 483.322 OFFCURVE",
"593 496 CURVE SMOOTH",
"593 625 LINE SMOOTH",
"593 637.138 OFFCURVE",
"585.663 646.309 OFFCURVE",
"572.285 653.742 CURVE SMOOTH",
"512.038 686.867 OFFCURVE",
"433.38 706 OFFCURVE",
"356 706 CURVE SMOOTH",
"209.156 706 OFFCURVE",
"28 609.595 OFFCURVE",
"28 336 CURVE SMOOTH"
);
},
{
closed = 1;
nodes = (
"444 873 LINE SMOOTH",
"429.403 873 OFFCURVE",
"414.358 865.477 OFFCURVE",
"408 857 CURVE SMOOTH",
"362.885 800.687 LINE",
"316.617 857.326 LINE SMOOTH",
"309.007 867.211 OFFCURVE",
"293.569 873 OFFCURVE",
"280 873 CURVE SMOOTH",
"223 873 LINE SMOOTH",
"200.348 873 OFFCURVE",
"193.809 859.922 OFFCURVE",
"205 845 CURVE SMOOTH",
"287.094 737.917 LINE SMOOTH",
"293.358 729.523 OFFCURVE",
"308.403 722 OFFCURVE",
"323 722 CURVE SMOOTH",
"399 722 LINE SMOOTH",
"413.597 722 OFFCURVE",
"428.642 729.523 OFFCURVE",
"435 738 CURVE SMOOTH",
"516.906 844.917 LINE SMOOTH",
"528.191 859.922 OFFCURVE",
"521.652 873 OFFCURVE",
"499 873 CURVE SMOOTH"
);
}
);
width = 629;
}
);
unicode = 010C;
},
{
glyphname = Ccedilla;
lastChange = "2013-03-20 20:06:28 +0000";
layers = (
{
layerId = "B4B43AB8-DB99-4954-A9F8-B6F89E957C89";
name = Regular;
paths = (
{
closed = 1;
nodes = (
"28 139.977 OFFCURVE",
"118.903 -4 OFFCURVE",
"326.689 -20 CURVE",
"303.639 -53 LINE",
"295.766 -66 OFFCURVE",
"297.447 -77 OFFCURVE",
"309.238 -88 CURVE",
"318.791 -95 LINE SMOOTH",
"332.142 -105 OFFCURVE",
"335 -110 OFFCURVE",
"335 -124 CURVE SMOOTH",
"335 -139 OFFCURVE",
"326.558 -149 OFFCURVE",
"299.176 -172 CURVE SMOOTH",
"287.627 -182 OFFCURVE",
"285.589 -193 OFFCURVE",
"296.16 -206 CURVE SMOOTH",
"304.287 -216 LINE",
"311.95 -227 OFFCURVE",
"332.311 -230 OFFCURVE",
"345.321 -221 CURVE SMOOTH",
"392.937 -190 OFFCURVE",
"448 -143 OFFCURVE",
"448 -108 CURVE SMOOTH",
"448 -81 OFFCURVE",
"431.386 -62 OFFCURVE",
"404.878 -38 CURVE SMOOTH",
"395.879 -31 LINE",
"402.125 -21 LINE",
"473.887 -16 OFFCURVE",
"536.769 3.08182 OFFCURVE",
"575.576 22.0123 CURVE SMOOTH",
"594 31.2016 OFFCURVE",
"594 40 OFFCURVE",
"594 50 CURVE SMOOTH",
"594 177 LINE SMOOTH",
"594 191.305 OFFCURVE",
"580.631 202 OFFCURVE",
"564 202 CURVE SMOOTH",
"507 202 LINE SMOOTH",
"490.369 202 OFFCURVE",
"476.701 191.066 OFFCURVE",
"478.062 176.095 CURVE SMOOTH",
"481.794 110.466 LINE",
"456.663 93.1486 OFFCURVE",
"419.801 85 OFFCURVE",
"372 85 CURVE SMOOTH",
"229.304 85 OFFCURVE",
"178 205.105 OFFCURVE",
"178 352 CURVE SMOOTH",
"178 489.94 OFFCURVE",
"222.442 598 OFFCURVE",
"355 598 CURVE SMOOTH",
"400.918 598 OFFCURVE",
"444.971 584.5 OFFCURVE",
"480.829 562.114 CURVE",
"478.014 496.428 LINE",
"476.701 481.934 OFFCURVE",
"490.369 471 OFFCURVE",
"507 471 CURVE SMOOTH",
"563 471 LINE SMOOTH",
"580.678 471 OFFCURVE",
"593 483.322 OFFCURVE",
"593 496 CURVE SMOOTH",
"593 625 LINE SMOOTH",
"593 637.138 OFFCURVE",
"585.663 646.309 OFFCURVE",
"572.285 653.742 CURVE SMOOTH",
"512.038 686.867 OFFCURVE",
"433.38 706 OFFCURVE",
"356 706 CURVE SMOOTH",
"209.156 706 OFFCURVE",
"28 609.595 OFFCURVE",
"28 336 CURVE SMOOTH"
);
}
);
width = 629;
}
);
unicode = 00C7;
},
{
glyphname = Ccircumflex;
lastChange = "2013-03-20 20:06:28 +0000";
layers = (
{
layerId = "B4B43AB8-DB99-4954-A9F8-B6F89E957C89";
name = Regular;
paths = (
{
closed = 1;
nodes = (
"28 127.153 OFFCURVE",
"131.666 -22 OFFCURVE",
"368 -22 CURVE SMOOTH",
"454.829 -22 OFFCURVE",
"530.996 0.215428 OFFCURVE",
"575.588 22.0162 CURVE SMOOTH",
"594 31.2016 OFFCURVE",
"594 40 OFFCURVE",
"594 50 CURVE SMOOTH",
"594 177 LINE SMOOTH",
"594 191.305 OFFCURVE",
"580.631 202 OFFCURVE",
"564 202 CURVE SMOOTH",
"507 202 LINE SMOOTH",
"490.369 202 OFFCURVE",
"476.701 191.066 OFFCURVE",
"478.062 176.095 CURVE SMOOTH",
"481.794 110.466 LINE",
"456.663 93.1486 OFFCURVE",
"419.801 85 OFFCURVE",
"372 85 CURVE SMOOTH",
"229.304 85 OFFCURVE",
"178 205.105 OFFCURVE",
"178 352 CURVE SMOOTH",
"178 489.94 OFFCURVE",
"222.442 598 OFFCURVE",
"355 598 CURVE SMOOTH",
"400.918 598 OFFCURVE",
"444.971 584.5 OFFCURVE",
"480.829 562.114 CURVE",
"478.014 496.428 LINE",
"476.701 481.934 OFFCURVE",
"490.369 471 OFFCURVE",
"507 471 CURVE SMOOTH",
"563 471 LINE SMOOTH",
"580.678 471 OFFCURVE",
"593 483.322 OFFCURVE",
"593 496 CURVE SMOOTH",
"593 625 LINE SMOOTH",
"593 637.138 OFFCURVE",
"585.663 646.309 OFFCURVE",
"572.285 653.742 CURVE SMOOTH",
"512.038 686.867 OFFCURVE",
"433.38 706 OFFCURVE",
"356 706 CURVE SMOOTH",
"209.156 706 OFFCURVE",
"28 609.595 OFFCURVE",
"28 336 CURVE SMOOTH"
);
},
{
closed = 1;
nodes = (
"277 722 LINE SMOOTH",
"291.597 722 OFFCURVE",
"306.642 729.523 OFFCURVE",
"313 738 CURVE SMOOTH",
"358.115 794.313 LINE",
"404.383 737.674 LINE SMOOTH",
"411.993 727.789 OFFCURVE",
"427.431 722 OFFCURVE",
"441 722 CURVE SMOOTH",
"498 722 LINE SMOOTH",
"520.652 722 OFFCURVE",
"527.191 735.078 OFFCURVE",
"516 750 CURVE SMOOTH",
"433.906 857.083 LINE SMOOTH",
"427.642 865.477 OFFCURVE",
"412.597 873 OFFCURVE",
"398 873 CURVE SMOOTH",
"322 873 LINE SMOOTH",
"307.403 873 OFFCURVE",
"292.358 865.477 OFFCURVE",
"286 857 CURVE SMOOTH",
"204.094 750.083 LINE SMOOTH",
"192.809 735.078 OFFCURVE",
"199.348 722 OFFCURVE",
"222 722 CURVE SMOOTH"
);
}
);
width = 629;
}
);
unicode = 0108;
},
{
glyphname = Cdotaccent;
lastChange = "2013-03-20 20:06:28 +0000";
layers = (
{
layerId = "B4B43AB8-DB99-4954-A9F8-B6F89E957C89";
name = Regular;
paths = (
{
closed = 1;
nodes = (
"28 127.153 OFFCURVE",
"131.666 -22 OFFCURVE",
"368 -22 CURVE SMOOTH",
"454.829 -22 OFFCURVE",
"530.996 0.215428 OFFCURVE",
"575.588 22.0162 CURVE SMOOTH",
"594 31.2016 OFFCURVE",
"594 40 OFFCURVE",
"594 50 CURVE SMOOTH",
"594 177 LINE SMOOTH",
"594 191.305 OFFCURVE",
"580.631 202 OFFCURVE",
"564 202 CURVE SMOOTH",
"507 202 LINE SMOOTH",
"490.369 202 OFFCURVE",
"476.701 191.066 OFFCURVE",
"478.062 176.095 CURVE SMOOTH",
"481.794 110.466 LINE",
"456.663 93.1486 OFFCURVE",
"419.801 85 OFFCURVE",
"372 85 CURVE SMOOTH",
"229.304 85 OFFCURVE",
"178 205.105 OFFCURVE",
"178 352 CURVE SMOOTH",
"178 489.94 OFFCURVE",
"222.442 598 OFFCURVE",
"355 598 CURVE SMOOTH",
"400.918 598 OFFCURVE",
"444.971 584.5 OFFCURVE",
"480.829 562.114 CURVE",
"478.014 496.428 LINE",
"476.701 481.934 OFFCURVE",
"490.369 471 OFFCURVE",
"507 471 CURVE SMOOTH",
"563 471 LINE SMOOTH",
"580.678 471 OFFCURVE",
"593 483.322 OFFCURVE",
"593 496 CURVE SMOOTH",
"593 625 LINE SMOOTH",
"593 637.138 OFFCURVE",
"585.663 646.309 OFFCURVE",
"572.285 653.742 CURVE SMOOTH",
"512.038 686.867 OFFCURVE",
"433.38 706 OFFCURVE",
"356 706 CURVE SMOOTH",
"209.156 706 OFFCURVE",
"28 609.595 OFFCURVE",
"28 336 CURVE SMOOTH"
);
},
{
closed = 1;
nodes = (
"267 758.755 OFFCURVE",
"299.505 720 OFFCURVE",
"353 720 CURVE SMOOTH",
"405.153 720 OFFCURVE",
"440 758.58 OFFCURVE",
"440 801 CURVE SMOOTH",
"440 844.333 OFFCURVE",
"406.322 883 OFFCURVE",
"353 883 CURVE SMOOTH",
"300.678 883 OFFCURVE",
"267 844.333 OFFCURVE",
"267 801 CURVE SMOOTH"
);
}
);
width = 629;
}
);
unicode = 010A;
},
{
glyphname = D;
lastChange = "2013-03-20 20:06:29 +0000";
layers = (
{
anchors = (
{
name = center;
position = "{340, 340}";
},
{
name = top;
position = "{340, 679}";
}
);
layerId = "B4B43AB8-DB99-4954-A9F8-B6F89E957C89";
name = Regular;
paths = (
{
closed = 1;
nodes = (
"204.651 695 OFFCURVE",
"118.183 691.984 OFFCURVE",
"54.2976 688.989 CURVE",
"36.3223 689 OFFCURVE",
"25 677.678 OFFCURVE",
"25 664 CURVE SMOOTH",
"25 613 LINE SMOOTH",
"25 600.322 OFFCURVE",
"37.3223 588 OFFCURVE",
"55 588 CURVE SMOOTH",
"92 588 LINE",
"92 89 LINE",
"55 89 LINE SMOOTH",
"38.3687 89 OFFCURVE",
"25 78.305 OFFCURVE",
"25 64 CURVE SMOOTH",
"25 15 LINE SMOOTH",
"25 2.32233 OFFCURVE",
"37.3223 -10 OFFCURVE",
"55 -10 CURVE SMOOTH",
"263 -10 LINE SMOOTH",
"489.015 -10 OFFCURVE",
"651 103.283 OFFCURVE",
"651 358 CURVE SMOOTH",
"651 664.188 OFFCURVE",
"418.316 695 OFFCURVE",
"271 695 CURVE SMOOTH"
);
},
{
closed = 1;
nodes = (
"501 190.982 OFFCURVE",
"424.876 88 OFFCURVE",
"285 88 CURVE SMOOTH",
"234 88 LINE",
"234 592 LINE",
"283 592 LINE SMOOTH",
"433.418 592 OFFCURVE",
"501 510.763 OFFCURVE",
"501 340 CURVE SMOOTH"
);
}
);
width = 679;
}
);
unicode = 0044;
},
{
glyphname = Eth;
lastChange = "2013-03-20 20:06:28 +0000";
layers = (
{
layerId = "B4B43AB8-DB99-4954-A9F8-B6F89E957C89";
name = Regular;
paths = (
{
closed = 1;
nodes = (
"217.651 695 OFFCURVE",
"131.183 691.984 OFFCURVE",
"67.2976 688.989 CURVE",
"49.3223 689 OFFCURVE",
"38 677.678 OFFCURVE",
"38 664 CURVE SMOOTH",
"38 613 LINE SMOOTH",
"38 600.322 OFFCURVE",
"50.3223 588 OFFCURVE",
"68 588 CURVE SMOOTH",
"105 588 LINE",
"105 377 LINE",
"72 377 LINE SMOOTH",
"49.3223 377 OFFCURVE",
"38 365.678 OFFCURVE",
"38 348 CURVE SMOOTH",
"38 333 LINE SMOOTH",
"38 315.322 OFFCURVE",
"49.3223 304 OFFCURVE",
"72 304 CURVE SMOOTH",
"105 304 LINE",
"105 89 LINE",
"68 89 LINE SMOOTH",
"51.3687 89 OFFCURVE",
"38 78.305 OFFCURVE",
"38 64 CURVE SMOOTH",
"38 15 LINE SMOOTH",
"38 2.32233 OFFCURVE",
"50.3223 -10 OFFCURVE",
"68 -10 CURVE SMOOTH",
"276 -10 LINE SMOOTH",
"502.015 -10 OFFCURVE",
"664 103.283 OFFCURVE",
"664 358 CURVE SMOOTH",
"664 664.188 OFFCURVE",
"431.316 695 OFFCURVE",
"284 695 CURVE SMOOTH"
);
},
{
closed = 1;
nodes = (
"514 190.982 OFFCURVE",
"437.876 88 OFFCURVE",
"298 88 CURVE SMOOTH",
"247 88 LINE",
"247 304 LINE",
"382 304 LINE SMOOTH",
"404.678 304 OFFCURVE",
"416 315.322 OFFCURVE",
"416 333 CURVE SMOOTH",
"416 348 LINE SMOOTH",
"416 365.678 OFFCURVE",
"404.678 377 OFFCURVE",
"382 377 CURVE SMOOTH",
"247 377 LINE",
"247 592 LINE",
"296 592 LINE SMOOTH",
"446.418 592 OFFCURVE",
"514 510.763 OFFCURVE",
"514 340 CURVE SMOOTH"
);
}
);
width = 692;
}
);
unicode = 00D0;
},
{
glyphname = Dcaron;
lastChange = "2013-03-20 20:06:28 +0000";
layers = (
{
layerId = "B4B43AB8-DB99-4954-A9F8-B6F89E957C89";
name = Regular;
paths = (
{
closed = 1;
nodes = (
"204.651 695 OFFCURVE",
"118.183 691.984 OFFCURVE",
"54.2976 688.989 CURVE",
"36.3223 689 OFFCURVE",
"25 677.678 OFFCURVE",
"25 664 CURVE SMOOTH",
"25 613 LINE SMOOTH",
"25 600.322 OFFCURVE",
"37.3223 588 OFFCURVE",
"55 588 CURVE SMOOTH",
"92 588 LINE",
"92 89 LINE",
"55 89 LINE SMOOTH",
"38.3687 89 OFFCURVE",
"25 78.305 OFFCURVE",
"25 64 CURVE SMOOTH",
"25 15 LINE SMOOTH",
"25 2.32233 OFFCURVE",
"37.3223 -10 OFFCURVE",
"55 -10 CURVE SMOOTH",
"263 -10 LINE SMOOTH",
"489.015 -10 OFFCURVE",
"651 103.283 OFFCURVE",
"651 358 CURVE SMOOTH",
"651 664.188 OFFCURVE",
"418.316 695 OFFCURVE",
"271 695 CURVE SMOOTH"
);
},
{
closed = 1;
nodes = (
"501 190.982 OFFCURVE",
"424.876 88 OFFCURVE",
"285 88 CURVE SMOOTH",
"234 88 LINE",
"234 592 LINE",
"283 592 LINE SMOOTH",
"433.418 592 OFFCURVE",
"501 510.763 OFFCURVE",
"501 340 CURVE SMOOTH"
);
},
{
closed = 1;
nodes = (
"369 873 LINE SMOOTH",
"354.403 873 OFFCURVE",
"339.358 865.477 OFFCURVE",
"333 857 CURVE SMOOTH",
"287.885 800.687 LINE",
"241.617 857.326 LINE SMOOTH",
"234.007 867.211 OFFCURVE",
"218.569 873 OFFCURVE",
"205 873 CURVE SMOOTH",
"148 873 LINE SMOOTH",
"125.348 873 OFFCURVE",
"118.809 859.922 OFFCURVE",
"130 845 CURVE SMOOTH",
"212.094 737.917 LINE SMOOTH",
"218.358 729.523 OFFCURVE",
"233.403 722 OFFCURVE",
"248 722 CURVE SMOOTH",
"324 722 LINE SMOOTH",
"338.597 722 OFFCURVE",
"353.642 729.523 OFFCURVE",
"360 738 CURVE SMOOTH",
"441.906 844.917 LINE SMOOTH",
"453.191 859.922 OFFCURVE",
"446.652 873 OFFCURVE",
"424 873 CURVE SMOOTH"
);
}
);
width = 679;
}
);
unicode = 010E;
},
{
glyphname = Dcroat;
lastChange = "2013-03-20 20:06:28 +0000";
layers = (
{
layerId = "B4B43AB8-DB99-4954-A9F8-B6F89E957C89";
name = Regular;
paths = (
{
closed = 1;
nodes = (
"217.651 695 OFFCURVE",
"131.183 691.984 OFFCURVE",
"67.2976 688.989 CURVE",
"49.3223 689 OFFCURVE",
"38 677.678 OFFCURVE",
"38 664 CURVE SMOOTH",
"38 613 LINE SMOOTH",
"38 600.322 OFFCURVE",
"50.3223 588 OFFCURVE",
"68 588 CURVE SMOOTH",
"105 588 LINE",
"105 377 LINE",
"72 377 LINE SMOOTH",
"49.3223 377 OFFCURVE",
"38 365.678 OFFCURVE",
"38 348 CURVE SMOOTH",
"38 333 LINE SMOOTH",
"38 315.322 OFFCURVE",
"49.3223 304 OFFCURVE",
"72 304 CURVE SMOOTH",
"105 304 LINE",
"105 89 LINE",
"68 89 LINE SMOOTH",
"51.3687 89 OFFCURVE",
"38 78.305 OFFCURVE",
"38 64 CURVE SMOOTH",
"38 15 LINE SMOOTH",
"38 2.32233 OFFCURVE",
"50.3223 -10 OFFCURVE",
"68 -10 CURVE SMOOTH",
"276 -10 LINE SMOOTH",
"502.015 -10 OFFCURVE",
"664 103.283 OFFCURVE",
"664 358 CURVE SMOOTH",
"664 664.188 OFFCURVE",
"431.316 695 OFFCURVE",
"284 695 CURVE SMOOTH"
);
},
{
closed = 1;
nodes = (
"514 190.982 OFFCURVE",
"437.876 88 OFFCURVE",
"298 88 CURVE SMOOTH",
"247 88 LINE",
"247 304 LINE",
"382 304 LINE SMOOTH",
"404.678 304 OFFCURVE",
"416 315.322 OFFCURVE",
"416 333 CURVE SMOOTH",
"416 348 LINE SMOOTH",
"416 365.678 OFFCURVE",
"404.678 377 OFFCURVE",
"382 377 CURVE SMOOTH",
"247 377 LINE",
"247 592 LINE",
"296 592 LINE SMOOTH",
"446.418 592 OFFCURVE",
"514 510.763 OFFCURVE",
"514 340 CURVE SMOOTH"
);
}
);
width = 692;
}
);
unicode = 0110;
},
{
glyphname = E;
lastChange = "2013-03-20 20:06:29 +0000";
layers = (
{
anchors = (
{
name = bottom;
position = "{278, 0}";
},
{
name = ogonek;
position = "{499, 10}";
},
{
name = top;
position = "{278, 679}";
}
);
layerId = "B4B43AB8-DB99-4954-A9F8-B6F89E957C89";
name = Regular;
paths = (
{
closed = 1;
nodes = (
"235 589 LINE",
"413.412 589 LINE",
"410.025 530.579 LINE SMOOTH",
"408.701 515.934 OFFCURVE",
"422.369 505 OFFCURVE",
"439 505 CURVE SMOOTH",
"495 505 LINE SMOOTH",
"511.631 505 OFFCURVE",
"525 515.695 OFFCURVE",
"525 530 CURVE SMOOTH",
"525 664 LINE SMOOTH",
"525 676.138 OFFCURVE",
"514.711 689 OFFCURVE",
"495 689 CURVE SMOOTH",
"55 689 LINE SMOOTH",
"38.3687 689 OFFCURVE",
"25 678.305 OFFCURVE",
"25 664 CURVE SMOOTH",
"25 613 LINE SMOOTH",
"25 600.322 OFFCURVE",
"37.3223 588 OFFCURVE",
"55 588 CURVE SMOOTH",
"93 588 LINE",
"93 89 LINE",
"55 89 LINE SMOOTH",
"38.3687 89 OFFCURVE",
"25 78.305 OFFCURVE",
"25 64 CURVE SMOOTH",
"25 15 LINE SMOOTH",
"25 2.86176 OFFCURVE",
"35.2894 -10 OFFCURVE",
"55 -10 CURVE SMOOTH",
"515 -10 LINE SMOOTH",
"533.678 -10 OFFCURVE",
"545 1.32233 OFFCURVE",
"545 15 CURVE SMOOTH",
"545 149 LINE SMOOTH",
"545 161.678 OFFCURVE",
"532.678 174 OFFCURVE",
"515 174 CURVE SMOOTH",
"459 174 LINE SMOOTH",
"442.369 174 OFFCURVE",
"428.701 163.066 OFFCURVE",
"430.062 148.095 CURVE SMOOTH",
"433.429 88 LINE",
"235 88 LINE",
"235 298 LINE",
"352.365 298 LINE",
"350.029 260.624 LINE SMOOTH",
"348.701 245.934 OFFCURVE",
"362.369 235 OFFCURVE",
"379 235 CURVE SMOOTH",
"435 235 LINE SMOOTH",
"452.678 235 OFFCURVE",
"465 247.322 OFFCURVE",
"465 260 CURVE SMOOTH",
"465 437 LINE SMOOTH",
"465 449.678 OFFCURVE",
"452.678 462 OFFCURVE",
"435 462 CURVE SMOOTH",
"379 462 LINE SMOOTH",
"362.369 462 OFFCURVE",
"348.701 451.066 OFFCURVE",
"350.062 436.095 CURVE SMOOTH",
"353.2 396 LINE",
"235 396 LINE"
);
}
);
width = 555;
}
);
unicode = 0045;
},
{
glyphname = Eacute;
lastChange = "2013-03-20 20:06:28 +0000";
layers = (
{
layerId = "B4B43AB8-DB99-4954-A9F8-B6F89E957C89";
name = Regular;
paths = (
{
closed = 1;
nodes = (
"235 589 LINE",
"413.412 589 LINE",
"410.025 530.579 LINE SMOOTH",
"408.701 515.934 OFFCURVE",
"422.369 505 OFFCURVE",
"439 505 CURVE SMOOTH",
"495 505 LINE SMOOTH",
"511.631 505 OFFCURVE",
"525 515.695 OFFCURVE",
"525 530 CURVE SMOOTH",
"525 664 LINE SMOOTH",
"525 676.138 OFFCURVE",
"514.711 689 OFFCURVE",
"495 689 CURVE SMOOTH",
"55 689 LINE SMOOTH",
"38.3687 689 OFFCURVE",
"25 678.305 OFFCURVE",
"25 664 CURVE SMOOTH",
"25 613 LINE SMOOTH",
"25 600.322 OFFCURVE",
"37.3223 588 OFFCURVE",
"55 588 CURVE SMOOTH",
"93 588 LINE",
"93 89 LINE",
"55 89 LINE SMOOTH",
"38.3687 89 OFFCURVE",
"25 78.305 OFFCURVE",
"25 64 CURVE SMOOTH",
"25 15 LINE SMOOTH",
"25 2.86176 OFFCURVE",
"35.2894 -10 OFFCURVE",
"55 -10 CURVE SMOOTH",
"515 -10 LINE SMOOTH",
"533.678 -10 OFFCURVE",
"545 1.32233 OFFCURVE",
"545 15 CURVE SMOOTH",
"545 149 LINE SMOOTH",
"545 161.678 OFFCURVE",
"532.678 174 OFFCURVE",
"515 174 CURVE SMOOTH",
"459 174 LINE SMOOTH",
"442.369 174 OFFCURVE",
"428.701 163.066 OFFCURVE",
"430.062 148.095 CURVE SMOOTH",
"433.429 88 LINE",
"235 88 LINE",
"235 298 LINE",
"352.365 298 LINE",
"350.029 260.624 LINE SMOOTH",
"348.701 245.934 OFFCURVE",
"362.369 235 OFFCURVE",
"379 235 CURVE SMOOTH",
"435 235 LINE SMOOTH",
"452.678 235 OFFCURVE",
"465 247.322 OFFCURVE",
"465 260 CURVE SMOOTH",
"465 437 LINE SMOOTH",
"465 449.678 OFFCURVE",
"452.678 462 OFFCURVE",
"435 462 CURVE SMOOTH",
"379 462 LINE SMOOTH",
"362.369 462 OFFCURVE",
"348.701 451.066 OFFCURVE",
"350.062 436.095 CURVE SMOOTH",
"353.2 396 LINE",
"235 396 LINE"
);
},
{
closed = 1;
nodes = (
"257.368 750.173 LINE",
"251.209 735.055 OFFCURVE",
"261 722 OFFCURVE",
"280 722 CURVE SMOOTH",
"328 722 LINE SMOOTH",
"342.597 722 OFFCURVE",
"358.14 729.771 OFFCURVE",
"363.72 738.7 CURVE",
"433.368 840.342 LINE",
"442.494 852.658 OFFCURVE",
"438.658 868 OFFCURVE",
"415 868 CURVE SMOOTH",
"337 868 LINE SMOOTH",
"321.864 868 OFFCURVE",
"306.728 859.351 OFFCURVE",
"302.073 847.714 CURVE"
);
}
);
width = 555;
}
);
unicode = 00C9;
},
{
glyphname = Ebreve;
lastChange = "2013-03-20 20:06:28 +0000";
layers = (
{
layerId = "B4B43AB8-DB99-4954-A9F8-B6F89E957C89";
name = Regular;
paths = (
{
closed = 1;
nodes = (
"235 589 LINE",
"413.412 589 LINE",
"410.025 530.579 LINE SMOOTH",
"408.701 515.934 OFFCURVE",
"422.369 505 OFFCURVE",
"439 505 CURVE SMOOTH",
"495 505 LINE SMOOTH",
"511.631 505 OFFCURVE",
"525 515.695 OFFCURVE",
"525 530 CURVE SMOOTH",
"525 664 LINE SMOOTH",
"525 676.138 OFFCURVE",
"514.711 689 OFFCURVE",
"495 689 CURVE SMOOTH",
"55 689 LINE SMOOTH",
"38.3687 689 OFFCURVE",
"25 678.305 OFFCURVE",
"25 664 CURVE SMOOTH",
"25 613 LINE SMOOTH",
"25 600.322 OFFCURVE",
"37.3223 588 OFFCURVE",
"55 588 CURVE SMOOTH",
"93 588 LINE",
"93 89 LINE",
"55 89 LINE SMOOTH",
"38.3687 89 OFFCURVE",
"25 78.305 OFFCURVE",
"25 64 CURVE SMOOTH",
"25 15 LINE SMOOTH",
"25 2.86176 OFFCURVE",
"35.2894 -10 OFFCURVE",
"55 -10 CURVE SMOOTH",
"515 -10 LINE SMOOTH",
"533.678 -10 OFFCURVE",
"545 1.32233 OFFCURVE",
"545 15 CURVE SMOOTH",
"545 149 LINE SMOOTH",
"545 161.678 OFFCURVE",
"532.678 174 OFFCURVE",
"515 174 CURVE SMOOTH",
"459 174 LINE SMOOTH",
"442.369 174 OFFCURVE",
"428.701 163.066 OFFCURVE",
"430.062 148.095 CURVE SMOOTH",
"433.429 88 LINE",
"235 88 LINE",
"235 298 LINE",
"352.365 298 LINE",
"350.029 260.624 LINE SMOOTH",
"348.701 245.934 OFFCURVE",
"362.369 235 OFFCURVE",
"379 235 CURVE SMOOTH",
"435 235 LINE SMOOTH",
"452.678 235 OFFCURVE",
"465 247.322 OFFCURVE",
"465 260 CURVE SMOOTH",
"465 437 LINE SMOOTH",
"465 449.678 OFFCURVE",
"452.678 462 OFFCURVE",
"435 462 CURVE SMOOTH",
"379 462 LINE SMOOTH",
"362.369 462 OFFCURVE",
"348.701 451.066 OFFCURVE",
"350.062 436.095 CURVE SMOOTH",
"353.2 396 LINE",
"235 396 LINE"
);
},
{
closed = 1;
nodes = (
"237.127 821 OFFCURVE",
"220.86 830.196 OFFCURVE",
"214.552 855.425 CURVE SMOOTH",
"210.118 873.161 OFFCURVE",
"198.333 882 OFFCURVE",
"176 882 CURVE SMOOTH",
"144 882 LINE SMOOTH",
"121.322 882 OFFCURVE",
"110 870.678 OFFCURVE",
"110 853 CURVE SMOOTH",
"112.091 775.57 OFFCURVE",
"176.452 725 OFFCURVE",
"288 725 CURVE SMOOTH",
"393.051 725 OFFCURVE",
"462.704 774.1 OFFCURVE",
"468.952 852.203 CURVE SMOOTH",
"470.178 870.5 OFFCURVE",
"458.678 882 OFFCURVE",
"436 882 CURVE SMOOTH",
"405 882 LINE SMOOTH",
"383.658 882 OFFCURVE",
"370.311 873.992 OFFCURVE",
"364.683 855.983 CURVE SMOOTH",
"355.781 827.498 OFFCURVE",
"337.586 821 OFFCURVE",
"291 821 CURVE SMOOTH"
);
}
);
width = 555;
}
);
unicode = 0114;
},
{
glyphname = Ecaron;
lastChange = "2013-03-20 20:06:28 +0000";
layers = (
{
layerId = "B4B43AB8-DB99-4954-A9F8-B6F89E957C89";
name = Regular;
paths = (
{
closed = 1;
nodes = (
"235 589 LINE",
"413.412 589 LINE",
"410.025 530.579 LINE SMOOTH",
"408.701 515.934 OFFCURVE",
"422.369 505 OFFCURVE",
"439 505 CURVE SMOOTH",
"495 505 LINE SMOOTH",
"511.631 505 OFFCURVE",
"525 515.695 OFFCURVE",
"525 530 CURVE SMOOTH",
"525 664 LINE SMOOTH",
"525 676.138 OFFCURVE",
"514.711 689 OFFCURVE",
"495 689 CURVE SMOOTH",
"55 689 LINE SMOOTH",
"38.3687 689 OFFCURVE",
"25 678.305 OFFCURVE",
"25 664 CURVE SMOOTH",
"25 613 LINE SMOOTH",
"25 600.322 OFFCURVE",
"37.3223 588 OFFCURVE",
"55 588 CURVE SMOOTH",
"93 588 LINE",
"93 89 LINE",
"55 89 LINE SMOOTH",
"38.3687 89 OFFCURVE",
"25 78.305 OFFCURVE",
"25 64 CURVE SMOOTH",
"25 15 LINE SMOOTH",
"25 2.86176 OFFCURVE",
"35.2894 -10 OFFCURVE",
"55 -10 CURVE SMOOTH",
"515 -10 LINE SMOOTH",
"533.678 -10 OFFCURVE",
"545 1.32233 OFFCURVE",
"545 15 CURVE SMOOTH",
"545 149 LINE SMOOTH",
"545 161.678 OFFCURVE",
"532.678 174 OFFCURVE",
"515 174 CURVE SMOOTH",
"459 174 LINE SMOOTH",
"442.369 174 OFFCURVE",
"428.701 163.066 OFFCURVE",
"430.062 148.095 CURVE SMOOTH",
"433.429 88 LINE",
"235 88 LINE",
"235 298 LINE",
"352.365 298 LINE",
"350.029 260.624 LINE SMOOTH",
"348.701 245.934 OFFCURVE",
"362.369 235 OFFCURVE",
"379 235 CURVE SMOOTH",
"435 235 LINE SMOOTH",
"452.678 235 OFFCURVE",
"465 247.322 OFFCURVE",
"465 260 CURVE SMOOTH",
"465 437 LINE SMOOTH",
"465 449.678 OFFCURVE",
"452.678 462 OFFCURVE",
"435 462 CURVE SMOOTH",
"379 462 LINE SMOOTH",
"362.369 462 OFFCURVE",
"348.701 451.066 OFFCURVE",
"350.062 436.095 CURVE SMOOTH",
"353.2 396 LINE",
"235 396 LINE"
);
},
{
closed = 1;
nodes = (
"376 873 LINE SMOOTH",
"361.403 873 OFFCURVE",
"346.358 865.477 OFFCURVE",
"340 857 CURVE SMOOTH",
"294.885 800.687 LINE",
"248.617 857.326 LINE SMOOTH",
"241.007 867.211 OFFCURVE",
"225.569 873 OFFCURVE",
"212 873 CURVE SMOOTH",
"155 873 LINE SMOOTH",
"132.348 873 OFFCURVE",
"125.809 859.922 OFFCURVE",
"137 845 CURVE SMOOTH",
"219.094 737.917 LINE SMOOTH",
"225.358 729.523 OFFCURVE",
"240.403 722 OFFCURVE",
"255 722 CURVE SMOOTH",
"331 722 LINE SMOOTH",
"345.597 722 OFFCURVE",
"360.642 729.523 OFFCURVE",
"367 738 CURVE SMOOTH",
"448.906 844.917 LINE SMOOTH",
"460.191 859.922 OFFCURVE",
"453.652 873 OFFCURVE",
"431 873 CURVE SMOOTH"
);
}
);
width = 555;
}
);
unicode = 011A;
},
{
glyphname = Ecircumflex;
lastChange = "2013-03-20 20:06:28 +0000";
layers = (
{
layerId = "B4B43AB8-DB99-4954-A9F8-B6F89E957C89";
name = Regular;
paths = (
{
closed = 1;
nodes = (
"235 589 LINE",
"413.412 589 LINE",
"410.025 530.579 LINE SMOOTH",
"408.701 515.934 OFFCURVE",
"422.369 505 OFFCURVE",
"439 505 CURVE SMOOTH",
"495 505 LINE SMOOTH",
"511.631 505 OFFCURVE",
"525 515.695 OFFCURVE",
"525 530 CURVE SMOOTH",
"525 664 LINE SMOOTH",
"525 676.138 OFFCURVE",
"514.711 689 OFFCURVE",
"495 689 CURVE SMOOTH",
"55 689 LINE SMOOTH",
"38.3687 689 OFFCURVE",
"25 678.305 OFFCURVE",
"25 664 CURVE SMOOTH",
"25 613 LINE SMOOTH",
"25 600.322 OFFCURVE",
"37.3223 588 OFFCURVE",
"55 588 CURVE SMOOTH",
"93 588 LINE",
"93 89 LINE",
"55 89 LINE SMOOTH",
"38.3687 89 OFFCURVE",
"25 78.305 OFFCURVE",
"25 64 CURVE SMOOTH",
"25 15 LINE SMOOTH",
"25 2.86176 OFFCURVE",
"35.2894 -10 OFFCURVE",
"55 -10 CURVE SMOOTH",
"515 -10 LINE SMOOTH",
"533.678 -10 OFFCURVE",
"545 1.32233 OFFCURVE",
"545 15 CURVE SMOOTH",
"545 149 LINE SMOOTH",
"545 161.678 OFFCURVE",
"532.678 174 OFFCURVE",
"515 174 CURVE SMOOTH",
"459 174 LINE SMOOTH",
"442.369 174 OFFCURVE",
"428.701 163.066 OFFCURVE",
"430.062 148.095 CURVE SMOOTH",
"433.429 88 LINE",
"235 88 LINE",
"235 298 LINE",
"352.365 298 LINE",
"350.029 260.624 LINE SMOOTH",
"348.701 245.934 OFFCURVE",
"362.369 235 OFFCURVE",
"379 235 CURVE SMOOTH",
"435 235 LINE SMOOTH",
"452.678 235 OFFCURVE",
"465 247.322 OFFCURVE",
"465 260 CURVE SMOOTH",
"465 437 LINE SMOOTH",
"465 449.678 OFFCURVE",
"452.678 462 OFFCURVE",
"435 462 CURVE SMOOTH",
"379 462 LINE SMOOTH",
"362.369 462 OFFCURVE",
"348.701 451.066 OFFCURVE",
"350.062 436.095 CURVE SMOOTH",
"353.2 396 LINE",
"235 396 LINE"
);
},
{
closed = 1;
nodes = (
"205 722 LINE SMOOTH",
"219.597 722 OFFCURVE",
"234.642 729.523 OFFCURVE",
"241 738 CURVE SMOOTH",
"286.115 794.313 LINE",
"332.383 737.674 LINE SMOOTH",
"339.993 727.789 OFFCURVE",
"355.431 722 OFFCURVE",
"369 722 CURVE SMOOTH",
"426 722 LINE SMOOTH",
"448.652 722 OFFCURVE",
"455.191 735.078 OFFCURVE",
"444 750 CURVE SMOOTH",
"361.906 857.083 LINE SMOOTH",
"355.642 865.477 OFFCURVE",
"340.597 873 OFFCURVE",
"326 873 CURVE SMOOTH",
"250 873 LINE SMOOTH",
"235.403 873 OFFCURVE",
"220.358 865.477 OFFCURVE",
"214 857 CURVE SMOOTH",
"132.094 750.083 LINE SMOOTH",
"120.809 735.078 OFFCURVE",
"127.348 722 OFFCURVE",
"150 722 CURVE SMOOTH"
);
}
);
width = 555;
}
);
unicode = 00CA;
},
{
glyphname = Edieresis;
lastChange = "2013-03-20 20:06:28 +0000";
layers = (
{
layerId = "B4B43AB8-DB99-4954-A9F8-B6F89E957C89";
name = Regular;
paths = (
{
closed = 1;
nodes = (
"235 589 LINE",
"413.412 589 LINE",
"410.025 530.579 LINE SMOOTH",
"408.701 515.934 OFFCURVE",
"422.369 505 OFFCURVE",
"439 505 CURVE SMOOTH",
"495 505 LINE SMOOTH",
"511.631 505 OFFCURVE",
"525 515.695 OFFCURVE",
"525 530 CURVE SMOOTH",
"525 664 LINE SMOOTH",
"525 676.138 OFFCURVE",
"514.711 689 OFFCURVE",
"495 689 CURVE SMOOTH",
"55 689 LINE SMOOTH",
"38.3687 689 OFFCURVE",
"25 678.305 OFFCURVE",
"25 664 CURVE SMOOTH",
"25 613 LINE SMOOTH",
"25 600.322 OFFCURVE",
"37.3223 588 OFFCURVE",
"55 588 CURVE SMOOTH",
"93 588 LINE",
"93 89 LINE",
"55 89 LINE SMOOTH",
"38.3687 89 OFFCURVE",
"25 78.305 OFFCURVE",
"25 64 CURVE SMOOTH",
"25 15 LINE SMOOTH",
"25 2.86176 OFFCURVE",
"35.2894 -10 OFFCURVE",
"55 -10 CURVE SMOOTH",
"515 -10 LINE SMOOTH",
"533.678 -10 OFFCURVE",
"545 1.32233 OFFCURVE",
"545 15 CURVE SMOOTH",
"545 149 LINE SMOOTH",
"545 161.678 OFFCURVE",
"532.678 174 OFFCURVE",
"515 174 CURVE SMOOTH",
"459 174 LINE SMOOTH",
"442.369 174 OFFCURVE",
"428.701 163.066 OFFCURVE",
"430.062 148.095 CURVE SMOOTH",
"433.429 88 LINE",
"235 88 LINE",
"235 298 LINE",
"352.365 298 LINE",
"350.029 260.624 LINE SMOOTH",
"348.701 245.934 OFFCURVE",
"362.369 235 OFFCURVE",
"379 235 CURVE SMOOTH",
"435 235 LINE SMOOTH",
"452.678 235 OFFCURVE",
"465 247.322 OFFCURVE",
"465 260 CURVE SMOOTH",
"465 437 LINE SMOOTH",
"465 449.678 OFFCURVE",
"452.678 462 OFFCURVE",
"435 462 CURVE SMOOTH",
"379 462 LINE SMOOTH",
"362.369 462 OFFCURVE",
"348.701 451.066 OFFCURVE",
"350.062 436.095 CURVE SMOOTH",
"353.2 396 LINE",
"235 396 LINE"
);
},
{
closed = 1;
nodes = (
"432.548 728 OFFCURVE",
"469 756.641 OFFCURVE",
"469 800 CURVE SMOOTH",
"469 841.924 OFFCURVE",
"438.25 870 OFFCURVE",
"392 870 CURVE SMOOTH",
"349.107 870 OFFCURVE",
"315 841.14 OFFCURVE",
"315 800 CURVE SMOOTH",
"315 758.097 OFFCURVE",
"347.714 728 OFFCURVE",
"392 728 CURVE SMOOTH"
);
},
{
closed = 1;
nodes = (
"229.548 728 OFFCURVE",
"266 756.641 OFFCURVE",
"266 800 CURVE SMOOTH",
"266 841.924 OFFCURVE",
"235.25 870 OFFCURVE",
"189 870 CURVE SMOOTH",
"146.107 870 OFFCURVE",
"112 841.14 OFFCURVE",
"112 800 CURVE SMOOTH",
"112 758.097 OFFCURVE",
"144.714 728 OFFCURVE",
"189 728 CURVE SMOOTH"
);
}
);
width = 555;
}
);
unicode = 00CB;
},
{
glyphname = Egrave;
lastChange = "2013-03-20 20:06:28 +0000";
layers = (
{
layerId = "B4B43AB8-DB99-4954-A9F8-B6F89E957C89";
name = Regular;
paths = (
{
closed = 1;
nodes = (
"235 589 LINE",
"413.412 589 LINE",
"410.025 530.579 LINE SMOOTH",
"408.701 515.934 OFFCURVE",
"422.369 505 OFFCURVE",
"439 505 CURVE SMOOTH",
"495 505 LINE SMOOTH",
"511.631 505 OFFCURVE",
"525 515.695 OFFCURVE",
"525 530 CURVE SMOOTH",
"525 664 LINE SMOOTH",
"525 676.138 OFFCURVE",
"514.711 689 OFFCURVE",
"495 689 CURVE SMOOTH",
"55 689 LINE SMOOTH",
"38.3687 689 OFFCURVE",
"25 678.305 OFFCURVE",
"25 664 CURVE SMOOTH",
"25 613 LINE SMOOTH",
"25 600.322 OFFCURVE",
"37.3223 588 OFFCURVE",
"55 588 CURVE SMOOTH",
"93 588 LINE",
"93 89 LINE",
"55 89 LINE SMOOTH",
"38.3687 89 OFFCURVE",
"25 78.305 OFFCURVE",
"25 64 CURVE SMOOTH",
"25 15 LINE SMOOTH",
"25 2.86176 OFFCURVE",
"35.2894 -10 OFFCURVE",
"55 -10 CURVE SMOOTH",
"515 -10 LINE SMOOTH",
"533.678 -10 OFFCURVE",
"545 1.32233 OFFCURVE",
"545 15 CURVE SMOOTH",
"545 149 LINE SMOOTH",
"545 161.678 OFFCURVE",
"532.678 174 OFFCURVE",
"515 174 CURVE SMOOTH",
"459 174 LINE SMOOTH",
"442.369 174 OFFCURVE",
"428.701 163.066 OFFCURVE",
"430.062 148.095 CURVE SMOOTH",
"433.429 88 LINE",
"235 88 LINE",
"235 298 LINE",
"352.365 298 LINE",
"350.029 260.624 LINE SMOOTH",
"348.701 245.934 OFFCURVE",
"362.369 235 OFFCURVE",
"379 235 CURVE SMOOTH",
"435 235 LINE SMOOTH",
"452.678 235 OFFCURVE",
"465 247.322 OFFCURVE",
"465 260 CURVE SMOOTH",
"465 437 LINE SMOOTH",
"465 449.678 OFFCURVE",
"452.678 462 OFFCURVE",
"435 462 CURVE SMOOTH",
"379 462 LINE SMOOTH",
"362.369 462 OFFCURVE",
"348.701 451.066 OFFCURVE",
"350.062 436.095 CURVE SMOOTH",
"353.2 396 LINE",
"235 396 LINE"
);
},
{
closed = 1;
nodes = (
"306.701 845.071 LINE",
"299.244 859.817 OFFCURVE",
"288.333 868 OFFCURVE",
"266 868 CURVE SMOOTH",
"196 868 LINE SMOOTH",
"169.348 868 OFFCURVE",
"162.863 855 OFFCURVE",
"175.869 837.118 CURVE SMOOTH",
"240.579 741.393 LINE",
"250.358 728.523 OFFCURVE",
"263.403 722 OFFCURVE",
"283 722 CURVE SMOOTH",
"323 722 LINE SMOOTH",
"346 722 OFFCURVE",
"355.914 735.219 OFFCURVE",
"347.619 753.191 CURVE SMOOTH"
);
}
);
width = 555;
}
);
unicode = 00C8;
},
{
glyphname = Emacron;
lastChange = "2013-03-20 20:06:28 +0000";
layers = (
{
layerId = "B4B43AB8-DB99-4954-A9F8-B6F89E957C89";
name = Regular;
paths = (
{
closed = 1;
nodes = (
"235 589 LINE",
"413.412 589 LINE",
"410.025 530.579 LINE SMOOTH",
"408.701 515.934 OFFCURVE",
"422.369 505 OFFCURVE",
"439 505 CURVE SMOOTH",
"495 505 LINE SMOOTH",
"511.631 505 OFFCURVE",
"525 515.695 OFFCURVE",
"525 530 CURVE SMOOTH",
"525 664 LINE SMOOTH",
"525 676.138 OFFCURVE",
"514.711 689 OFFCURVE",
"495 689 CURVE SMOOTH",
"55 689 LINE SMOOTH",
"38.3687 689 OFFCURVE",
"25 678.305 OFFCURVE",
"25 664 CURVE SMOOTH",
"25 613 LINE SMOOTH",
"25 600.322 OFFCURVE",
"37.3223 588 OFFCURVE",
"55 588 CURVE SMOOTH",
"93 588 LINE",
"93 89 LINE",
"55 89 LINE SMOOTH",
"38.3687 89 OFFCURVE",
"25 78.305 OFFCURVE",
"25 64 CURVE SMOOTH",
"25 15 LINE SMOOTH",
"25 2.86176 OFFCURVE",
"35.2894 -10 OFFCURVE",
"55 -10 CURVE SMOOTH",
"515 -10 LINE SMOOTH",
"533.678 -10 OFFCURVE",
"545 1.32233 OFFCURVE",
"545 15 CURVE SMOOTH",
"545 149 LINE SMOOTH",
"545 161.678 OFFCURVE",
"532.678 174 OFFCURVE",
"515 174 CURVE SMOOTH",
"459 174 LINE SMOOTH",
"442.369 174 OFFCURVE",
"428.701 163.066 OFFCURVE",
"430.062 148.095 CURVE SMOOTH",
"433.429 88 LINE",
"235 88 LINE",
"235 298 LINE",
"352.365 298 LINE",
"350.029 260.624 LINE SMOOTH",
"348.701 245.934 OFFCURVE",
"362.369 235 OFFCURVE",
"379 235 CURVE SMOOTH",
"435 235 LINE SMOOTH",
"452.678 235 OFFCURVE",
"465 247.322 OFFCURVE",
"465 260 CURVE SMOOTH",
"465 437 LINE SMOOTH",
"465 449.678 OFFCURVE",
"452.678 462 OFFCURVE",
"435 462 CURVE SMOOTH",
"379 462 LINE SMOOTH",
"362.369 462 OFFCURVE",
"348.701 451.066 OFFCURVE",
"350.062 436.095 CURVE SMOOTH",
"353.2 396 LINE",
"235 396 LINE"
);
},
{
closed = 1;
nodes = (
"424 750 LINE SMOOTH",
"446.678 750 OFFCURVE",
"458 761.322 OFFCURVE",
"458 779 CURVE SMOOTH",
"458 822 LINE SMOOTH",
"458 839.678 OFFCURVE",
"446.678 851 OFFCURVE",
"424 851 CURVE SMOOTH",
"164 851 LINE SMOOTH",
"141.322 851 OFFCURVE",
"130 839.678 OFFCURVE",
"130 822 CURVE SMOOTH",
"130 779 LINE SMOOTH",
"130 761.322 OFFCURVE",
"141.322 750 OFFCURVE",
"164 750 CURVE SMOOTH"
);
}
);
width = 555;
}
);
unicode = 0112;
},
{
glyphname = Eogonek;
lastChange = "2013-03-20 20:06:28 +0000";
layers = (
{
layerId = "B4B43AB8-DB99-4954-A9F8-B6F89E957C89";
name = Regular;
paths = (
{
closed = 1;
nodes = (
"301 -198 OFFCURVE",
"336.197 -243 OFFCURVE",
"400 -243 CURVE SMOOTH",
"439.35 -243 OFFCURVE",
"476.315 -226 OFFCURVE",
"497.45 -211 CURVE",
"517 -199 OFFCURVE",
"517 -189 OFFCURVE",
"509.168 -174 CURVE",
"499.416 -155 LINE SMOOTH",
"493.862 -143 OFFCURVE",
"472.924 -137 OFFCURVE",
"458.675 -145 CURVE SMOOTH",
"444.581 -152 OFFCURVE",
"437.275 -154 OFFCURVE",
"428 -154 CURVE SMOOTH",
"411.403 -154 OFFCURVE",
"410 -146 OFFCURVE",
"410 -128 CURVE SMOOTH",
"410 -98 OFFCURVE",
"428.886 -60 OFFCURVE",
"475.051 -10 CURVE",
"515 -10 LINE SMOOTH",
"533.678 -10 OFFCURVE",
"545 1.32233 OFFCURVE",
"545 15 CURVE SMOOTH",
"545 149 LINE SMOOTH",
"545 161.678 OFFCURVE",
"532.678 174 OFFCURVE",
"515 174 CURVE SMOOTH",
"459 174 LINE SMOOTH",
"442.369 174 OFFCURVE",
"428.701 163.066 OFFCURVE",
"430.062 148.095 CURVE SMOOTH",
"433.429 88 LINE",
"235 88 LINE",
"235 298 LINE",
"352.365 298 LINE",
"350.029 260.624 LINE SMOOTH",
"348.701 245.934 OFFCURVE",
"362.369 235 OFFCURVE",
"379 235 CURVE SMOOTH",
"435 235 LINE SMOOTH",
"452.678 235 OFFCURVE",
"465 247.322 OFFCURVE",
"465 260 CURVE SMOOTH",
"465 437 LINE SMOOTH",
"465 449.678 OFFCURVE",
"452.678 462 OFFCURVE",
"435 462 CURVE SMOOTH",
"379 462 LINE SMOOTH",
"362.369 462 OFFCURVE",
"348.701 451.066 OFFCURVE",
"350.062 436.095 CURVE SMOOTH",
"353.2 396 LINE",
"235 396 LINE",
"235 589 LINE",
"413.412 589 LINE",
"410.025 530.579 LINE SMOOTH",
"408.701 515.934 OFFCURVE",
"422.369 505 OFFCURVE",
"439 505 CURVE SMOOTH",
"495 505 LINE SMOOTH",
"511.631 505 OFFCURVE",
"525 515.695 OFFCURVE",
"525 530 CURVE SMOOTH",
"525 664 LINE SMOOTH",
"525 676.138 OFFCURVE",
"514.711 689 OFFCURVE",
"495 689 CURVE SMOOTH",
"55 689 LINE SMOOTH",
"38.3687 689 OFFCURVE",
"25 678.305 OFFCURVE",
"25 664 CURVE SMOOTH",
"25 613 LINE SMOOTH",
"25 600.322 OFFCURVE",
"37.3223 588 OFFCURVE",
"55 588 CURVE SMOOTH",
"93 588 LINE",
"93 89 LINE",
"55 89 LINE SMOOTH",
"38.3687 89 OFFCURVE",
"25 78.305 OFFCURVE",
"25 64 CURVE SMOOTH",
"25 15 LINE SMOOTH",
"25 2.86176 OFFCURVE",
"35.2894 -10 OFFCURVE",
"55 -10 CURVE SMOOTH",
"374.713 -10 LINE",
"336.538 -48 OFFCURVE",
"301 -94 OFFCURVE",
"301 -147 CURVE SMOOTH"
);
}
);
width = 555;
}
);
unicode = 0118;
},
{
glyphname = F;
lastChange = "2013-03-20 20:06:28 +0000";
layers = (
{
layerId = "B4B43AB8-DB99-4954-A9F8-B6F89E957C89";
name = Regular;
paths = (
{
closed = 1;
nodes = (
"235 589 LINE",
"423.412 589 LINE",
"420.025 530.579 LINE SMOOTH",
"418.701 515.934 OFFCURVE",
"432.369 505 OFFCURVE",
"449 505 CURVE SMOOTH",
"505 505 LINE SMOOTH",
"521.631 505 OFFCURVE",
"535 515.695 OFFCURVE",
"535 530 CURVE SMOOTH",
"535 664 LINE SMOOTH",
"535 676.678 OFFCURVE",
"522.678 689 OFFCURVE",
"505 689 CURVE SMOOTH",
"55 689 LINE SMOOTH",
"38.3687 689 OFFCURVE",
"25 678.305 OFFCURVE",
"25 664 CURVE SMOOTH",
"25 613 LINE SMOOTH",
"25 600.322 OFFCURVE",
"37.3223 588 OFFCURVE",
"55 588 CURVE SMOOTH",
"93 588 LINE",
"93 89 LINE",
"55 89 LINE SMOOTH",
"38.3687 89 OFFCURVE",
"25 78.305 OFFCURVE",
"25 64 CURVE SMOOTH",
"25 15 LINE SMOOTH",
"25 2.32233 OFFCURVE",
"37.3223 -10 OFFCURVE",
"55 -10 CURVE SMOOTH",
"323 -10 LINE SMOOTH",
"339.631 -10 OFFCURVE",
"353 0.694971 OFFCURVE",
"353 15 CURVE SMOOTH",
"353 64 LINE SMOOTH",
"353 76.6777 OFFCURVE",
"340.678 89 OFFCURVE",
"323 89 CURVE SMOOTH",
"235 89 LINE",
"235 303 LINE",
"362.365 303 LINE",
"360.029 265.624 LINE SMOOTH",
"358.701 250.934 OFFCURVE",
"372.369 240 OFFCURVE",
"389 240 CURVE SMOOTH",
"445 240 LINE SMOOTH",
"462.678 240 OFFCURVE",
"475 252.322 OFFCURVE",
"475 265 CURVE SMOOTH",
"475 442 LINE SMOOTH",
"475 454.678 OFFCURVE",
"462.678 467 OFFCURVE",
"445 467 CURVE SMOOTH",
"389 467 LINE SMOOTH",
"372.369 467 OFFCURVE",
"358.701 456.066 OFFCURVE",
"360.062 441.095 CURVE SMOOTH",
"363.2 401 LINE",
"235 401 LINE"
);
}
);
width = 540;
}
);
unicode = 0046;
},
{
glyphname = G;
lastChange = "2013-03-20 20:06:29 +0000";
layers = (
{
anchors = (
{
name = bottom;
position = "{348, 0}";
},
{
name = top;
position = "{348, 679}";
}
);
layerId = "B4B43AB8-DB99-4954-A9F8-B6F89E957C89";
name = Regular;
paths = (
{
closed = 1;
nodes = (
"622 224 LINE",
"660 224 LINE SMOOTH",
"676.631 224 OFFCURVE",
"690 234.695 OFFCURVE",
"690 249 CURVE SMOOTH",
"690 299 LINE SMOOTH",
"690 311.678 OFFCURVE",
"677.678 324 OFFCURVE",
"660 324 CURVE SMOOTH",
"440 324 LINE SMOOTH",
"421.322 324 OFFCURVE",
"410 312.678 OFFCURVE",
"410 299 CURVE SMOOTH",
"410 249 LINE SMOOTH",
"410 236.322 OFFCURVE",
"422.322 224 OFFCURVE",
"440 224 CURVE SMOOTH",
"489 224 LINE",
"489 115.975 LINE",
"455.01 94.5726 OFFCURVE",
"423.139 87 OFFCURVE",
"372 87 CURVE SMOOTH",
"228.464 87 OFFCURVE",
"178 211.05 OFFCURVE",
"178 357 CURVE SMOOTH",
"178 485.974 OFFCURVE",
"222.549 598 OFFCURVE",
"355 598 CURVE SMOOTH",
"411.287 598 OFFCURVE",
"453.139 577.342 OFFCURVE",
"479.831 559.348 CURVE",
"477.015 496.447 LINE",
"475.701 481.934 OFFCURVE",
"489.369 471 OFFCURVE",
"506 471 CURVE SMOOTH",
"563 471 LINE SMOOTH",
"580.678 471 OFFCURVE",
"593 483.322 OFFCURVE",
"593 496 CURVE SMOOTH",
"593 621 LINE SMOOTH",
"593 632.901 OFFCURVE",
"584.975 644.136 OFFCURVE",
"571.285 651.742 CURVE",
"516.526 685.73 OFFCURVE",
"435.444 706 OFFCURVE",
"356 706 CURVE SMOOTH",
"209.112 706 OFFCURVE",
"28 608.56 OFFCURVE",
"28 341 CURVE SMOOTH",
"28 142.518 OFFCURVE",
"120.805 -22 OFFCURVE",
"368 -22 CURVE SMOOTH",
"445.592 -22 OFFCURVE",
"544.118 4.20357 OFFCURVE",
"600.083 34.1852 CURVE SMOOTH",
"614.97 41.6865 OFFCURVE",
"622 52.2319 OFFCURVE",
"622 64 CURVE SMOOTH"
);
}
);
width = 695;
}
);
unicode = 0047;
},
{
glyphname = Gbreve;
lastChange = "2013-03-20 20:06:28 +0000";
layers = (
{
layerId = "B4B43AB8-DB99-4954-A9F8-B6F89E957C89";
name = Regular;
paths = (
{
closed = 1;
nodes = (
"622 224 LINE",
"660 224 LINE SMOOTH",
"676.631 224 OFFCURVE",
"690 234.695 OFFCURVE",
"690 249 CURVE SMOOTH",
"690 299 LINE SMOOTH",
"690 311.678 OFFCURVE",
"677.678 324 OFFCURVE",
"660 324 CURVE SMOOTH",
"440 324 LINE SMOOTH",
"421.322 324 OFFCURVE",
"410 312.678 OFFCURVE",
"410 299 CURVE SMOOTH",
"410 249 LINE SMOOTH",
"410 236.322 OFFCURVE",
"422.322 224 OFFCURVE",
"440 224 CURVE SMOOTH",
"489 224 LINE",
"489 115.975 LINE",
"455.01 94.5726 OFFCURVE",
"423.139 87 OFFCURVE",
"372 87 CURVE SMOOTH",
"228.464 87 OFFCURVE",
"178 211.05 OFFCURVE",
"178 357 CURVE SMOOTH",
"178 485.974 OFFCURVE",
"222.549 598 OFFCURVE",
"355 598 CURVE SMOOTH",
"411.287 598 OFFCURVE",
"453.139 577.342 OFFCURVE",
"479.831 559.348 CURVE",
"477.015 496.447 LINE",
"475.701 481.934 OFFCURVE",
"489.369 471 OFFCURVE",
"506 471 CURVE SMOOTH",
"563 471 LINE SMOOTH",
"580.678 471 OFFCURVE",
"593 483.322 OFFCURVE",
"593 496 CURVE SMOOTH",
"593 621 LINE SMOOTH",
"593 632.901 OFFCURVE",
"584.975 644.136 OFFCURVE",
"571.285 651.742 CURVE",
"516.526 685.73 OFFCURVE",
"435.444 706 OFFCURVE",
"356 706 CURVE SMOOTH",
"209.112 706 OFFCURVE",
"28 608.56 OFFCURVE",
"28 341 CURVE SMOOTH",
"28 142.518 OFFCURVE",
"120.805 -22 OFFCURVE",
"368 -22 CURVE SMOOTH",
"445.592 -22 OFFCURVE",
"544.118 4.20357 OFFCURVE",
"600.083 34.1852 CURVE SMOOTH",
"614.97 41.6865 OFFCURVE",
"622 52.2319 OFFCURVE",
"622 64 CURVE SMOOTH"
);
},
{
closed = 1;
nodes = (
"316.127 821 OFFCURVE",
"299.86 830.196 OFFCURVE",
"293.552 855.425 CURVE SMOOTH",
"289.118 873.161 OFFCURVE",
"277.333 882 OFFCURVE",
"255 882 CURVE SMOOTH",
"223 882 LINE SMOOTH",
"200.322 882 OFFCURVE",
"189 870.678 OFFCURVE",
"189 853 CURVE SMOOTH",
"191.091 775.57 OFFCURVE",
"255.452 725 OFFCURVE",
"367 725 CURVE SMOOTH",
"472.051 725 OFFCURVE",
"541.704 774.1 OFFCURVE",
"547.952 852.203 CURVE SMOOTH",
"549.178 870.5 OFFCURVE",
"537.678 882 OFFCURVE",
"515 882 CURVE SMOOTH",
"484 882 LINE SMOOTH",
"462.658 882 OFFCURVE",
"449.311 873.992 OFFCURVE",
"443.683 855.983 CURVE SMOOTH",
"434.781 827.498 OFFCURVE",
"416.586 821 OFFCURVE",
"370 821 CURVE SMOOTH"
);
}
);
width = 695;
}
);
unicode = 011E;
},
{
glyphname = Gcircumflex;
lastChange = "2013-03-20 20:06:28 +0000";
layers = (
{
layerId = "B4B43AB8-DB99-4954-A9F8-B6F89E957C89";
name = Regular;
paths = (
{
closed = 1;
nodes = (
"622 224 LINE",
"660 224 LINE SMOOTH",
"676.631 224 OFFCURVE",
"690 234.695 OFFCURVE",
"690 249 CURVE SMOOTH",
"690 299 LINE SMOOTH",
"690 311.678 OFFCURVE",
"677.678 324 OFFCURVE",
"660 324 CURVE SMOOTH",
"440 324 LINE SMOOTH",
"421.322 324 OFFCURVE",
"410 312.678 OFFCURVE",
"410 299 CURVE SMOOTH",
"410 249 LINE SMOOTH",
"410 236.322 OFFCURVE",
"422.322 224 OFFCURVE",
"440 224 CURVE SMOOTH",
"489 224 LINE",
"489 115.975 LINE",
"455.01 94.5726 OFFCURVE",
"423.139 87 OFFCURVE",
"372 87 CURVE SMOOTH",
"228.464 87 OFFCURVE",
"178 211.05 OFFCURVE",
"178 357 CURVE SMOOTH",
"178 485.974 OFFCURVE",
"222.549 598 OFFCURVE",
"355 598 CURVE SMOOTH",
"411.287 598 OFFCURVE",
"453.139 577.342 OFFCURVE",
"479.831 559.348 CURVE",
"477.015 496.447 LINE",
"475.701 481.934 OFFCURVE",
"489.369 471 OFFCURVE",
"506 471 CURVE SMOOTH",
"563 471 LINE SMOOTH",
"580.678 471 OFFCURVE",
"593 483.322 OFFCURVE",
"593 496 CURVE SMOOTH",
"593 621 LINE SMOOTH",
"593 632.901 OFFCURVE",
"584.975 644.136 OFFCURVE",
"571.285 651.742 CURVE",
"516.526 685.73 OFFCURVE",
"435.444 706 OFFCURVE",
"356 706 CURVE SMOOTH",
"209.112 706 OFFCURVE",
"28 608.56 OFFCURVE",
"28 341 CURVE SMOOTH",
"28 142.518 OFFCURVE",
"120.805 -22 OFFCURVE",
"368 -22 CURVE SMOOTH",
"445.592 -22 OFFCURVE",
"544.118 4.20357 OFFCURVE",
"600.083 34.1852 CURVE SMOOTH",
"614.97 41.6865 OFFCURVE",
"622 52.2319 OFFCURVE",
"622 64 CURVE SMOOTH"
);
},
{
closed = 1;
nodes = (
"273 722 LINE SMOOTH",
"287.597 722 OFFCURVE",
"302.642 729.523 OFFCURVE",
"309 738 CURVE SMOOTH",
"354.115 794.313 LINE",
"400.383 737.674 LINE SMOOTH",
"407.993 727.789 OFFCURVE",
"423.431 722 OFFCURVE",
"437 722 CURVE SMOOTH",
"494 722 LINE SMOOTH",
"516.652 722 OFFCURVE",
"523.191 735.078 OFFCURVE",
"512 750 CURVE SMOOTH",
"429.906 857.083 LINE SMOOTH",
"423.642 865.477 OFFCURVE",
"408.597 873 OFFCURVE",
"394 873 CURVE SMOOTH",
"318 873 LINE SMOOTH",
"303.403 873 OFFCURVE",
"288.358 865.477 OFFCURVE",
"282 857 CURVE SMOOTH",
"200.094 750.083 LINE SMOOTH",
"188.809 735.078 OFFCURVE",
"195.348 722 OFFCURVE",
"218 722 CURVE SMOOTH"
);
}
);
width = 695;
}
);
unicode = 011C;
},
{
glyphname = Gcommaaccent;
lastChange = "2013-03-20 20:06:28 +0000";
layers = (
{
layerId = "B4B43AB8-DB99-4954-A9F8-B6F89E957C89";
name = Regular;
paths = (
{
closed = 1;
nodes = (
"622 224 LINE",
"660 224 LINE SMOOTH",
"676.631 224 OFFCURVE",
"690 234.695 OFFCURVE",
"690 249 CURVE SMOOTH",
"690 299 LINE SMOOTH",
"690 311.678 OFFCURVE",
"677.678 324 OFFCURVE",
"660 324 CURVE SMOOTH",
"440 324 LINE SMOOTH",
"421.322 324 OFFCURVE",
"410 312.678 OFFCURVE",
"410 299 CURVE SMOOTH",
"410 249 LINE SMOOTH",
"410 236.322 OFFCURVE",
"422.322 224 OFFCURVE",
"440 224 CURVE SMOOTH",
"489 224 LINE",
"489 115.975 LINE",
"455.01 94.5726 OFFCURVE",
"423.139 87 OFFCURVE",
"372 87 CURVE SMOOTH",
"228.464 87 OFFCURVE",
"178 211.05 OFFCURVE",
"178 357 CURVE SMOOTH",
"178 485.974 OFFCURVE",
"222.549 598 OFFCURVE",
"355 598 CURVE SMOOTH",
"411.287 598 OFFCURVE",
"453.139 577.342 OFFCURVE",
"479.831 559.348 CURVE",
"477.015 496.447 LINE",
"475.701 481.934 OFFCURVE",
"489.369 471 OFFCURVE",
"506 471 CURVE SMOOTH",
"563 471 LINE SMOOTH",
"580.678 471 OFFCURVE",
"593 483.322 OFFCURVE",
"593 496 CURVE SMOOTH",
"593 621 LINE SMOOTH",
"593 632.901 OFFCURVE",
"584.975 644.136 OFFCURVE",
"571.285 651.742 CURVE",
"516.526 685.73 OFFCURVE",
"435.444 706 OFFCURVE",
"356 706 CURVE SMOOTH",
"209.112 706 OFFCURVE",
"28 608.56 OFFCURVE",
"28 341 CURVE SMOOTH",
"28 142.518 OFFCURVE",
"120.805 -22 OFFCURVE",
"368 -22 CURVE SMOOTH",
"445.592 -22 OFFCURVE",
"544.118 4.20357 OFFCURVE",
"600.083 34.1852 CURVE SMOOTH",
"614.97 41.6865 OFFCURVE",
"622 52.2319 OFFCURVE",
"622 64 CURVE SMOOTH"
);
},
{
closed = 1;
nodes = (
"381.547 -217 LINE SMOOTH",
"403.967 -181 OFFCURVE",
"420 -155 OFFCURVE",
"420 -123 CURVE SMOOTH",
"420 -83 OFFCURVE",
"388.266 -60 OFFCURVE",
"345 -60 CURVE SMOOTH",
"298.854 -60 OFFCURVE",
"273 -89 OFFCURVE",
"273 -120 CURVE SMOOTH",
"273 -150 OFFCURVE",
"290.326 -169 OFFCURVE",
"302.37 -184 CURVE",
"281.655 -252 LINE",
"277.808 -263 OFFCURVE",
"280.126 -274 OFFCURVE",
"296.733 -280 CURVE",
"308.231 -285 LINE SMOOTH",
"320.746 -291 OFFCURVE",
"337.388 -284 OFFCURVE",
"343.206 -276 CURVE"
);
}
);
width = 695;
}
);
unicode = 0122;
},
{
glyphname = Gdotaccent;
lastChange = "2013-03-20 20:06:28 +0000";
layers = (
{
layerId = "B4B43AB8-DB99-4954-A9F8-B6F89E957C89";
name = Regular;
paths = (
{
closed = 1;
nodes = (
"622 224 LINE",
"660 224 LINE SMOOTH",
"676.631 224 OFFCURVE",
"690 234.695 OFFCURVE",
"690 249 CURVE SMOOTH",
"690 299 LINE SMOOTH",
"690 311.678 OFFCURVE",
"677.678 324 OFFCURVE",
"660 324 CURVE SMOOTH",
"440 324 LINE SMOOTH",
"421.322 324 OFFCURVE",
"410 312.678 OFFCURVE",
"410 299 CURVE SMOOTH",
"410 249 LINE SMOOTH",
"410 236.322 OFFCURVE",
"422.322 224 OFFCURVE",
"440 224 CURVE SMOOTH",
"489 224 LINE",
"489 115.975 LINE",
"455.01 94.5726 OFFCURVE",
"423.139 87 OFFCURVE",
"372 87 CURVE SMOOTH",
"228.464 87 OFFCURVE",
"178 211.05 OFFCURVE",
"178 357 CURVE SMOOTH",
"178 485.974 OFFCURVE",
"222.549 598 OFFCURVE",
"355 598 CURVE SMOOTH",
"411.287 598 OFFCURVE",
"453.139 577.342 OFFCURVE",
"479.831 559.348 CURVE",
"477.015 496.447 LINE",
"475.701 481.934 OFFCURVE",
"489.369 471 OFFCURVE",
"506 471 CURVE SMOOTH",
"563 471 LINE SMOOTH",
"580.678 471 OFFCURVE",
"593 483.322 OFFCURVE",
"593 496 CURVE SMOOTH",
"593 621 LINE SMOOTH",
"593 632.901 OFFCURVE",
"584.975 644.136 OFFCURVE",
"571.285 651.742 CURVE",
"516.526 685.73 OFFCURVE",
"435.444 706 OFFCURVE",
"356 706 CURVE SMOOTH",
"209.112 706 OFFCURVE",
"28 608.56 OFFCURVE",
"28 341 CURVE SMOOTH",
"28 142.518 OFFCURVE",
"120.805 -22 OFFCURVE",
"368 -22 CURVE SMOOTH",
"445.592 -22 OFFCURVE",
"544.118 4.20357 OFFCURVE",
"600.083 34.1852 CURVE SMOOTH",
"614.97 41.6865 OFFCURVE",
"622 52.2319 OFFCURVE",
"622 64 CURVE SMOOTH"
);
},
{
closed = 1;
nodes = (
"277 758.755 OFFCURVE",
"309.505 720 OFFCURVE",
"363 720 CURVE SMOOTH",
"415.153 720 OFFCURVE",
"450 758.58 OFFCURVE",
"450 801 CURVE SMOOTH",
"450 844.333 OFFCURVE",
"416.322 883 OFFCURVE",
"363 883 CURVE SMOOTH",
"310.678 883 OFFCURVE",
"277 844.333 OFFCURVE",
"277 801 CURVE SMOOTH"
);
}
);
width = 695;
}
);
unicode = 0120;
},
{
glyphname = H;
lastChange = "2013-03-20 20:06:29 +0000";
layers = (
{
anchors = (
{
name = center;
position = "{372, 340}";
},
{
name = top;
position = "{372, 679}";
}
);
layerId = "B4B43AB8-DB99-4954-A9F8-B6F89E957C89";
name = Regular;
paths = (
{
closed = 1;
nodes = (
"235 588 LINE",
"273 588 LINE SMOOTH",
"289.631 588 OFFCURVE",
"303 598.695 OFFCURVE",
"303 613 CURVE SMOOTH",
"303 664 LINE SMOOTH",
"303 676.678 OFFCURVE",
"290.678 689 OFFCURVE",
"273 689 CURVE SMOOTH",
"55 689 LINE SMOOTH",
"38.3687 689 OFFCURVE",
"25 678.305 OFFCURVE",
"25 664 CURVE SMOOTH",
"25 613 LINE SMOOTH",
"25 600.322 OFFCURVE",
"37.3223 588 OFFCURVE",
"55 588 CURVE SMOOTH",
"93 588 LINE",
"93 89 LINE",
"55 89 LINE SMOOTH",
"38.3687 89 OFFCURVE",
"25 78.305 OFFCURVE",
"25 64 CURVE SMOOTH",
"25 15 LINE SMOOTH",
"25 2.32233 OFFCURVE",
"37.3223 -10 OFFCURVE",
"55 -10 CURVE SMOOTH",
"273 -10 LINE SMOOTH",
"289.631 -10 OFFCURVE",
"303 0.694971 OFFCURVE",
"303 15 CURVE SMOOTH",
"303 64 LINE SMOOTH",
"303 76.6777 OFFCURVE",
"290.678 89 OFFCURVE",
"273 89 CURVE SMOOTH",
"235 89 LINE",
"235 296 LINE",
"508 296 LINE",
"508 89 LINE",
"470 89 LINE SMOOTH",
"453.369 89 OFFCURVE",
"440 78.305 OFFCURVE",
"440 64 CURVE SMOOTH",
"440 15 LINE SMOOTH",
"440 2.32233 OFFCURVE",
"452.322 -10 OFFCURVE",
"470 -10 CURVE SMOOTH",
"688 -10 LINE SMOOTH",
"704.631 -10 OFFCURVE",
"718 0.694971 OFFCURVE",
"718 15 CURVE SMOOTH",
"718 64 LINE SMOOTH",
"718 76.6777 OFFCURVE",
"705.678 89 OFFCURVE",
"688 89 CURVE SMOOTH",
"650 89 LINE",
"650 588 LINE",
"688 588 LINE SMOOTH",
"704.631 588 OFFCURVE",
"718 598.695 OFFCURVE",
"718 613 CURVE SMOOTH",
"718 664 LINE SMOOTH",
"718 676.678 OFFCURVE",
"705.678 689 OFFCURVE",
"688 689 CURVE SMOOTH",
"470 689 LINE SMOOTH",
"453.369 689 OFFCURVE",
"440 678.305 OFFCURVE",
"440 664 CURVE SMOOTH",
"440 613 LINE SMOOTH",
"440 600.322 OFFCURVE",
"452.322 588 OFFCURVE",
"470 588 CURVE SMOOTH",
"508 588 LINE",
"508 402 LINE",
"235 402 LINE"
);
}
);
width = 743;
}
);
unicode = 0048;
},
{
glyphname = Hbar;
lastChange = "2013-03-20 20:06:28 +0000";
layers = (
{
layerId = "B4B43AB8-DB99-4954-A9F8-B6F89E957C89";
name = Regular;
paths = (
{
closed = 1;
nodes = (
"235 588 LINE",
"273 588 LINE SMOOTH",
"289.631 588 OFFCURVE",
"303 598.695 OFFCURVE",
"303 613 CURVE SMOOTH",
"303 664 LINE SMOOTH",
"303 676.678 OFFCURVE",
"290.678 689 OFFCURVE",
"273 689 CURVE SMOOTH",
"55 689 LINE SMOOTH",
"38.3687 689 OFFCURVE",
"25 678.305 OFFCURVE",
"25 664 CURVE SMOOTH",
"25 613 LINE SMOOTH",
"25 600.322 OFFCURVE",
"37.3223 588 OFFCURVE",
"55 588 CURVE SMOOTH",
"93 588 LINE",
"93 549 LINE",
"58 549 LINE SMOOTH",
"35.3223 549 OFFCURVE",
"24 537.678 OFFCURVE",
"24 520 CURVE SMOOTH",
"24 505 LINE SMOOTH",
"24 487.322 OFFCURVE",
"35.3223 476 OFFCURVE",
"58 476 CURVE SMOOTH",
"93 476 LINE",
"93 89 LINE",
"55 89 LINE SMOOTH",
"38.3687 89 OFFCURVE",
"25 78.305 OFFCURVE",
"25 64 CURVE SMOOTH",
"25 15 LINE SMOOTH",
"25 2.32233 OFFCURVE",
"37.3223 -10 OFFCURVE",
"55 -10 CURVE SMOOTH",
"273 -10 LINE SMOOTH",
"289.631 -10 OFFCURVE",
"303 0.694971 OFFCURVE",
"303 15 CURVE SMOOTH",
"303 64 LINE SMOOTH",
"303 76.6777 OFFCURVE",
"290.678 89 OFFCURVE",
"273 89 CURVE SMOOTH",
"235 89 LINE",
"235 296 LINE",
"508 296 LINE",
"508 89 LINE",
"470 89 LINE SMOOTH",
"453.369 89 OFFCURVE",
"440 78.305 OFFCURVE",
"440 64 CURVE SMOOTH",
"440 15 LINE SMOOTH",
"440 2.32233 OFFCURVE",
"452.322 -10 OFFCURVE",
"470 -10 CURVE SMOOTH",
"688 -10 LINE SMOOTH",
"704.631 -10 OFFCURVE",
"718 0.694971 OFFCURVE",
"718 15 CURVE SMOOTH",
"718 64 LINE SMOOTH",
"718 76.6777 OFFCURVE",
"705.678 89 OFFCURVE",
"688 89 CURVE SMOOTH",
"650 89 LINE",
"650 476 LINE",
"684 476 LINE SMOOTH",
"706.678 476 OFFCURVE",
"718 487.322 OFFCURVE",
"718 505 CURVE SMOOTH",
"718 520 LINE SMOOTH",
"718 537.678 OFFCURVE",
"706.678 549 OFFCURVE",
"684 549 CURVE SMOOTH",
"650 549 LINE",
"650 588 LINE",
"688 588 LINE SMOOTH",
"704.631 588 OFFCURVE",
"718 598.695 OFFCURVE",
"718 613 CURVE SMOOTH",
"718 664 LINE SMOOTH",
"718 676.678 OFFCURVE",
"705.678 689 OFFCURVE",
"688 689 CURVE SMOOTH",
"470 689 LINE SMOOTH",
"453.369 689 OFFCURVE",
"440 678.305 OFFCURVE",
"440 664 CURVE SMOOTH",
"440 613 LINE SMOOTH",
"440 600.322 OFFCURVE",
"452.322 588 OFFCURVE",
"470 588 CURVE SMOOTH",
"508 588 LINE",
"508 549 LINE",
"235 549 LINE"
);
},
{
closed = 1;
nodes = (
"235 402 LINE",
"235 476 LINE",
"508 476 LINE",
"508 402 LINE"
);
}
);
width = 743;
}
);
unicode = 0126;
},
{
glyphname = Hcircumflex;
lastChange = "2013-03-20 20:06:28 +0000";
layers = (
{
layerId = "B4B43AB8-DB99-4954-A9F8-B6F89E957C89";
name = Regular;
paths = (
{
closed = 1;
nodes = (
"235 588 LINE",
"273 588 LINE SMOOTH",
"289.631 588 OFFCURVE",
"303 598.695 OFFCURVE",
"303 613 CURVE SMOOTH",
"303 664 LINE SMOOTH",
"303 676.678 OFFCURVE",
"290.678 689 OFFCURVE",
"273 689 CURVE SMOOTH",
"55 689 LINE SMOOTH",
"38.3687 689 OFFCURVE",
"25 678.305 OFFCURVE",
"25 664 CURVE SMOOTH",
"25 613 LINE SMOOTH",
"25 600.322 OFFCURVE",
"37.3223 588 OFFCURVE",
"55 588 CURVE SMOOTH",
"93 588 LINE",
"93 89 LINE",
"55 89 LINE SMOOTH",
"38.3687 89 OFFCURVE",
"25 78.305 OFFCURVE",
"25 64 CURVE SMOOTH",
"25 15 LINE SMOOTH",
"25 2.32233 OFFCURVE",
"37.3223 -10 OFFCURVE",
"55 -10 CURVE SMOOTH",
"273 -10 LINE SMOOTH",
"289.631 -10 OFFCURVE",
"303 0.694971 OFFCURVE",
"303 15 CURVE SMOOTH",
"303 64 LINE SMOOTH",
"303 76.6777 OFFCURVE",
"290.678 89 OFFCURVE",
"273 89 CURVE SMOOTH",
"235 89 LINE",
"235 296 LINE",
"508 296 LINE",
"508 89 LINE",
"470 89 LINE SMOOTH",
"453.369 89 OFFCURVE",
"440 78.305 OFFCURVE",
"440 64 CURVE SMOOTH",
"440 15 LINE SMOOTH",
"440 2.32233 OFFCURVE",
"452.322 -10 OFFCURVE",
"470 -10 CURVE SMOOTH",
"688 -10 LINE SMOOTH",
"704.631 -10 OFFCURVE",
"718 0.694971 OFFCURVE",
"718 15 CURVE SMOOTH",
"718 64 LINE SMOOTH",
"718 76.6777 OFFCURVE",
"705.678 89 OFFCURVE",
"688 89 CURVE SMOOTH",
"650 89 LINE",
"650 588 LINE",
"688 588 LINE SMOOTH",
"704.631 588 OFFCURVE",
"718 598.695 OFFCURVE",
"718 613 CURVE SMOOTH",
"718 664 LINE SMOOTH",
"718 676.678 OFFCURVE",
"705.678 689 OFFCURVE",
"688 689 CURVE SMOOTH",
"470 689 LINE SMOOTH",
"453.369 689 OFFCURVE",
"440 678.305 OFFCURVE",
"440 664 CURVE SMOOTH",
"440 613 LINE SMOOTH",
"440 600.322 OFFCURVE",
"452.322 588 OFFCURVE",
"470 588 CURVE SMOOTH",
"508 588 LINE",
"508 402 LINE",
"235 402 LINE"
);
},
{
closed = 1;
nodes = (
"288 722 LINE SMOOTH",
"302.597 722 OFFCURVE",
"317.642 729.523 OFFCURVE",
"324 738 CURVE SMOOTH",
"369.115 794.313 LINE",
"415.383 737.674 LINE SMOOTH",
"422.993 727.789 OFFCURVE",
"438.431 722 OFFCURVE",
"452 722 CURVE SMOOTH",
"509 722 LINE SMOOTH",
"531.652 722 OFFCURVE",
"538.191 735.078 OFFCURVE",
"527 750 CURVE SMOOTH",
"444.906 857.083 LINE SMOOTH",
"438.642 865.477 OFFCURVE",
"423.597 873 OFFCURVE",
"409 873 CURVE SMOOTH",
"333 873 LINE SMOOTH",
"318.403 873 OFFCURVE",
"303.358 865.477 OFFCURVE",
"297 857 CURVE SMOOTH",
"215.094 750.083 LINE SMOOTH",
"203.809 735.078 OFFCURVE",
"210.348 722 OFFCURVE",
"233 722 CURVE SMOOTH"
);
}
);
width = 743;
}
);
unicode = 0124;
},
{
glyphname = I;
lastChange = "2013-03-20 20:06:29 +0000";
layers = (
{
anchors = (
{
name = ogonek;
position = "{295, 10}";
},
{
name = top;
position = "{164, 679}";
}
);
layerId = "B4B43AB8-DB99-4954-A9F8-B6F89E957C89";
name = Regular;
paths = (
{
closed = 1;
nodes = (
"235 588 LINE",
"273 588 LINE SMOOTH",
"289.631 588 OFFCURVE",
"303 598.695 OFFCURVE",
"303 613 CURVE SMOOTH",
"303 664 LINE SMOOTH",
"303 676.678 OFFCURVE",
"290.678 689 OFFCURVE",
"273 689 CURVE SMOOTH",
"55 689 LINE SMOOTH",
"38.3687 689 OFFCURVE",
"25 678.305 OFFCURVE",
"25 664 CURVE SMOOTH",
"25 613 LINE SMOOTH",
"25 600.322 OFFCURVE",
"37.3223 588 OFFCURVE",
"55 588 CURVE SMOOTH",
"93 588 LINE",
"93 89 LINE",
"55 89 LINE SMOOTH",
"38.3687 89 OFFCURVE",
"25 78.305 OFFCURVE",
"25 64 CURVE SMOOTH",
"25 15 LINE SMOOTH",
"25 2.32233 OFFCURVE",
"37.3223 -10 OFFCURVE",
"55 -10 CURVE SMOOTH",
"273 -10 LINE SMOOTH",
"289.631 -10 OFFCURVE",
"303 0.694971 OFFCURVE",
"303 15 CURVE SMOOTH",
"303 64 LINE SMOOTH",
"303 76.6777 OFFCURVE",
"290.678 89 OFFCURVE",
"273 89 CURVE SMOOTH",
"235 89 LINE"
);
}
);
width = 328;
}
);
unicode = 0049;
},
{
glyphname = IJ;
lastChange = "2013-03-20 20:06:28 +0000";
layers = (
{
layerId = "B4B43AB8-DB99-4954-A9F8-B6F89E957C89";
name = Regular;
paths = (
{
closed = 1;
nodes = (
"235 588 LINE",
"273 588 LINE SMOOTH",
"289.631 588 OFFCURVE",
"303 598.695 OFFCURVE",
"303 613 CURVE SMOOTH",
"303 664 LINE SMOOTH",
"303 676.678 OFFCURVE",
"290.678 689 OFFCURVE",
"273 689 CURVE SMOOTH",
"55 689 LINE SMOOTH",
"38.3687 689 OFFCURVE",
"25 678.305 OFFCURVE",
"25 664 CURVE SMOOTH",
"25 613 LINE SMOOTH",
"25 600.322 OFFCURVE",
"37.3223 588 OFFCURVE",
"55 588 CURVE SMOOTH",
"93 588 LINE",
"93 89 LINE",
"55 89 LINE SMOOTH",
"38.3687 89 OFFCURVE",
"25 78.305 OFFCURVE",
"25 64 CURVE SMOOTH",
"25 15 LINE SMOOTH",
"25 2.32233 OFFCURVE",
"37.3223 -10 OFFCURVE",
"55 -10 CURVE SMOOTH",
"273 -10 LINE SMOOTH",
"289.631 -10 OFFCURVE",
"303 0.694971 OFFCURVE",
"303 15 CURVE SMOOTH",
"303 64 LINE SMOOTH",
"303 76.6777 OFFCURVE",
"290.678 89 OFFCURVE",
"273 89 CURVE SMOOTH",
"235 89 LINE"
);
},
{
closed = 1;
nodes = (
"422 -38 LINE SMOOTH",
"422 -117 OFFCURVE",
"399.076 -141 OFFCURVE",
"354 -141 CURVE SMOOTH",
"322.47 -141 OFFCURVE",
"303.793 -134 OFFCURVE",
"289.385 -129 CURVE SMOOTH",
"270.84 -121 OFFCURVE",
"255.003 -134 OFFCURVE",
"251.633 -145 CURVE",
"233.825 -197 LINE SMOOTH",
"230.334 -206 OFFCURVE",
"226.385 -218 OFFCURVE",
"246.292 -228 CURVE SMOOTH",
"269.499 -239 OFFCURVE",
"315.668 -250 OFFCURVE",
"366 -250 CURVE SMOOTH",
"520.03 -250 OFFCURVE",
"564 -152 OFFCURVE",
"564 -42 CURVE SMOOTH",
"564 588 LINE",
"602 588 LINE SMOOTH",
"618.631 588 OFFCURVE",
"632 598.695 OFFCURVE",
"632 613 CURVE SMOOTH",
"632 664 LINE SMOOTH",
"632 676.678 OFFCURVE",
"619.678 689 OFFCURVE",
"602 689 CURVE SMOOTH",
"384 689 LINE SMOOTH",
"367.369 689 OFFCURVE",
"354 678.305 OFFCURVE",
"354 664 CURVE SMOOTH",
"354 613 LINE SMOOTH",
"354 600.322 OFFCURVE",
"366.322 588 OFFCURVE",
"384 588 CURVE SMOOTH",
"422 588 LINE"
);
}
);
width = 657;
}
);
unicode = 0132;
},
{
glyphname = Iacute;
lastChange = "2013-03-20 20:06:28 +0000";
layers = (
{
layerId = "B4B43AB8-DB99-4954-A9F8-B6F89E957C89";
name = Regular;
paths = (
{
closed = 1;
nodes = (
"235 588 LINE",
"273 588 LINE SMOOTH",
"289.631 588 OFFCURVE",
"303 598.695 OFFCURVE",
"303 613 CURVE SMOOTH",
"303 664 LINE SMOOTH",
"303 676.678 OFFCURVE",
"290.678 689 OFFCURVE",
"273 689 CURVE SMOOTH",
"55 689 LINE SMOOTH",
"38.3687 689 OFFCURVE",
"25 678.305 OFFCURVE",
"25 664 CURVE SMOOTH",
"25 613 LINE SMOOTH",
"25 600.322 OFFCURVE",
"37.3223 588 OFFCURVE",
"55 588 CURVE SMOOTH",
"93 588 LINE",
"93 89 LINE",
"55 89 LINE SMOOTH",
"38.3687 89 OFFCURVE",
"25 78.305 OFFCURVE",
"25 64 CURVE SMOOTH",
"25 15 LINE SMOOTH",
"25 2.32233 OFFCURVE",
"37.3223 -10 OFFCURVE",
"55 -10 CURVE SMOOTH",
"273 -10 LINE SMOOTH",
"289.631 -10 OFFCURVE",
"303 0.694971 OFFCURVE",
"303 15 CURVE SMOOTH",
"303 64 LINE SMOOTH",
"303 76.6777 OFFCURVE",
"290.678 89 OFFCURVE",
"273 89 CURVE SMOOTH",
"235 89 LINE"
);
},
{
closed = 1;
nodes = (
"102.368 750.173 LINE",
"96.2091 735.055 OFFCURVE",
"106 722 OFFCURVE",
"125 722 CURVE SMOOTH",
"173 722 LINE SMOOTH",
"187.597 722 OFFCURVE",
"203.14 729.771 OFFCURVE",
"208.72 738.7 CURVE",
"278.368 840.342 LINE",
"287.494 852.658 OFFCURVE",
"283.658 868 OFFCURVE",
"260 868 CURVE SMOOTH",
"182 868 LINE SMOOTH",
"166.864 868 OFFCURVE",
"151.728 859.351 OFFCURVE",
"147.073 847.714 CURVE"
);
}
);
width = 328;
}
);
unicode = 00CD;
},
{
glyphname = Ibreve;
lastChange = "2013-03-20 20:06:28 +0000";
layers = (
{
layerId = "B4B43AB8-DB99-4954-A9F8-B6F89E957C89";
name = Regular;
paths = (
{
closed = 1;
nodes = (
"235 588 LINE",
"273 588 LINE SMOOTH",
"289.631 588 OFFCURVE",
"303 598.695 OFFCURVE",
"303 613 CURVE SMOOTH",
"303 664 LINE SMOOTH",
"303 676.678 OFFCURVE",
"290.678 689 OFFCURVE",
"273 689 CURVE SMOOTH",
"55 689 LINE SMOOTH",
"38.3687 689 OFFCURVE",
"25 678.305 OFFCURVE",
"25 664 CURVE SMOOTH",
"25 613 LINE SMOOTH",
"25 600.322 OFFCURVE",
"37.3223 588 OFFCURVE",
"55 588 CURVE SMOOTH",
"93 588 LINE",
"93 89 LINE",
"55 89 LINE SMOOTH",
"38.3687 89 OFFCURVE",
"25 78.305 OFFCURVE",
"25 64 CURVE SMOOTH",
"25 15 LINE SMOOTH",
"25 2.32233 OFFCURVE",
"37.3223 -10 OFFCURVE",
"55 -10 CURVE SMOOTH",
"273 -10 LINE SMOOTH",
"289.631 -10 OFFCURVE",
"303 0.694971 OFFCURVE",
"303 15 CURVE SMOOTH",
"303 64 LINE SMOOTH",
"303 76.6777 OFFCURVE",
"290.678 89 OFFCURVE",
"273 89 CURVE SMOOTH",
"235 89 LINE"
);
},
{
closed = 1;
nodes = (
"116.127 821 OFFCURVE",
"99.8596 830.196 OFFCURVE",
"93.5521 855.425 CURVE SMOOTH",
"89.1181 873.161 OFFCURVE",
"77.3333 882 OFFCURVE",
"55 882 CURVE SMOOTH",
"23 882 LINE SMOOTH",
"0.32233 882 OFFCURVE",
"-11 870.678 OFFCURVE",
"-11 853 CURVE SMOOTH",
"-9 775.57 OFFCURVE",
"55.4523 725 OFFCURVE",
"167 725 CURVE SMOOTH",
"272.051 725 OFFCURVE",
"341.704 774.1 OFFCURVE",
"347.952 852.203 CURVE SMOOTH",
"349.178 870.5 OFFCURVE",
"337.678 882 OFFCURVE",
"315 882 CURVE SMOOTH",
"284 882 LINE SMOOTH",
"262.658 882 OFFCURVE",
"249.311 873.992 OFFCURVE",
"243.683 855.983 CURVE SMOOTH",
"234.781 827.498 OFFCURVE",
"216.586 821 OFFCURVE",
"170 821 CURVE SMOOTH"
);
}
);
width = 328;
}
);
unicode = 012C;
},
{
glyphname = Icircumflex;
lastChange = "2013-03-20 20:06:28 +0000";
layers = (
{
layerId = "B4B43AB8-DB99-4954-A9F8-B6F89E957C89";
name = Regular;
paths = (
{
closed = 1;
nodes = (
"235 588 LINE",
"273 588 LINE SMOOTH",
"289.631 588 OFFCURVE",
"303 598.695 OFFCURVE",
"303 613 CURVE SMOOTH",
"303 664 LINE SMOOTH",
"303 676.678 OFFCURVE",
"290.678 689 OFFCURVE",
"273 689 CURVE SMOOTH",
"55 689 LINE SMOOTH",
"38.3687 689 OFFCURVE",
"25 678.305 OFFCURVE",
"25 664 CURVE SMOOTH",
"25 613 LINE SMOOTH",
"25 600.322 OFFCURVE",
"37.3223 588 OFFCURVE",
"55 588 CURVE SMOOTH",
"93 588 LINE",
"93 89 LINE",
"55 89 LINE SMOOTH",
"38.3687 89 OFFCURVE",
"25 78.305 OFFCURVE",
"25 64 CURVE SMOOTH",
"25 15 LINE SMOOTH",
"25 2.32233 OFFCURVE",
"37.3223 -10 OFFCURVE",
"55 -10 CURVE SMOOTH",
"273 -10 LINE SMOOTH",
"289.631 -10 OFFCURVE",
"303 0.694971 OFFCURVE",
"303 15 CURVE SMOOTH",
"303 64 LINE SMOOTH",
"303 76.6777 OFFCURVE",
"290.678 89 OFFCURVE",
"273 89 CURVE SMOOTH",
"235 89 LINE"
);
},
{
closed = 1;
nodes = (
"81 722 LINE SMOOTH",
"95.5967 722 OFFCURVE",
"110.642 729.523 OFFCURVE",
"117 738 CURVE SMOOTH",
"162.115 794.313 LINE",
"208.383 737.674 LINE SMOOTH",
"215.993 727.789 OFFCURVE",
"231.431 722 OFFCURVE",
"245 722 CURVE SMOOTH",
"302 722 LINE SMOOTH",
"324.652 722 OFFCURVE",
"331.191 735.078 OFFCURVE",
"320 750 CURVE SMOOTH",
"237.906 857.083 LINE SMOOTH",
"231.642 865.477 OFFCURVE",
"216.597 873 OFFCURVE",
"202 873 CURVE SMOOTH",
"126 873 LINE SMOOTH",
"111.403 873 OFFCURVE",
"96.358 865.477 OFFCURVE",
"90 857 CURVE SMOOTH",
"8.09411 750.083 LINE SMOOTH",
"-3 735.078 OFFCURVE",
"3.34752 722 OFFCURVE",
"26 722 CURVE SMOOTH"
);
}
);
width = 328;
}
);
unicode = 00CE;
},
{
glyphname = Idieresis;
lastChange = "2013-03-20 20:06:28 +0000";
layers = (
{
layerId = "B4B43AB8-DB99-4954-A9F8-B6F89E957C89";
name = Regular;
paths = (
{
closed = 1;
nodes = (
"235 588 LINE",
"273 588 LINE SMOOTH",
"289.631 588 OFFCURVE",
"303 598.695 OFFCURVE",
"303 613 CURVE SMOOTH",
"303 664 LINE SMOOTH",
"303 676.678 OFFCURVE",
"290.678 689 OFFCURVE",
"273 689 CURVE SMOOTH",
"55 689 LINE SMOOTH",
"38.3687 689 OFFCURVE",
"25 678.305 OFFCURVE",
"25 664 CURVE SMOOTH",
"25 613 LINE SMOOTH",
"25 600.322 OFFCURVE",
"37.3223 588 OFFCURVE",
"55 588 CURVE SMOOTH",
"93 588 LINE",
"93 89 LINE",
"55 89 LINE SMOOTH",
"38.3687 89 OFFCURVE",
"25 78.305 OFFCURVE",
"25 64 CURVE SMOOTH",
"25 15 LINE SMOOTH",
"25 2.32233 OFFCURVE",
"37.3223 -10 OFFCURVE",
"55 -10 CURVE SMOOTH",
"273 -10 LINE SMOOTH",
"289.631 -10 OFFCURVE",
"303 0.694971 OFFCURVE",
"303 15 CURVE SMOOTH",
"303 64 LINE SMOOTH",
"303 76.6777 OFFCURVE",
"290.678 89 OFFCURVE",
"273 89 CURVE SMOOTH",
"235 89 LINE"
);
},
{
closed = 1;
nodes = (
"305.548 728 OFFCURVE",
"342 756.641 OFFCURVE",
"342 800 CURVE SMOOTH",
"342 841.924 OFFCURVE",
"311.25 870 OFFCURVE",
"265 870 CURVE SMOOTH",
"222.107 870 OFFCURVE",
"188 841.14 OFFCURVE",
"188 800 CURVE SMOOTH",
"188 758.097 OFFCURVE",
"220.714 728 OFFCURVE",
"265 728 CURVE SMOOTH"
);
},
{
closed = 1;
nodes = (
"102.548 728 OFFCURVE",
"139 756.641 OFFCURVE",
"139 800 CURVE SMOOTH",
"139 841.924 OFFCURVE",
"108.25 870 OFFCURVE",
"62 870 CURVE SMOOTH",
"19.1072 870 OFFCURVE",
"-15 841.14 OFFCURVE",
"-15 800 CURVE SMOOTH",
"-15 758.097 OFFCURVE",
"17.7145 728 OFFCURVE",
"62 728 CURVE SMOOTH"
);
}
);
width = 328;
}
);
unicode = 00CF;
},
{
glyphname = Idotaccent;
lastChange = "2013-03-20 20:06:28 +0000";
layers = (
{
layerId = "B4B43AB8-DB99-4954-A9F8-B6F89E957C89";
name = Regular;
paths = (
{
closed = 1;
nodes = (
"235 588 LINE",
"273 588 LINE SMOOTH",
"289.631 588 OFFCURVE",
"303 598.695 OFFCURVE",
"303 613 CURVE SMOOTH",
"303 664 LINE SMOOTH",
"303 676.678 OFFCURVE",
"290.678 689 OFFCURVE",
"273 689 CURVE SMOOTH",
"55 689 LINE SMOOTH",
"38.3687 689 OFFCURVE",
"25 678.305 OFFCURVE",
"25 664 CURVE SMOOTH",
"25 613 LINE SMOOTH",
"25 600.322 OFFCURVE",
"37.3223 588 OFFCURVE",
"55 588 CURVE SMOOTH",
"93 588 LINE",
"93 89 LINE",
"55 89 LINE SMOOTH",
"38.3687 89 OFFCURVE",
"25 78.305 OFFCURVE",
"25 64 CURVE SMOOTH",
"25 15 LINE SMOOTH",
"25 2.32233 OFFCURVE",
"37.3223 -10 OFFCURVE",
"55 -10 CURVE SMOOTH",
"273 -10 LINE SMOOTH",
"289.631 -10 OFFCURVE",
"303 0.694971 OFFCURVE",
"303 15 CURVE SMOOTH",
"303 64 LINE SMOOTH",
"303 76.6777 OFFCURVE",
"290.678 89 OFFCURVE",
"273 89 CURVE SMOOTH",
"235 89 LINE"
);
},
{
closed = 1;
nodes = (
"74 758.755 OFFCURVE",
"106.505 720 OFFCURVE",
"160 720 CURVE SMOOTH",
"212.153 720 OFFCURVE",
"247 758.58 OFFCURVE",
"247 801 CURVE SMOOTH",
"247 844.333 OFFCURVE",
"213.322 883 OFFCURVE",
"160 883 CURVE SMOOTH",
"107.678 883 OFFCURVE",
"74 844.333 OFFCURVE",
"74 801 CURVE SMOOTH"
);
}
);
width = 328;
}
);
unicode = 0130;
},
{
glyphname = Igrave;
lastChange = "2013-03-20 20:06:28 +0000";
layers = (
{
layerId = "B4B43AB8-DB99-4954-A9F8-B6F89E957C89";
name = Regular;
paths = (
{
closed = 1;
nodes = (
"235 588 LINE",
"273 588 LINE SMOOTH",
"289.631 588 OFFCURVE",
"303 598.695 OFFCURVE",
"303 613 CURVE SMOOTH",
"303 664 LINE SMOOTH",
"303 676.678 OFFCURVE",
"290.678 689 OFFCURVE",
"273 689 CURVE SMOOTH",
"55 689 LINE SMOOTH",
"38.3687 689 OFFCURVE",
"25 678.305 OFFCURVE",
"25 664 CURVE SMOOTH",
"25 613 LINE SMOOTH",
"25 600.322 OFFCURVE",
"37.3223 588 OFFCURVE",
"55 588 CURVE SMOOTH",
"93 588 LINE",
"93 89 LINE",
"55 89 LINE SMOOTH",
"38.3687 89 OFFCURVE",
"25 78.305 OFFCURVE",
"25 64 CURVE SMOOTH",
"25 15 LINE SMOOTH",
"25 2.32233 OFFCURVE",
"37.3223 -10 OFFCURVE",
"55 -10 CURVE SMOOTH",
"273 -10 LINE SMOOTH",
"289.631 -10 OFFCURVE",
"303 0.694971 OFFCURVE",
"303 15 CURVE SMOOTH",
"303 64 LINE SMOOTH",
"303 76.6777 OFFCURVE",
"290.678 89 OFFCURVE",
"273 89 CURVE SMOOTH",
"235 89 LINE"
);
},
{
closed = 1;
nodes = (
"174.701 845.071 LINE",
"167.244 859.817 OFFCURVE",
"156.333 868 OFFCURVE",
"134 868 CURVE SMOOTH",
"64 868 LINE SMOOTH",
"37.3475 868 OFFCURVE",
"30.8631 855 OFFCURVE",
"43.869 837.118 CURVE SMOOTH",
"108.579 741.393 LINE",
"118.358 728.523 OFFCURVE",
"131.403 722 OFFCURVE",
"151 722 CURVE SMOOTH",
"191 722 LINE SMOOTH",
"214 722 OFFCURVE",
"223.914 735.219 OFFCURVE",
"215.619 753.191 CURVE SMOOTH"
);
}
);
width = 328;
}
);
unicode = 00CC;
},
{
glyphname = Imacron;
lastChange = "2013-03-20 20:06:28 +0000";
layers = (
{
layerId = "B4B43AB8-DB99-4954-A9F8-B6F89E957C89";
name = Regular;
paths = (
{
closed = 1;
nodes = (
"235 588 LINE",
"273 588 LINE SMOOTH",
"289.631 588 OFFCURVE",
"303 598.695 OFFCURVE",
"303 613 CURVE SMOOTH",
"303 664 LINE SMOOTH",
"303 676.678 OFFCURVE",
"290.678 689 OFFCURVE",
"273 689 CURVE SMOOTH",
"55 689 LINE SMOOTH",
"38.3687 689 OFFCURVE",
"25 678.305 OFFCURVE",
"25 664 CURVE SMOOTH",
"25 613 LINE SMOOTH",
"25 600.322 OFFCURVE",
"37.3223 588 OFFCURVE",
"55 588 CURVE SMOOTH",
"93 588 LINE",
"93 89 LINE",
"55 89 LINE SMOOTH",
"38.3687 89 OFFCURVE",
"25 78.305 OFFCURVE",
"25 64 CURVE SMOOTH",
"25 15 LINE SMOOTH",
"25 2.32233 OFFCURVE",
"37.3223 -10 OFFCURVE",
"55 -10 CURVE SMOOTH",
"273 -10 LINE SMOOTH",
"289.631 -10 OFFCURVE",
"303 0.694971 OFFCURVE",
"303 15 CURVE SMOOTH",
"303 64 LINE SMOOTH",
"303 76.6777 OFFCURVE",
"290.678 89 OFFCURVE",
"273 89 CURVE SMOOTH",
"235 89 LINE"
);
},
{
closed = 1;
nodes = (
"294 750 LINE SMOOTH",
"316.678 750 OFFCURVE",
"328 761.322 OFFCURVE",
"328 779 CURVE SMOOTH",
"328 822 LINE SMOOTH",
"328 839.678 OFFCURVE",
"316.678 851 OFFCURVE",
"294 851 CURVE SMOOTH",
"34 851 LINE SMOOTH",
"11.3223 851 OFFCURVE",
"0 839.678 OFFCURVE",
"0 822 CURVE SMOOTH",
"0 779 LINE SMOOTH",
"0 761.322 OFFCURVE",
"11.3223 750 OFFCURVE",
"34 750 CURVE SMOOTH"
);
}
);
width = 328;
}
);
unicode = 012A;
},
{
glyphname = Iogonek;
lastChange = "2013-03-20 20:06:28 +0000";
layers = (
{
layerId = "B4B43AB8-DB99-4954-A9F8-B6F89E957C89";
name = Regular;
paths = (
{
closed = 1;
nodes = (
"47 -198 OFFCURVE",
"82.197 -243 OFFCURVE",
"146 -243 CURVE SMOOTH",
"185.35 -243 OFFCURVE",
"222.315 -226 OFFCURVE",
"243.45 -211 CURVE",
"263 -199 OFFCURVE",
"263 -189 OFFCURVE",
"255.168 -174 CURVE",
"245.416 -155 LINE SMOOTH",
"239.862 -143 OFFCURVE",
"218.924 -137 OFFCURVE",
"204.675 -145 CURVE SMOOTH",
"190.581 -152 OFFCURVE",
"183.275 -154 OFFCURVE",
"174 -154 CURVE SMOOTH",
"157.403 -154 OFFCURVE",
"156 -146 OFFCURVE",
"156 -128 CURVE SMOOTH",
"156 -98 OFFCURVE",
"174.886 -60 OFFCURVE",
"221.051 -10 CURVE",
"273 -10 LINE SMOOTH",
"289.631 -10 OFFCURVE",
"303 0.694971 OFFCURVE",
"303 15 CURVE SMOOTH",
"303 64 LINE SMOOTH",
"303 76.6777 OFFCURVE",
"290.678 89 OFFCURVE",
"273 89 CURVE SMOOTH",
"235 89 LINE",
"235 588 LINE",
"273 588 LINE SMOOTH",
"289.631 588 OFFCURVE",
"303 598.695 OFFCURVE",
"303 613 CURVE SMOOTH",
"303 664 LINE SMOOTH",
"303 676.678 OFFCURVE",
"290.678 689 OFFCURVE",
"273 689 CURVE SMOOTH",
"55 689 LINE SMOOTH",
"38.3687 689 OFFCURVE",
"25 678.305 OFFCURVE",
"25 664 CURVE SMOOTH",
"25 613 LINE SMOOTH",
"25 600.322 OFFCURVE",
"37.3223 588 OFFCURVE",
"55 588 CURVE SMOOTH",
"93 588 LINE",
"93 89 LINE",
"55 89 LINE SMOOTH",
"38.3687 89 OFFCURVE",
"25 78.305 OFFCURVE",
"25 64 CURVE SMOOTH",
"25 15 LINE SMOOTH",
"25 2.32233 OFFCURVE",
"37.3223 -10 OFFCURVE",
"55 -10 CURVE SMOOTH",
"120.713 -10 LINE",
"82.5385 -48 OFFCURVE",
"47 -94 OFFCURVE",
"47 -147 CURVE SMOOTH"
);
}
);
width = 328;
}
);
unicode = 012E;
},
{
glyphname = Itilde;
lastChange = "2013-03-20 20:06:28 +0000";
layers = (
{
layerId = "B4B43AB8-DB99-4954-A9F8-B6F89E957C89";
name = Regular;
paths = (
{
closed = 1;
nodes = (
"235 588 LINE",
"273 588 LINE SMOOTH",
"289.631 588 OFFCURVE",
"303 598.695 OFFCURVE",
"303 613 CURVE SMOOTH",
"303 664 LINE SMOOTH",
"303 676.678 OFFCURVE",
"290.678 689 OFFCURVE",
"273 689 CURVE SMOOTH",
"55 689 LINE SMOOTH",
"38.3687 689 OFFCURVE",
"25 678.305 OFFCURVE",
"25 664 CURVE SMOOTH",
"25 613 LINE SMOOTH",
"25 600.322 OFFCURVE",
"37.3223 588 OFFCURVE",
"55 588 CURVE SMOOTH",
"93 588 LINE",
"93 89 LINE",
"55 89 LINE SMOOTH",
"38.3687 89 OFFCURVE",
"25 78.305 OFFCURVE",
"25 64 CURVE SMOOTH",
"25 15 LINE SMOOTH",
"25 2.32233 OFFCURVE",
"37.3223 -10 OFFCURVE",
"55 -10 CURVE SMOOTH",
"273 -10 LINE SMOOTH",
"289.631 -10 OFFCURVE",
"303 0.694971 OFFCURVE",
"303 15 CURVE SMOOTH",
"303 64 LINE SMOOTH",
"303 76.6777 OFFCURVE",
"290.678 89 OFFCURVE",
"273 89 CURVE SMOOTH",
"235 89 LINE"
);
},
{
closed = 1;
nodes = (
"34.7289 868 OFFCURVE",
"-21 849.002 OFFCURVE",
"-21 764 CURVE SMOOTH",
"-21 753.968 OFFCURVE",
"-15 740 OFFCURVE",
"6 740 CURVE SMOOTH",
"37 740 LINE SMOOTH",
"51.5967 740 OFFCURVE",
"64 746.202 OFFCURVE",
"64 760 CURVE SMOOTH",
"64 770.984 OFFCURVE",
"65.5964 772 OFFCURVE",
"79 772 CURVE SMOOTH",
"109.826 772 OFFCURVE",
"194.826 734 OFFCURVE",
"258 734 CURVE SMOOTH",
"304.501 734 OFFCURVE",
"349 768.611 OFFCURVE",
"349 843 CURVE SMOOTH",
"349 853.032 OFFCURVE",
"343.413 867 OFFCURVE",
"322 867 CURVE SMOOTH",
"298 867 LINE SMOOTH",
"284.217 867 OFFCURVE",
"268 860.513 OFFCURVE",
"268 844 CURVE SMOOTH",
"268 827.394 OFFCURVE",
"266.029 827 OFFCURVE",
"249 827 CURVE SMOOTH",
"206.55 827 OFFCURVE",
"123.55 868 OFFCURVE",
"67 868 CURVE SMOOTH"
);
}
);
width = 328;
}
);
unicode = 0128;
},
{
glyphname = J;
lastChange = "2013-03-20 20:06:29 +0000";
layers = (
{
anchors = (
{
name = top;
position = "{165, 679}";
}
);
layerId = "B4B43AB8-DB99-4954-A9F8-B6F89E957C89";
name = Regular;
paths = (
{
closed = 1;
nodes = (
"94 -38 LINE SMOOTH",
"94 -117 OFFCURVE",
"71.0765 -141 OFFCURVE",
"26 -141 CURVE SMOOTH",
"-6 -141 OFFCURVE",
"-24 -134 OFFCURVE",
"-39 -129 CURVE SMOOTH",
"-57 -121 OFFCURVE",
"-73 -134 OFFCURVE",
"-76 -145 CURVE",
"-94 -197 LINE SMOOTH",
"-98 -206 OFFCURVE",
"-102 -218 OFFCURVE",
"-82 -228 CURVE SMOOTH",
"-59 -239 OFFCURVE",
"-12 -250 OFFCURVE",
"38 -250 CURVE SMOOTH",
"192.03 -250 OFFCURVE",
"236 -152 OFFCURVE",
"236 -42 CURVE SMOOTH",
"236 588 LINE",
"274 588 LINE SMOOTH",
"290.631 588 OFFCURVE",
"304 598.695 OFFCURVE",
"304 613 CURVE SMOOTH",
"304 664 LINE SMOOTH",
"304 676.678 OFFCURVE",
"291.678 689 OFFCURVE",
"274 689 CURVE SMOOTH",
"56 689 LINE SMOOTH",
"39.3687 689 OFFCURVE",
"26 678.305 OFFCURVE",
"26 664 CURVE SMOOTH",
"26 613 LINE SMOOTH",
"26 600.322 OFFCURVE",
"38.3223 588 OFFCURVE",
"56 588 CURVE SMOOTH",
"94 588 LINE"
);
}
);
width = 329;
}
);
unicode = 004A;
},
{
glyphname = Jcircumflex;
lastChange = "2013-03-20 20:06:28 +0000";
layers = (
{
layerId = "B4B43AB8-DB99-4954-A9F8-B6F89E957C89";
name = Regular;
paths = (
{
closed = 1;
nodes = (
"94 -38 LINE SMOOTH",
"94 -117 OFFCURVE",
"71.0765 -141 OFFCURVE",
"26 -141 CURVE SMOOTH",
"-6 -141 OFFCURVE",
"-24 -134 OFFCURVE",
"-39 -129 CURVE SMOOTH",
"-57 -121 OFFCURVE",
"-73 -134 OFFCURVE",
"-76 -145 CURVE",
"-94 -197 LINE SMOOTH",
"-98 -206 OFFCURVE",
"-102 -218 OFFCURVE",
"-82 -228 CURVE SMOOTH",
"-59 -239 OFFCURVE",
"-12 -250 OFFCURVE",
"38 -250 CURVE SMOOTH",
"192.03 -250 OFFCURVE",
"236 -152 OFFCURVE",
"236 -42 CURVE SMOOTH",
"236 588 LINE",
"274 588 LINE SMOOTH",
"290.631 588 OFFCURVE",
"304 598.695 OFFCURVE",
"304 613 CURVE SMOOTH",
"304 664 LINE SMOOTH",
"304 676.678 OFFCURVE",
"291.678 689 OFFCURVE",
"274 689 CURVE SMOOTH",
"56 689 LINE SMOOTH",
"39.3687 689 OFFCURVE",
"26 678.305 OFFCURVE",
"26 664 CURVE SMOOTH",
"26 613 LINE SMOOTH",
"26 600.322 OFFCURVE",
"38.3223 588 OFFCURVE",
"56 588 CURVE SMOOTH",
"94 588 LINE"
);
},
{
closed = 1;
nodes = (
"81 722 LINE SMOOTH",
"95.5967 722 OFFCURVE",
"110.642 729.523 OFFCURVE",
"117 738 CURVE SMOOTH",
"162.115 794.313 LINE",
"208.383 737.674 LINE SMOOTH",
"215.993 727.789 OFFCURVE",
"231.431 722 OFFCURVE",
"245 722 CURVE SMOOTH",
"302 722 LINE SMOOTH",
"324.652 722 OFFCURVE",
"331.191 735.078 OFFCURVE",
"320 750 CURVE SMOOTH",
"237.906 857.083 LINE SMOOTH",
"231.642 865.477 OFFCURVE",
"216.597 873 OFFCURVE",
"202 873 CURVE SMOOTH",
"126 873 LINE SMOOTH",
"111.403 873 OFFCURVE",
"96.358 865.477 OFFCURVE",
"90 857 CURVE SMOOTH",
"8.09411 750.083 LINE SMOOTH",
"-3 735.078 OFFCURVE",
"3.34752 722 OFFCURVE",
"26 722 CURVE SMOOTH"
);
}
);
width = 329;
}
);
unicode = 0134;
},
{
glyphname = K;
lastChange = "2013-03-20 20:06:29 +0000";
layers = (
{
anchors = (
{
name = bottom;
position = "{332, 0}";
},
{
name = top;
position = "{332, 679}";
}
);
layerId = "B4B43AB8-DB99-4954-A9F8-B6F89E957C89";
name = Regular;
paths = (
{
closed = 1;
nodes = (
"235 588 LINE",
"273 588 LINE SMOOTH",
"289.631 588 OFFCURVE",
"303 598.695 OFFCURVE",
"303 613 CURVE SMOOTH",
"303 664 LINE SMOOTH",
"303 676.678 OFFCURVE",
"290.678 689 OFFCURVE",
"273 689 CURVE SMOOTH",
"55 689 LINE SMOOTH",
"38.3687 689 OFFCURVE",
"25 678.305 OFFCURVE",
"25 664 CURVE SMOOTH",
"25 613 LINE SMOOTH",
"25 600.322 OFFCURVE",
"37.3223 588 OFFCURVE",
"55 588 CURVE SMOOTH",
"93 588 LINE",
"93 89 LINE",
"55 89 LINE SMOOTH",
"38.3687 89 OFFCURVE",
"25 78.305 OFFCURVE",
"25 64 CURVE SMOOTH",
"25 15 LINE SMOOTH",
"25 2.32233 OFFCURVE",
"37.3223 -10 OFFCURVE",
"55 -10 CURVE SMOOTH",
"273 -10 LINE SMOOTH",
"289.631 -10 OFFCURVE",
"303 0.694971 OFFCURVE",
"303 15 CURVE SMOOTH",
"303 64 LINE SMOOTH",
"303 76.6777 OFFCURVE",
"290.678 89 OFFCURVE",
"273 89 CURVE SMOOTH",
"235 89 LINE",
"235 292 LINE",
"261.654 292 LINE",
"459.672 6.30348 LINE",
"466.358 -2 OFFCURVE",
"481.403 -10 OFFCURVE",
"496 -10 CURVE SMOOTH",
"624 -10 LINE SMOOTH",
"640.631 -10 OFFCURVE",
"654 0.694971 OFFCURVE",
"654 15 CURVE SMOOTH",
"654 64 LINE SMOOTH",
"654 76.6777 OFFCURVE",
"641.678 89 OFFCURVE",
"624 89 CURVE SMOOTH",
"568.329 89 LINE",
"376.592 364.562 LINE",
"566.396 586 LINE",
"609 586 LINE SMOOTH",
"626.678 586 OFFCURVE",
"639 598.322 OFFCURVE",
"639 611 CURVE SMOOTH",
"639 664 LINE SMOOTH",
"639 676.678 OFFCURVE",
"626.678 689 OFFCURVE",
"609 689 CURVE SMOOTH",
"405 689 LINE SMOOTH",
"386.322 689 OFFCURVE",
"375 677.678 OFFCURVE",
"375 664 CURVE SMOOTH",
"375 613 LINE SMOOTH",
"375 600.322 OFFCURVE",
"387.322 588 OFFCURVE",
"405 588 CURVE SMOOTH",
"432.285 588 LINE",
"263.669 394 LINE",
"235 394 LINE"
);
}
);
width = 664;
}
);
unicode = 004B;
},
{
glyphname = Kcommaaccent;
lastChange = "2013-03-20 20:06:28 +0000";
layers = (
{
layerId = "B4B43AB8-DB99-4954-A9F8-B6F89E957C89";
name = Regular;
paths = (
{
closed = 1;
nodes = (
"235 588 LINE",
"273 588 LINE SMOOTH",
"289.631 588 OFFCURVE",
"303 598.695 OFFCURVE",
"303 613 CURVE SMOOTH",
"303 664 LINE SMOOTH",
"303 676.678 OFFCURVE",
"290.678 689 OFFCURVE",
"273 689 CURVE SMOOTH",
"55 689 LINE SMOOTH",
"38.3687 689 OFFCURVE",
"25 678.305 OFFCURVE",
"25 664 CURVE SMOOTH",
"25 613 LINE SMOOTH",
"25 600.322 OFFCURVE",
"37.3223 588 OFFCURVE",
"55 588 CURVE SMOOTH",
"93 588 LINE",
"93 89 LINE",
"55 89 LINE SMOOTH",
"38.3687 89 OFFCURVE",
"25 78.305 OFFCURVE",
"25 64 CURVE SMOOTH",
"25 15 LINE SMOOTH",
"25 2.32233 OFFCURVE",
"37.3223 -10 OFFCURVE",
"55 -10 CURVE SMOOTH",
"273 -10 LINE SMOOTH",
"289.631 -10 OFFCURVE",
"303 0.694971 OFFCURVE",
"303 15 CURVE SMOOTH",
"303 64 LINE SMOOTH",
"303 76.6777 OFFCURVE",
"290.678 89 OFFCURVE",
"273 89 CURVE SMOOTH",
"235 89 LINE",
"235 292 LINE",
"261.654 292 LINE",
"459.672 6.30348 LINE",
"466.358 -2 OFFCURVE",
"481.403 -10 OFFCURVE",
"496 -10 CURVE SMOOTH",
"624 -10 LINE SMOOTH",
"640.631 -10 OFFCURVE",
"654 0.694971 OFFCURVE",
"654 15 CURVE SMOOTH",
"654 64 LINE SMOOTH",
"654 76.6777 OFFCURVE",
"641.678 89 OFFCURVE",
"624 89 CURVE SMOOTH",
"568.329 89 LINE",
"376.592 364.562 LINE",
"566.396 586 LINE",
"609 586 LINE SMOOTH",
"626.678 586 OFFCURVE",
"639 598.322 OFFCURVE",
"639 611 CURVE SMOOTH",
"639 664 LINE SMOOTH",
"639 676.678 OFFCURVE",
"626.678 689 OFFCURVE",
"609 689 CURVE SMOOTH",
"405 689 LINE SMOOTH",
"386.322 689 OFFCURVE",
"375 677.678 OFFCURVE",
"375 664 CURVE SMOOTH",
"375 613 LINE SMOOTH",
"375 600.322 OFFCURVE",
"387.322 588 OFFCURVE",
"405 588 CURVE SMOOTH",
"432.285 588 LINE",
"263.669 394 LINE",
"235 394 LINE"
);
},
{
closed = 1;
nodes = (
"369.547 -217 LINE SMOOTH",
"391.967 -181 OFFCURVE",
"408 -155 OFFCURVE",
"408 -123 CURVE SMOOTH",
"408 -83 OFFCURVE",
"376.266 -60 OFFCURVE",
"333 -60 CURVE SMOOTH",
"286.854 -60 OFFCURVE",
"261 -89 OFFCURVE",
"261 -120 CURVE SMOOTH",
"261 -150 OFFCURVE",
"278.326 -169 OFFCURVE",
"290.37 -184 CURVE",
"269.655 -252 LINE",
"265.808 -263 OFFCURVE",
"268.126 -274 OFFCURVE",
"284.733 -280 CURVE",
"296.231 -285 LINE SMOOTH",
"308.746 -291 OFFCURVE",
"325.388 -284 OFFCURVE",
"331.206 -276 CURVE"
);
}
);
width = 664;
}
);
unicode = 0136;
},
{
glyphname = L;
lastChange = "2013-03-20 20:06:29 +0000";
layers = (
{
anchors = (
{
name = bottom;
position = "{263, 0}";
},
{
name = top;
position = "{263, 679}";
}
);
layerId = "B4B43AB8-DB99-4954-A9F8-B6F89E957C89";
name = Regular;
paths = (
{
closed = 1;
nodes = (
"235 588 LINE",
"293 588 LINE SMOOTH",
"309.631 588 OFFCURVE",
"323 598.695 OFFCURVE",
"323 613 CURVE SMOOTH",
"323 664 LINE SMOOTH",
"323 676.678 OFFCURVE",
"310.678 689 OFFCURVE",
"293 689 CURVE SMOOTH",
"55 689 LINE SMOOTH",
"38.3687 689 OFFCURVE",
"25 678.305 OFFCURVE",
"25 664 CURVE SMOOTH",
"25 613 LINE SMOOTH",
"25 600.322 OFFCURVE",
"37.3223 588 OFFCURVE",
"55 588 CURVE SMOOTH",
"93 588 LINE",
"93 89 LINE",
"55 89 LINE SMOOTH",
"38.3687 89 OFFCURVE",
"25 78.305 OFFCURVE",
"25 64 CURVE SMOOTH",
"25 15 LINE SMOOTH",
"25 2.86176 OFFCURVE",
"35.2894 -10 OFFCURVE",
"55 -10 CURVE SMOOTH",
"412.365 -10 LINE",
"410.029 -47 LINE SMOOTH",
"408.701 -62 OFFCURVE",
"422.369 -73 OFFCURVE",
"439 -73 CURVE SMOOTH",
"495 -73 LINE SMOOTH",
"511.631 -73 OFFCURVE",
"525 -62 OFFCURVE",
"525 -48 CURVE SMOOTH",
"525 149 LINE SMOOTH",
"525 161.678 OFFCURVE",
"512.678 174 OFFCURVE",
"495 174 CURVE SMOOTH",
"439 174 LINE SMOOTH",
"422.369 174 OFFCURVE",
"408.701 163.066 OFFCURVE",
"410.062 148.095 CURVE SMOOTH",
"413.42 89 LINE",
"235 89 LINE"
);
}
);
width = 525;
}
);
unicode = 004C;
},
{
glyphname = Lacute;
lastChange = "2013-03-20 20:06:28 +0000";
layers = (
{
layerId = "B4B43AB8-DB99-4954-A9F8-B6F89E957C89";
name = Regular;
paths = (
{
closed = 1;
nodes = (
"235 588 LINE",
"293 588 LINE SMOOTH",
"309.631 588 OFFCURVE",
"323 598.695 OFFCURVE",
"323 613 CURVE SMOOTH",
"323 664 LINE SMOOTH",
"323 676.678 OFFCURVE",
"310.678 689 OFFCURVE",
"293 689 CURVE SMOOTH",
"55 689 LINE SMOOTH",
"38.3687 689 OFFCURVE",
"25 678.305 OFFCURVE",
"25 664 CURVE SMOOTH",
"25 613 LINE SMOOTH",
"25 600.322 OFFCURVE",
"37.3223 588 OFFCURVE",
"55 588 CURVE SMOOTH",
"93 588 LINE",
"93 89 LINE",
"55 89 LINE SMOOTH",
"38.3687 89 OFFCURVE",
"25 78.305 OFFCURVE",
"25 64 CURVE SMOOTH",
"25 15 LINE SMOOTH",
"25 2.86176 OFFCURVE",
"35.2894 -10 OFFCURVE",
"55 -10 CURVE SMOOTH",
"412.365 -10 LINE",
"410.029 -47 LINE SMOOTH",
"408.701 -62 OFFCURVE",
"422.369 -73 OFFCURVE",
"439 -73 CURVE SMOOTH",
"495 -73 LINE SMOOTH",
"511.631 -73 OFFCURVE",
"525 -62 OFFCURVE",
"525 -48 CURVE SMOOTH",
"525 149 LINE SMOOTH",
"525 161.678 OFFCURVE",
"512.678 174 OFFCURVE",
"495 174 CURVE SMOOTH",
"439 174 LINE SMOOTH",
"422.369 174 OFFCURVE",
"408.701 163.066 OFFCURVE",
"410.062 148.095 CURVE SMOOTH",
"413.42 89 LINE",
"235 89 LINE"
);
},
{
closed = 1;
nodes = (
"106.368 750.173 LINE",
"100.209 735.055 OFFCURVE",
"110 722 OFFCURVE",
"129 722 CURVE SMOOTH",
"177 722 LINE SMOOTH",
"191.597 722 OFFCURVE",
"207.14 729.771 OFFCURVE",
"212.72 738.7 CURVE",
"282.368 840.342 LINE",
"291.494 852.658 OFFCURVE",
"287.658 868 OFFCURVE",
"264 868 CURVE SMOOTH",
"186 868 LINE SMOOTH",
"170.864 868 OFFCURVE",
"155.728 859.351 OFFCURVE",
"151.073 847.714 CURVE"
);
}
);
width = 525;
}
);
unicode = 0139;
},
{
glyphname = Lcaron;
lastChange = "2013-03-20 20:06:28 +0000";
layers = (
{
layerId = "B4B43AB8-DB99-4954-A9F8-B6F89E957C89";
name = Regular;
paths = (
{
closed = 1;
nodes = (
"235 588 LINE",
"293 588 LINE SMOOTH",
"309.631 588 OFFCURVE",
"323 598.695 OFFCURVE",
"323 613 CURVE SMOOTH",
"323 664 LINE SMOOTH",
"323 676.678 OFFCURVE",
"310.678 689 OFFCURVE",
"293 689 CURVE SMOOTH",
"55 689 LINE SMOOTH",
"38.3687 689 OFFCURVE",
"25 678.305 OFFCURVE",
"25 664 CURVE SMOOTH",
"25 613 LINE SMOOTH",
"25 600.322 OFFCURVE",
"37.3223 588 OFFCURVE",
"55 588 CURVE SMOOTH",
"93 588 LINE",
"93 89 LINE",
"55 89 LINE SMOOTH",
"38.3687 89 OFFCURVE",
"25 78.305 OFFCURVE",
"25 64 CURVE SMOOTH",
"25 15 LINE SMOOTH",
"25 2.86176 OFFCURVE",
"35.2894 -10 OFFCURVE",
"55 -10 CURVE SMOOTH",
"412.365 -10 LINE",
"410.029 -47 LINE SMOOTH",
"408.701 -62 OFFCURVE",
"422.369 -73 OFFCURVE",
"439 -73 CURVE SMOOTH",
"495 -73 LINE SMOOTH",
"511.631 -73 OFFCURVE",
"525 -62 OFFCURVE",
"525 -48 CURVE SMOOTH",
"525 149 LINE SMOOTH",
"525 161.678 OFFCURVE",
"512.678 174 OFFCURVE",
"495 174 CURVE SMOOTH",
"439 174 LINE SMOOTH",
"422.369 174 OFFCURVE",
"408.701 163.066 OFFCURVE",
"410.062 148.095 CURVE SMOOTH",
"413.42 89 LINE",
"235 89 LINE"
);
},
{
closed = 1;
nodes = (
"386 664 LINE SMOOTH",
"386 671.695 OFFCURVE",
"382.631 669 OFFCURVE",
"386 669 CURVE SMOOTH",
"458 669 LINE SMOOTH",
"460.322 669 OFFCURVE",
"456.758 672.564 OFFCURVE",
"456.062 664.905 CURVE",
"424.208 475.661 LINE SMOOTH",
"422.705 467.338 OFFCURVE",
"425.199 469 OFFCURVE",
"421 469 CURVE SMOOTH",
"386 469 LINE SMOOTH",
"383.678 469 OFFCURVE",
"386 466.678 OFFCURVE",
"386 474 CURVE SMOOTH"
);
}
);
width = 525;
}
);
unicode = 013D;
},
{
glyphname = Lcommaaccent;
lastChange = "2013-03-20 20:06:28 +0000";
layers = (
{
layerId = "B4B43AB8-DB99-4954-A9F8-B6F89E957C89";
name = Regular;
paths = (
{
closed = 1;
nodes = (
"235 588 LINE",
"293 588 LINE SMOOTH",
"309.631 588 OFFCURVE",
"323 598.695 OFFCURVE",
"323 613 CURVE SMOOTH",
"323 664 LINE SMOOTH",
"323 676.678 OFFCURVE",
"310.678 689 OFFCURVE",
"293 689 CURVE SMOOTH",
"55 689 LINE SMOOTH",
"38.3687 689 OFFCURVE",
"25 678.305 OFFCURVE",
"25 664 CURVE SMOOTH",
"25 613 LINE SMOOTH",
"25 600.322 OFFCURVE",
"37.3223 588 OFFCURVE",
"55 588 CURVE SMOOTH",
"93 588 LINE",
"93 89 LINE",
"55 89 LINE SMOOTH",
"38.3687 89 OFFCURVE",
"25 78.305 OFFCURVE",
"25 64 CURVE SMOOTH",
"25 15 LINE SMOOTH",
"25 2.86176 OFFCURVE",
"35.2894 -10 OFFCURVE",
"55 -10 CURVE SMOOTH",
"412.365 -10 LINE",
"410.029 -47 LINE SMOOTH",
"408.701 -62 OFFCURVE",
"422.369 -73 OFFCURVE",
"439 -73 CURVE SMOOTH",
"495 -73 LINE SMOOTH",
"511.631 -73 OFFCURVE",
"525 -62 OFFCURVE",
"525 -48 CURVE SMOOTH",
"525 149 LINE SMOOTH",
"525 161.678 OFFCURVE",
"512.678 174 OFFCURVE",
"495 174 CURVE SMOOTH",
"439 174 LINE SMOOTH",
"422.369 174 OFFCURVE",
"408.701 163.066 OFFCURVE",
"410.062 148.095 CURVE SMOOTH",
"413.42 89 LINE",
"235 89 LINE"
);
},
{
closed = 1;
nodes = (
"299.547 -217 LINE SMOOTH",
"321.967 -181 OFFCURVE",
"338 -155 OFFCURVE",
"338 -123 CURVE SMOOTH",
"338 -83 OFFCURVE",
"306.266 -60 OFFCURVE",
"263 -60 CURVE SMOOTH",
"216.854 -60 OFFCURVE",
"191 -89 OFFCURVE",
"191 -120 CURVE SMOOTH",
"191 -150 OFFCURVE",
"208.326 -169 OFFCURVE",
"220.37 -184 CURVE",
"199.655 -252 LINE",
"195.808 -263 OFFCURVE",
"198.126 -274 OFFCURVE",
"214.733 -280 CURVE",
"226.231 -285 LINE SMOOTH",
"238.746 -291 OFFCURVE",
"255.388 -284 OFFCURVE",
"261.206 -276 CURVE"
);
}
);
width = 525;
}
);
unicode = 013B;
},
{
glyphname = Ldot;
lastChange = "2013-03-20 20:06:28 +0000";
layers = (
{
layerId = "B4B43AB8-DB99-4954-A9F8-B6F89E957C89";
name = Regular;
paths = (
{
closed = 1;
nodes = (
"235 588 LINE",
"293 588 LINE SMOOTH",
"309.631 588 OFFCURVE",
"323 598.695 OFFCURVE",
"323 613 CURVE SMOOTH",
"323 664 LINE SMOOTH",
"323 676.678 OFFCURVE",
"310.678 689 OFFCURVE",
"293 689 CURVE SMOOTH",
"55 689 LINE SMOOTH",
"38.3687 689 OFFCURVE",
"25 678.305 OFFCURVE",
"25 664 CURVE SMOOTH",
"25 613 LINE SMOOTH",
"25 600.322 OFFCURVE",
"37.3223 588 OFFCURVE",
"55 588 CURVE SMOOTH",
"93 588 LINE",
"93 89 LINE",
"55 89 LINE SMOOTH",
"38.3687 89 OFFCURVE",
"25 78.305 OFFCURVE",
"25 64 CURVE SMOOTH",
"25 15 LINE SMOOTH",
"25 2.86176 OFFCURVE",
"35.2894 -10 OFFCURVE",
"55 -10 CURVE SMOOTH",
"412.365 -10 LINE",
"410.029 -47 LINE SMOOTH",
"408.701 -62 OFFCURVE",
"422.369 -73 OFFCURVE",
"439 -73 CURVE SMOOTH",
"495 -73 LINE SMOOTH",
"511.631 -73 OFFCURVE",
"525 -62 OFFCURVE",
"525 -48 CURVE SMOOTH",
"525 149 LINE SMOOTH",
"525 161.678 OFFCURVE",
"512.678 174 OFFCURVE",
"495 174 CURVE SMOOTH",
"439 174 LINE SMOOTH",
"422.369 174 OFFCURVE",
"408.701 163.066 OFFCURVE",
"410.062 148.095 CURVE SMOOTH",
"413.42 89 LINE",
"235 89 LINE"
);
},
{
closed = 1;
nodes = (
"329 284.755 OFFCURVE",
"361.505 246 OFFCURVE",
"415 246 CURVE SMOOTH",
"467.153 246 OFFCURVE",
"502 284.58 OFFCURVE",
"502 327 CURVE SMOOTH",
"502 370.333 OFFCURVE",
"468.322 409 OFFCURVE",
"415 409 CURVE SMOOTH",
"362.678 409 OFFCURVE",
"329 370.333 OFFCURVE",
"329 327 CURVE SMOOTH"
);
}
);
width = 525;
}
);
unicode = 013F;
},
{
glyphname = Lslash;
lastChange = "2013-03-20 20:06:28 +0000";
layers = (
{
layerId = "B4B43AB8-DB99-4954-A9F8-B6F89E957C89";
name = Regular;
paths = (
{
closed = 1;
nodes = (
"235 588 LINE",
"293 588 LINE SMOOTH",
"309.631 588 OFFCURVE",
"323 598.695 OFFCURVE",
"323 613 CURVE SMOOTH",
"323 664 LINE SMOOTH",
"323 676.678 OFFCURVE",
"310.678 689 OFFCURVE",
"293 689 CURVE SMOOTH",
"55 689 LINE SMOOTH",
"38.3687 689 OFFCURVE",
"25 678.305 OFFCURVE",
"25 664 CURVE SMOOTH",
"25 613 LINE SMOOTH",
"25 600.322 OFFCURVE",
"37.3223 588 OFFCURVE",
"55 588 CURVE SMOOTH",
"93 588 LINE",
"93 366.427 LINE",
"52.7675 354.594 LINE SMOOTH",
"31.3997 348.866 OFFCURVE",
"24 339 OFFCURVE",
"24 321 CURVE SMOOTH",
"24 295 LINE SMOOTH",
"24 276.5 OFFCURVE",
"39.1791 265.116 OFFCURVE",
"61.1208 271.385 CURVE SMOOTH",
"93 280.75 LINE",
"93 89 LINE",
"55 89 LINE SMOOTH",
"38.3687 89 OFFCURVE",
"25 78.305 OFFCURVE",
"25 64 CURVE SMOOTH",
"25 15 LINE SMOOTH",
"25 2.86176 OFFCURVE",
"35.2894 -10 OFFCURVE",
"55 -10 CURVE SMOOTH",
"412.365 -10 LINE",
"410.029 -47 LINE SMOOTH",
"408.701 -62 OFFCURVE",
"422.369 -73 OFFCURVE",
"439 -73 CURVE SMOOTH",
"495 -73 LINE SMOOTH",
"511.631 -73 OFFCURVE",
"525 -62 OFFCURVE",
"525 -48 CURVE SMOOTH",
"525 149 LINE SMOOTH",
"525 161.678 OFFCURVE",
"512.678 174 OFFCURVE",
"495 174 CURVE SMOOTH",
"439 174 LINE SMOOTH",
"422.369 174 OFFCURVE",
"408.701 163.066 OFFCURVE",
"410.062 148.095 CURVE SMOOTH",
"413.42 89 LINE",
"235 89 LINE",
"235 315.598 LINE",
"406.267 366.413 LINE SMOOTH",
"427.6 372.134 OFFCURVE",
"435 382 OFFCURVE",
"435 400 CURVE SMOOTH",
"435 426 LINE SMOOTH",
"435 444.5 OFFCURVE",
"419.821 455.884 OFFCURVE",
"397.879 449.615 CURVE SMOOTH",
"235 401.303 LINE"
);
}
);
width = 525;
}
);
unicode = 0141;
},
{
glyphname = M;
lastChange = "2013-03-20 20:06:28 +0000";
layers = (
{
layerId = "B4B43AB8-DB99-4954-A9F8-B6F89E957C89";
name = Regular;
paths = (
{
closed = 1;
nodes = (
"476 -10 LINE SMOOTH",
"491.136 -10 OFFCURVE",
"506.272 -1 OFFCURVE",
"510.927 10.2861 CURVE SMOOTH",
"679 430.043 LINE",
"679 89 LINE",
"634 89 LINE SMOOTH",
"617.369 89 OFFCURVE",
"604 78.305 OFFCURVE",
"604 64 CURVE SMOOTH",
"604 15 LINE SMOOTH",
"604 2.32233 OFFCURVE",
"616.322 -10 OFFCURVE",
"634 -10 CURVE SMOOTH",
"854 -10 LINE SMOOTH",
"872.678 -10 OFFCURVE",
"884 1.32233 OFFCURVE",
"884 15 CURVE SMOOTH",
"884 64 LINE SMOOTH",
"884 76.6777 OFFCURVE",
"871.678 89 OFFCURVE",
"854 89 CURVE SMOOTH",
"816 89 LINE",
"816 588 LINE",
"854 588 LINE SMOOTH",
"870.631 588 OFFCURVE",
"884 598.695 OFFCURVE",
"884 613 CURVE SMOOTH",
"884 664 LINE SMOOTH",
"884 676.678 OFFCURVE",
"871.678 689 OFFCURVE",
"854 689 CURVE SMOOTH",
"687 689 LINE SMOOTH",
"671.864 689 OFFCURVE",
"656.303 680.108 OFFCURVE",
"652.633 667.873 CURVE",
"456.175 167.633 LINE",
"264.005 668.582 LINE",
"260.697 680.108 OFFCURVE",
"245.136 689 OFFCURVE",
"230 689 CURVE SMOOTH",
"55 689 LINE SMOOTH",
"38.3687 689 OFFCURVE",
"25 678.305 OFFCURVE",
"25 664 CURVE SMOOTH",
"25 613 LINE SMOOTH",
"25 600.322 OFFCURVE",
"37.3223 588 OFFCURVE",
"55 588 CURVE SMOOTH",
"93 588 LINE",
"93 89 LINE",
"55 89 LINE SMOOTH",
"38.3687 89 OFFCURVE",
"25 78.305 OFFCURVE",
"25 64 CURVE SMOOTH",
"25 15 LINE SMOOTH",
"25 2.32233 OFFCURVE",
"37.3223 -10 OFFCURVE",
"55 -10 CURVE SMOOTH",
"258 -10 LINE SMOOTH",
"276.678 -10 OFFCURVE",
"288 1.32233 OFFCURVE",
"288 15 CURVE SMOOTH",
"288 64 LINE SMOOTH",
"288 76.6777 OFFCURVE",
"275.678 89 OFFCURVE",
"258 89 CURVE SMOOTH",
"210 89 LINE",
"210 429.749 LINE",
"375.042 10.3382 LINE SMOOTH",
"379.728 -1 OFFCURVE",
"394.864 -10 OFFCURVE",
"410 -10 CURVE SMOOTH"
);
}
);
width = 909;
}
);
unicode = 004D;
},
{
glyphname = N;
lastChange = "2013-03-20 20:06:29 +0000";
layers = (
{
anchors = (
{
name = bottom;
position = "{372, 0}";
},
{
name = top;
position = "{372, 679}";
}
);
layerId = "B4B43AB8-DB99-4954-A9F8-B6F89E957C89";
name = Regular;
paths = (
{
closed = 1;
nodes = (
"660 588 LINE",
"698 588 LINE SMOOTH",
"714.631 588 OFFCURVE",
"728 598.695 OFFCURVE",
"728 613 CURVE SMOOTH",
"728 664 LINE SMOOTH",
"728 676.678 OFFCURVE",
"715.678 689 OFFCURVE",
"698 689 CURVE SMOOTH",
"505 689 LINE SMOOTH",
"488.369 689 OFFCURVE",
"475 678.305 OFFCURVE",
"475 664 CURVE SMOOTH",
"475 613 LINE SMOOTH",
"475 600.322 OFFCURVE",
"487.322 588 OFFCURVE",
"505 588 CURVE SMOOTH",
"543 588 LINE",
"543 207.33 LINE",
"237.53 671.497 LINE SMOOTH",
"231.205 680.961 OFFCURVE",
"217.136 689 OFFCURVE",
"202 689 CURVE SMOOTH",
"55 689 LINE SMOOTH",
"38.3687 689 OFFCURVE",
"25 678.305 OFFCURVE",
"25 664 CURVE SMOOTH",
"25 613 LINE SMOOTH",
"25 600.322 OFFCURVE",
"37.3223 588 OFFCURVE",
"55 588 CURVE SMOOTH",
"93 588 LINE",
"93 89 LINE",
"55 89 LINE SMOOTH",
"38.3687 89 OFFCURVE",
"25 78.305 OFFCURVE",
"25 64 CURVE SMOOTH",
"25 15 LINE SMOOTH",
"25 2.32233 OFFCURVE",
"37.3223 -10 OFFCURVE",
"55 -10 CURVE SMOOTH",
"278 -10 LINE SMOOTH",
"294.631 -10 OFFCURVE",
"308 0.694971 OFFCURVE",
"308 15 CURVE SMOOTH",
"308 64 LINE SMOOTH",
"308 76.6777 OFFCURVE",
"295.678 89 OFFCURVE",
"278 89 CURVE SMOOTH",
"210 89 LINE",
"210 466.868 LINE",
"521.577 6.39591 LINE",
"526.86 -2 OFFCURVE",
"542.403 -10 OFFCURVE",
"557 -10 CURVE SMOOTH",
"630 -10 LINE SMOOTH",
"647.678 -10 OFFCURVE",
"660 2.32233 OFFCURVE",
"660 15 CURVE SMOOTH"
);
}
);
width = 743;
}
);
unicode = 004E;
},
{
glyphname = Nacute;
lastChange = "2013-03-20 20:06:28 +0000";
layers = (
{
layerId = "B4B43AB8-DB99-4954-A9F8-B6F89E957C89";
name = Regular;
paths = (
{
closed = 1;
nodes = (
"660 588 LINE",
"698 588 LINE SMOOTH",
"714.631 588 OFFCURVE",
"728 598.695 OFFCURVE",
"728 613 CURVE SMOOTH",
"728 664 LINE SMOOTH",
"728 676.678 OFFCURVE",
"715.678 689 OFFCURVE",
"698 689 CURVE SMOOTH",
"505 689 LINE SMOOTH",
"488.369 689 OFFCURVE",
"475 678.305 OFFCURVE",
"475 664 CURVE SMOOTH",
"475 613 LINE SMOOTH",
"475 600.322 OFFCURVE",
"487.322 588 OFFCURVE",
"505 588 CURVE SMOOTH",
"543 588 LINE",
"543 207.33 LINE",
"237.53 671.497 LINE SMOOTH",
"231.205 680.961 OFFCURVE",
"217.136 689 OFFCURVE",
"202 689 CURVE SMOOTH",
"55 689 LINE SMOOTH",
"38.3687 689 OFFCURVE",
"25 678.305 OFFCURVE",
"25 664 CURVE SMOOTH",
"25 613 LINE SMOOTH",
"25 600.322 OFFCURVE",
"37.3223 588 OFFCURVE",
"55 588 CURVE SMOOTH",
"93 588 LINE",
"93 89 LINE",
"55 89 LINE SMOOTH",
"38.3687 89 OFFCURVE",
"25 78.305 OFFCURVE",
"25 64 CURVE SMOOTH",
"25 15 LINE SMOOTH",
"25 2.32233 OFFCURVE",
"37.3223 -10 OFFCURVE",
"55 -10 CURVE SMOOTH",
"278 -10 LINE SMOOTH",
"294.631 -10 OFFCURVE",
"308 0.694971 OFFCURVE",
"308 15 CURVE SMOOTH",
"308 64 LINE SMOOTH",
"308 76.6777 OFFCURVE",
"295.678 89 OFFCURVE",
"278 89 CURVE SMOOTH",
"210 89 LINE",
"210 466.868 LINE",
"521.577 6.39591 LINE",
"526.86 -2 OFFCURVE",
"542.403 -10 OFFCURVE",
"557 -10 CURVE SMOOTH",
"630 -10 LINE SMOOTH",
"647.678 -10 OFFCURVE",
"660 2.32233 OFFCURVE",
"660 15 CURVE SMOOTH"
);
},
{
closed = 1;
nodes = (
"326.368 750.173 LINE",
"320.209 735.055 OFFCURVE",
"330 722 OFFCURVE",
"349 722 CURVE SMOOTH",
"397 722 LINE SMOOTH",
"411.597 722 OFFCURVE",
"427.14 729.771 OFFCURVE",
"432.72 738.7 CURVE",
"502.368 840.342 LINE",
"511.494 852.658 OFFCURVE",
"507.658 868 OFFCURVE",
"484 868 CURVE SMOOTH",
"406 868 LINE SMOOTH",
"390.864 868 OFFCURVE",
"375.728 859.351 OFFCURVE",
"371.073 847.714 CURVE"
);
}
);
width = 743;
}
);
unicode = 0143;
},
{
glyphname = Ncaron;
lastChange = "2013-03-20 20:06:28 +0000";
layers = (
{
layerId = "B4B43AB8-DB99-4954-A9F8-B6F89E957C89";
name = Regular;
paths = (
{
closed = 1;
nodes = (
"660 588 LINE",
"698 588 LINE SMOOTH",
"714.631 588 OFFCURVE",
"728 598.695 OFFCURVE",
"728 613 CURVE SMOOTH",
"728 664 LINE SMOOTH",
"728 676.678 OFFCURVE",
"715.678 689 OFFCURVE",
"698 689 CURVE SMOOTH",
"505 689 LINE SMOOTH",
"488.369 689 OFFCURVE",
"475 678.305 OFFCURVE",
"475 664 CURVE SMOOTH",
"475 613 LINE SMOOTH",
"475 600.322 OFFCURVE",
"487.322 588 OFFCURVE",
"505 588 CURVE SMOOTH",
"543 588 LINE",
"543 207.33 LINE",
"237.53 671.497 LINE SMOOTH",
"231.205 680.961 OFFCURVE",
"217.136 689 OFFCURVE",
"202 689 CURVE SMOOTH",
"55 689 LINE SMOOTH",
"38.3687 689 OFFCURVE",
"25 678.305 OFFCURVE",
"25 664 CURVE SMOOTH",
"25 613 LINE SMOOTH",
"25 600.322 OFFCURVE",
"37.3223 588 OFFCURVE",
"55 588 CURVE SMOOTH",
"93 588 LINE",
"93 89 LINE",
"55 89 LINE SMOOTH",
"38.3687 89 OFFCURVE",
"25 78.305 OFFCURVE",
"25 64 CURVE SMOOTH",
"25 15 LINE SMOOTH",
"25 2.32233 OFFCURVE",
"37.3223 -10 OFFCURVE",
"55 -10 CURVE SMOOTH",
"278 -10 LINE SMOOTH",
"294.631 -10 OFFCURVE",
"308 0.694971 OFFCURVE",
"308 15 CURVE SMOOTH",
"308 64 LINE SMOOTH",
"308 76.6777 OFFCURVE",
"295.678 89 OFFCURVE",
"278 89 CURVE SMOOTH",
"210 89 LINE",
"210 466.868 LINE",
"521.577 6.39591 LINE",
"526.86 -2 OFFCURVE",
"542.403 -10 OFFCURVE",
"557 -10 CURVE SMOOTH",
"630 -10 LINE SMOOTH",
"647.678 -10 OFFCURVE",
"660 2.32233 OFFCURVE",
"660 15 CURVE SMOOTH"
);
},
{
closed = 1;
nodes = (
"464 873 LINE SMOOTH",
"449.403 873 OFFCURVE",
"434.358 865.477 OFFCURVE",
"428 857 CURVE SMOOTH",
"382.885 800.687 LINE",
"336.617 857.326 LINE SMOOTH",
"329.007 867.211 OFFCURVE",
"313.569 873 OFFCURVE",
"300 873 CURVE SMOOTH",
"243 873 LINE SMOOTH",
"220.348 873 OFFCURVE",
"213.809 859.922 OFFCURVE",
"225 845 CURVE SMOOTH",
"307.094 737.917 LINE SMOOTH",
"313.358 729.523 OFFCURVE",
"328.403 722 OFFCURVE",
"343 722 CURVE SMOOTH",
"419 722 LINE SMOOTH",
"433.597 722 OFFCURVE",
"448.642 729.523 OFFCURVE",
"455 738 CURVE SMOOTH",
"536.906 844.917 LINE SMOOTH",
"548.191 859.922 OFFCURVE",
"541.652 873 OFFCURVE",
"519 873 CURVE SMOOTH"
);
}
);
width = 743;
}
);
unicode = 0147;
},
{
glyphname = Ncommaaccent;
lastChange = "2013-03-20 20:06:28 +0000";
layers = (
{
layerId = "B4B43AB8-DB99-4954-A9F8-B6F89E957C89";
name = Regular;
paths = (
{
closed = 1;
nodes = (
"660 588 LINE",
"698 588 LINE SMOOTH",
"714.631 588 OFFCURVE",
"728 598.695 OFFCURVE",
"728 613 CURVE SMOOTH",
"728 664 LINE SMOOTH",
"728 676.678 OFFCURVE",
"715.678 689 OFFCURVE",
"698 689 CURVE SMOOTH",
"505 689 LINE SMOOTH",
"488.369 689 OFFCURVE",
"475 678.305 OFFCURVE",
"475 664 CURVE SMOOTH",
"475 613 LINE SMOOTH",
"475 600.322 OFFCURVE",
"487.322 588 OFFCURVE",
"505 588 CURVE SMOOTH",
"543 588 LINE",
"543 207.33 LINE",
"237.53 671.497 LINE SMOOTH",
"231.205 680.961 OFFCURVE",
"217.136 689 OFFCURVE",
"202 689 CURVE SMOOTH",
"55 689 LINE SMOOTH",
"38.3687 689 OFFCURVE",
"25 678.305 OFFCURVE",
"25 664 CURVE SMOOTH",
"25 613 LINE SMOOTH",
"25 600.322 OFFCURVE",
"37.3223 588 OFFCURVE",
"55 588 CURVE SMOOTH",
"93 588 LINE",
"93 89 LINE",
"55 89 LINE SMOOTH",
"38.3687 89 OFFCURVE",
"25 78.305 OFFCURVE",
"25 64 CURVE SMOOTH",
"25 15 LINE SMOOTH",
"25 2.32233 OFFCURVE",
"37.3223 -10 OFFCURVE",
"55 -10 CURVE SMOOTH",
"278 -10 LINE SMOOTH",
"294.631 -10 OFFCURVE",
"308 0.694971 OFFCURVE",
"308 15 CURVE SMOOTH",
"308 64 LINE SMOOTH",
"308 76.6777 OFFCURVE",
"295.678 89 OFFCURVE",
"278 89 CURVE SMOOTH",
"210 89 LINE",
"210 466.868 LINE",
"521.577 6.39591 LINE",
"526.86 -2 OFFCURVE",
"542.403 -10 OFFCURVE",
"557 -10 CURVE SMOOTH",
"630 -10 LINE SMOOTH",
"647.678 -10 OFFCURVE",
"660 2.32233 OFFCURVE",
"660 15 CURVE SMOOTH"
);
},
{
closed = 1;
nodes = (
"419.547 -217 LINE SMOOTH",
"441.967 -181 OFFCURVE",
"458 -155 OFFCURVE",
"458 -123 CURVE SMOOTH",
"458 -83 OFFCURVE",
"426.266 -60 OFFCURVE",
"383 -60 CURVE SMOOTH",
"336.854 -60 OFFCURVE",
"311 -89 OFFCURVE",
"311 -120 CURVE SMOOTH",
"311 -150 OFFCURVE",
"328.326 -169 OFFCURVE",
"340.37 -184 CURVE",
"319.655 -252 LINE",
"315.808 -263 OFFCURVE",
"318.126 -274 OFFCURVE",
"334.733 -280 CURVE",
"346.231 -285 LINE SMOOTH",
"358.746 -291 OFFCURVE",
"375.388 -284 OFFCURVE",
"381.206 -276 CURVE"
);
}
);
width = 743;
}
);
unicode = 0145;
},
{
glyphname = Eng;
lastChange = "2013-03-20 20:06:28 +0000";
layers = (
{
layerId = "B4B43AB8-DB99-4954-A9F8-B6F89E957C89";
name = Regular;
paths = (
{
closed = 1;
nodes = (
"660 588 LINE",
"698 588 LINE SMOOTH",
"714.631 588 OFFCURVE",
"728 598.695 OFFCURVE",
"728 613 CURVE SMOOTH",
"728 664 LINE SMOOTH",
"728 676.678 OFFCURVE",
"715.678 689 OFFCURVE",
"698 689 CURVE SMOOTH",
"505 689 LINE SMOOTH",
"488.369 689 OFFCURVE",
"475 678.305 OFFCURVE",
"475 664 CURVE SMOOTH",
"475 613 LINE SMOOTH",
"475 600.322 OFFCURVE",
"487.322 588 OFFCURVE",
"505 588 CURVE SMOOTH",
"543 588 LINE",
"543 207.33 LINE",
"237.53 671.497 LINE SMOOTH",
"231.205 680.961 OFFCURVE",
"217.136 689 OFFCURVE",
"202 689 CURVE SMOOTH",
"55 689 LINE SMOOTH",
"38.3687 689 OFFCURVE",
"25 678.305 OFFCURVE",
"25 664 CURVE SMOOTH",
"25 613 LINE SMOOTH",
"25 600.322 OFFCURVE",
"37.3223 588 OFFCURVE",
"55 588 CURVE SMOOTH",
"93 588 LINE",
"93 89 LINE",
"55 89 LINE SMOOTH",
"38.3687 89 OFFCURVE",
"25 78.305 OFFCURVE",
"25 64 CURVE SMOOTH",
"25 15 LINE SMOOTH",
"25 2.32233 OFFCURVE",
"37.3223 -10 OFFCURVE",
"55 -10 CURVE SMOOTH",
"278 -10 LINE SMOOTH",
"294.631 -10 OFFCURVE",
"308 0.694971 OFFCURVE",
"308 15 CURVE SMOOTH",
"308 64 LINE SMOOTH",
"308 76.6777 OFFCURVE",
"295.678 89 OFFCURVE",
"278 89 CURVE SMOOTH",
"210 89 LINE",
"210 466.827 LINE",
"518 11.2058 LINE",
"518 -34 LINE SMOOTH",
"518 -116 OFFCURVE",
"497.559 -139 OFFCURVE",
"446 -139 CURVE SMOOTH",
"425.766 -139 OFFCURVE",
"409.204 -137 OFFCURVE",
"389.755 -130 CURVE",
"368.829 -124 OFFCURVE",
"351.103 -130 OFFCURVE",
"344.874 -148 CURVE SMOOTH",
"329.77 -193 LINE SMOOTH",
"323.632 -210 OFFCURVE",
"328.058 -221 OFFCURVE",
"349.091 -230 CURVE",
"384.112 -242 OFFCURVE",
"430.388 -250 OFFCURVE",
"468 -250 CURVE SMOOTH",
"617.116 -250 OFFCURVE",
"660 -152 OFFCURVE",
"660 -41 CURVE SMOOTH"
);
}
);
width = 743;
}
);
unicode = 014A;
},
{
glyphname = Ntilde;
lastChange = "2013-03-20 20:06:28 +0000";
layers = (
{
layerId = "B4B43AB8-DB99-4954-A9F8-B6F89E957C89";
name = Regular;
paths = (
{
closed = 1;
nodes = (
"660 588 LINE",
"698 588 LINE SMOOTH",
"714.631 588 OFFCURVE",
"728 598.695 OFFCURVE",
"728 613 CURVE SMOOTH",
"728 664 LINE SMOOTH",
"728 676.678 OFFCURVE",
"715.678 689 OFFCURVE",
"698 689 CURVE SMOOTH",
"505 689 LINE SMOOTH",
"488.369 689 OFFCURVE",
"475 678.305 OFFCURVE",
"475 664 CURVE SMOOTH",
"475 613 LINE SMOOTH",
"475 600.322 OFFCURVE",
"487.322 588 OFFCURVE",
"505 588 CURVE SMOOTH",
"543 588 LINE",
"543 207.33 LINE",
"237.53 671.497 LINE SMOOTH",
"231.205 680.961 OFFCURVE",
"217.136 689 OFFCURVE",
"202 689 CURVE SMOOTH",
"55 689 LINE SMOOTH",
"38.3687 689 OFFCURVE",
"25 678.305 OFFCURVE",
"25 664 CURVE SMOOTH",
"25 613 LINE SMOOTH",
"25 600.322 OFFCURVE",
"37.3223 588 OFFCURVE",
"55 588 CURVE SMOOTH",
"93 588 LINE",
"93 89 LINE",
"55 89 LINE SMOOTH",
"38.3687 89 OFFCURVE",
"25 78.305 OFFCURVE",
"25 64 CURVE SMOOTH",
"25 15 LINE SMOOTH",
"25 2.32233 OFFCURVE",
"37.3223 -10 OFFCURVE",
"55 -10 CURVE SMOOTH",
"278 -10 LINE SMOOTH",
"294.631 -10 OFFCURVE",
"308 0.694971 OFFCURVE",
"308 15 CURVE SMOOTH",
"308 64 LINE SMOOTH",
"308 76.6777 OFFCURVE",
"295.678 89 OFFCURVE",
"278 89 CURVE SMOOTH",
"210 89 LINE",
"210 466.868 LINE",
"521.577 6.39591 LINE",
"526.86 -2 OFFCURVE",
"542.403 -10 OFFCURVE",
"557 -10 CURVE SMOOTH",
"630 -10 LINE SMOOTH",
"647.678 -10 OFFCURVE",
"660 2.32233 OFFCURVE",
"660 15 CURVE SMOOTH"
);
},
{
closed = 1;
nodes = (
"241.729 868 OFFCURVE",
"186 849.002 OFFCURVE",
"186 764 CURVE SMOOTH",
"186 753.968 OFFCURVE",
"191.587 740 OFFCURVE",
"213 740 CURVE SMOOTH",
"244 740 LINE SMOOTH",
"258.597 740 OFFCURVE",
"271 746.202 OFFCURVE",
"271 760 CURVE SMOOTH",
"271 770.984 OFFCURVE",
"272.596 772 OFFCURVE",
"286 772 CURVE SMOOTH",
"316.826 772 OFFCURVE",
"401.826 734 OFFCURVE",
"465 734 CURVE SMOOTH",
"511.501 734 OFFCURVE",
"556 768.611 OFFCURVE",
"556 843 CURVE SMOOTH",
"556 853.032 OFFCURVE",
"550.413 867 OFFCURVE",
"529 867 CURVE SMOOTH",
"505 867 LINE SMOOTH",
"491.217 867 OFFCURVE",
"475 860.513 OFFCURVE",
"475 844 CURVE SMOOTH",
"475 827.394 OFFCURVE",
"473.029 827 OFFCURVE",
"456 827 CURVE SMOOTH",
"413.55 827 OFFCURVE",
"330.55 868 OFFCURVE",
"274 868 CURVE SMOOTH"
);
}
);
width = 743;
}
);
unicode = 00D1;
},
{
glyphname = O;
lastChange = "2013-03-20 20:06:29 +0000";
layers = (
{
anchors = (
{
name = top;
position = "{346, 679}";
}
);
layerId = "B4B43AB8-DB99-4954-A9F8-B6F89E957C89";
name = Regular;
paths = (
{
closed = 1;
nodes = (
"28 101.505 OFFCURVE",
"142.988 -22 OFFCURVE",
"333 -22 CURVE SMOOTH",
"517.141 -22 OFFCURVE",
"664 109.011 OFFCURVE",
"664 361 CURVE SMOOTH",
"664 666.464 OFFCURVE",
"459.911 706 OFFCURVE",
"354 706 CURVE SMOOTH",
"221.862 706 OFFCURVE",
"28 620.192 OFFCURVE",
"28 333 CURVE SMOOTH"
);
},
{
closed = 1;
nodes = (
"199.795 92 OFFCURVE",
"178 249.352 OFFCURVE",
"178 368 CURVE SMOOTH",
"178 491.942 OFFCURVE",
"221.459 598 OFFCURVE",
"342 598 CURVE SMOOTH",
"464.528 598 OFFCURVE",
"509 488.951 OFFCURVE",
"509 342 CURVE SMOOTH",
"509 194.168 OFFCURVE",
"462.868 92 OFFCURVE",
"345 92 CURVE SMOOTH"
);
}
);
width = 692;
}
);
unicode = 004F;
},
{
glyphname = Oacute;
lastChange = "2013-03-20 20:06:28 +0000";
layers = (
{
layerId = "B4B43AB8-DB99-4954-A9F8-B6F89E957C89";
name = Regular;
paths = (
{
closed = 1;
nodes = (
"28 101.505 OFFCURVE",
"142.988 -22 OFFCURVE",
"333 -22 CURVE SMOOTH",
"517.141 -22 OFFCURVE",
"664 109.011 OFFCURVE",
"664 361 CURVE SMOOTH",
"664 666.464 OFFCURVE",
"459.911 706 OFFCURVE",
"354 706 CURVE SMOOTH",
"221.862 706 OFFCURVE",
"28 620.192 OFFCURVE",
"28 333 CURVE SMOOTH"
);
},
{
closed = 1;
nodes = (
"199.795 92 OFFCURVE",
"178 249.352 OFFCURVE",
"178 368 CURVE SMOOTH",
"178 491.942 OFFCURVE",
"221.459 598 OFFCURVE",
"342 598 CURVE SMOOTH",
"464.528 598 OFFCURVE",
"509 488.951 OFFCURVE",
"509 342 CURVE SMOOTH",
"509 194.168 OFFCURVE",
"462.868 92 OFFCURVE",
"345 92 CURVE SMOOTH"
);
},
{
closed = 1;
nodes = (
"301.368 750.173 LINE",
"295.209 735.055 OFFCURVE",
"305 722 OFFCURVE",
"324 722 CURVE SMOOTH",
"372 722 LINE SMOOTH",
"386.597 722 OFFCURVE",
"402.14 729.771 OFFCURVE",
"407.72 738.7 CURVE",
"477.368 840.342 LINE",
"486.494 852.658 OFFCURVE",
"482.658 868 OFFCURVE",
"459 868 CURVE SMOOTH",
"381 868 LINE SMOOTH",
"365.864 868 OFFCURVE",
"350.728 859.351 OFFCURVE",
"346.073 847.714 CURVE"
);
}
);
width = 692;
}
);
unicode = 00D3;
},
{
glyphname = Obreve;
lastChange = "2013-03-20 20:06:28 +0000";
layers = (
{
layerId = "B4B43AB8-DB99-4954-A9F8-B6F89E957C89";
name = Regular;
paths = (
{
closed = 1;
nodes = (
"28 101.505 OFFCURVE",
"142.988 -22 OFFCURVE",
"333 -22 CURVE SMOOTH",
"517.141 -22 OFFCURVE",
"664 109.011 OFFCURVE",
"664 361 CURVE SMOOTH",
"664 666.464 OFFCURVE",
"459.911 706 OFFCURVE",
"354 706 CURVE SMOOTH",
"221.862 706 OFFCURVE",
"28 620.192 OFFCURVE",
"28 333 CURVE SMOOTH"
);
},
{
closed = 1;
nodes = (
"199.795 92 OFFCURVE",
"178 249.352 OFFCURVE",
"178 368 CURVE SMOOTH",
"178 491.942 OFFCURVE",
"221.459 598 OFFCURVE",
"342 598 CURVE SMOOTH",
"464.528 598 OFFCURVE",
"509 488.951 OFFCURVE",
"509 342 CURVE SMOOTH",
"509 194.168 OFFCURVE",
"462.868 92 OFFCURVE",
"345 92 CURVE SMOOTH"
);
},
{
closed = 1;
nodes = (
"307.127 821 OFFCURVE",
"290.86 830.196 OFFCURVE",
"284.552 855.425 CURVE SMOOTH",
"280.118 873.161 OFFCURVE",
"268.333 882 OFFCURVE",
"246 882 CURVE SMOOTH",
"214 882 LINE SMOOTH",
"191.322 882 OFFCURVE",
"180 870.678 OFFCURVE",
"180 853 CURVE SMOOTH",
"182.091 775.57 OFFCURVE",
"246.452 725 OFFCURVE",
"358 725 CURVE SMOOTH",
"463.051 725 OFFCURVE",
"532.704 774.1 OFFCURVE",
"538.952 852.203 CURVE SMOOTH",
"540.178 870.5 OFFCURVE",
"528.678 882 OFFCURVE",
"506 882 CURVE SMOOTH",
"475 882 LINE SMOOTH",
"453.658 882 OFFCURVE",
"440.311 873.992 OFFCURVE",
"434.683 855.983 CURVE SMOOTH",
"425.781 827.498 OFFCURVE",
"407.586 821 OFFCURVE",
"361 821 CURVE SMOOTH"
);
}
);
width = 692;
}
);
unicode = 014E;
},
{
glyphname = Ocircumflex;
lastChange = "2013-03-20 20:06:28 +0000";
layers = (
{
layerId = "B4B43AB8-DB99-4954-A9F8-B6F89E957C89";
name = Regular;
paths = (
{
closed = 1;
nodes = (
"28 101.505 OFFCURVE",
"142.988 -22 OFFCURVE",
"333 -22 CURVE SMOOTH",
"517.141 -22 OFFCURVE",
"664 109.011 OFFCURVE",
"664 361 CURVE SMOOTH",
"664 666.464 OFFCURVE",
"459.911 706 OFFCURVE",
"354 706 CURVE SMOOTH",
"221.862 706 OFFCURVE",
"28 620.192 OFFCURVE",
"28 333 CURVE SMOOTH"
);
},
{
closed = 1;
nodes = (
"199.795 92 OFFCURVE",
"178 249.352 OFFCURVE",
"178 368 CURVE SMOOTH",
"178 491.942 OFFCURVE",
"221.459 598 OFFCURVE",
"342 598 CURVE SMOOTH",
"464.528 598 OFFCURVE",
"509 488.951 OFFCURVE",
"509 342 CURVE SMOOTH",
"509 194.168 OFFCURVE",
"462.868 92 OFFCURVE",
"345 92 CURVE SMOOTH"
);
},
{
closed = 1;
nodes = (
"273 722 LINE SMOOTH",
"287.597 722 OFFCURVE",
"302.642 729.523 OFFCURVE",
"309 738 CURVE SMOOTH",
"354.115 794.313 LINE",
"400.383 737.674 LINE SMOOTH",
"407.993 727.789 OFFCURVE",
"423.431 722 OFFCURVE",
"437 722 CURVE SMOOTH",
"494 722 LINE SMOOTH",
"516.652 722 OFFCURVE",
"523.191 735.078 OFFCURVE",
"512 750 CURVE SMOOTH",
"429.906 857.083 LINE SMOOTH",
"423.642 865.477 OFFCURVE",
"408.597 873 OFFCURVE",
"394 873 CURVE SMOOTH",
"318 873 LINE SMOOTH",
"303.403 873 OFFCURVE",
"288.358 865.477 OFFCURVE",
"282 857 CURVE SMOOTH",
"200.094 750.083 LINE SMOOTH",
"188.809 735.078 OFFCURVE",
"195.348 722 OFFCURVE",
"218 722 CURVE SMOOTH"
);
}
);
width = 692;
}
);
unicode = 00D4;
},
{
glyphname = Odieresis;
lastChange = "2013-03-20 20:06:28 +0000";
layers = (
{
layerId = "B4B43AB8-DB99-4954-A9F8-B6F89E957C89";
name = Regular;
paths = (
{
closed = 1;
nodes = (
"28 101.505 OFFCURVE",
"142.988 -22 OFFCURVE",
"333 -22 CURVE SMOOTH",
"517.141 -22 OFFCURVE",
"664 109.011 OFFCURVE",
"664 361 CURVE SMOOTH",
"664 666.464 OFFCURVE",
"459.911 706 OFFCURVE",
"354 706 CURVE SMOOTH",
"221.862 706 OFFCURVE",
"28 620.192 OFFCURVE",
"28 333 CURVE SMOOTH"
);
},
{
closed = 1;
nodes = (
"199.795 92 OFFCURVE",
"178 249.352 OFFCURVE",
"178 368 CURVE SMOOTH",
"178 491.942 OFFCURVE",
"221.459 598 OFFCURVE",
"342 598 CURVE SMOOTH",
"464.528 598 OFFCURVE",
"509 488.951 OFFCURVE",
"509 342 CURVE SMOOTH",
"509 194.168 OFFCURVE",
"462.868 92 OFFCURVE",
"345 92 CURVE SMOOTH"
);
},
{
closed = 1;
nodes = (
"487.548 728 OFFCURVE",
"524 756.641 OFFCURVE",
"524 800 CURVE SMOOTH",
"524 841.924 OFFCURVE",
"493.25 870 OFFCURVE",
"447 870 CURVE SMOOTH",
"404.107 870 OFFCURVE",
"370 841.14 OFFCURVE",
"370 800 CURVE SMOOTH",
"370 758.097 OFFCURVE",
"402.714 728 OFFCURVE",
"447 728 CURVE SMOOTH"
);
},
{
closed = 1;
nodes = (
"284.548 728 OFFCURVE",
"321 756.641 OFFCURVE",
"321 800 CURVE SMOOTH",
"321 841.924 OFFCURVE",
"290.25 870 OFFCURVE",
"244 870 CURVE SMOOTH",
"201.107 870 OFFCURVE",
"167 841.14 OFFCURVE",
"167 800 CURVE SMOOTH",
"167 758.097 OFFCURVE",
"199.714 728 OFFCURVE",
"244 728 CURVE SMOOTH"
);
}
);
width = 692;
}
);
unicode = 00D6;
},
{
glyphname = Ograve;
lastChange = "2013-03-20 20:06:28 +0000";
layers = (
{
layerId = "B4B43AB8-DB99-4954-A9F8-B6F89E957C89";
name = Regular;
paths = (
{
closed = 1;
nodes = (
"28 101.505 OFFCURVE",
"142.988 -22 OFFCURVE",
"333 -22 CURVE SMOOTH",
"517.141 -22 OFFCURVE",
"664 109.011 OFFCURVE",
"664 361 CURVE SMOOTH",
"664 666.464 OFFCURVE",
"459.911 706 OFFCURVE",
"354 706 CURVE SMOOTH",
"221.862 706 OFFCURVE",
"28 620.192 OFFCURVE",
"28 333 CURVE SMOOTH"
);
},
{
closed = 1;
nodes = (
"199.795 92 OFFCURVE",
"178 249.352 OFFCURVE",
"178 368 CURVE SMOOTH",
"178 491.942 OFFCURVE",
"221.459 598 OFFCURVE",
"342 598 CURVE SMOOTH",
"464.528 598 OFFCURVE",
"509 488.951 OFFCURVE",
"509 342 CURVE SMOOTH",
"509 194.168 OFFCURVE",
"462.868 92 OFFCURVE",
"345 92 CURVE SMOOTH"
);
},
{
closed = 1;
nodes = (
"377.701 845.071 LINE",
"370.244 859.817 OFFCURVE",
"359.333 868 OFFCURVE",
"337 868 CURVE SMOOTH",
"267 868 LINE SMOOTH",
"240.348 868 OFFCURVE",
"233.863 855 OFFCURVE",
"246.869 837.118 CURVE SMOOTH",
"311.579 741.393 LINE",
"321.358 728.523 OFFCURVE",
"334.403 722 OFFCURVE",
"354 722 CURVE SMOOTH",
"394 722 LINE SMOOTH",
"417 722 OFFCURVE",
"426.914 735.219 OFFCURVE",
"418.619 753.191 CURVE SMOOTH"
);
}
);
width = 692;
}
);
unicode = 00D2;
},
{
glyphname = Ohungarumlaut;
lastChange = "2013-03-20 20:06:28 +0000";
layers = (
{
layerId = "B4B43AB8-DB99-4954-A9F8-B6F89E957C89";
name = Regular;
paths = (
{
closed = 1;
nodes = (
"28 101.505 OFFCURVE",
"142.988 -22 OFFCURVE",
"333 -22 CURVE SMOOTH",
"517.141 -22 OFFCURVE",
"664 109.011 OFFCURVE",
"664 361 CURVE SMOOTH",
"664 666.464 OFFCURVE",
"459.911 706 OFFCURVE",
"354 706 CURVE SMOOTH",
"221.862 706 OFFCURVE",
"28 620.192 OFFCURVE",
"28 333 CURVE SMOOTH"
);
},
{
closed = 1;
nodes = (
"199.795 92 OFFCURVE",
"178 249.352 OFFCURVE",
"178 368 CURVE SMOOTH",
"178 491.942 OFFCURVE",
"221.459 598 OFFCURVE",
"342 598 CURVE SMOOTH",
"464.528 598 OFFCURVE",
"509 488.951 OFFCURVE",
"509 342 CURVE SMOOTH",
"509 194.168 OFFCURVE",
"462.868 92 OFFCURVE",
"345 92 CURVE SMOOTH"
);
},
{
closed = 1;
nodes = (
"381.368 750.173 LINE",
"375.209 735.055 OFFCURVE",
"385 722 OFFCURVE",
"404 722 CURVE SMOOTH",
"442 722 LINE SMOOTH",
"456.597 722 OFFCURVE",
"472.14 729.771 OFFCURVE",
"477.72 738.7 CURVE",
"547.368 840.342 LINE",
"556.494 852.658 OFFCURVE",
"552.658 868 OFFCURVE",
"529 868 CURVE SMOOTH",
"461 868 LINE SMOOTH",
"445.864 868 OFFCURVE",
"430.728 859.351 OFFCURVE",
"426.073 847.714 CURVE"
);
},
{
closed = 1;
nodes = (
"247.368 750.173 LINE",
"241.209 735.055 OFFCURVE",
"251 722 OFFCURVE",
"270 722 CURVE SMOOTH",
"308 722 LINE SMOOTH",
"322.597 722 OFFCURVE",
"338.14 729.771 OFFCURVE",
"343.72 738.7 CURVE",
"413.368 840.342 LINE",
"422.494 852.658 OFFCURVE",
"418.658 868 OFFCURVE",
"395 868 CURVE SMOOTH",
"327 868 LINE SMOOTH",
"311.864 868 OFFCURVE",
"296.728 859.351 OFFCURVE",
"292.073 847.714 CURVE"
);
}
);
width = 692;
}
);
unicode = 0150;
},
{
glyphname = Omacron;
lastChange = "2013-03-20 20:06:28 +0000";
layers = (
{
layerId = "B4B43AB8-DB99-4954-A9F8-B6F89E957C89";
name = Regular;
paths = (
{
closed = 1;
nodes = (
"28 101.505 OFFCURVE",
"142.988 -22 OFFCURVE",
"333 -22 CURVE SMOOTH",
"517.141 -22 OFFCURVE",
"664 109.011 OFFCURVE",
"664 361 CURVE SMOOTH",
"664 666.464 OFFCURVE",
"459.911 706 OFFCURVE",
"354 706 CURVE SMOOTH",
"221.862 706 OFFCURVE",
"28 620.192 OFFCURVE",
"28 333 CURVE SMOOTH"
);
},
{
closed = 1;
nodes = (
"199.795 92 OFFCURVE",
"178 249.352 OFFCURVE",
"178 368 CURVE SMOOTH",
"178 491.942 OFFCURVE",
"221.459 598 OFFCURVE",
"342 598 CURVE SMOOTH",
"464.528 598 OFFCURVE",
"509 488.951 OFFCURVE",
"509 342 CURVE SMOOTH",
"509 194.168 OFFCURVE",
"462.868 92 OFFCURVE",
"345 92 CURVE SMOOTH"
);
},
{
closed = 1;
nodes = (
"476 750 LINE SMOOTH",
"498.678 750 OFFCURVE",
"510 761.322 OFFCURVE",
"510 779 CURVE SMOOTH",
"510 822 LINE SMOOTH",
"510 839.678 OFFCURVE",
"498.678 851 OFFCURVE",
"476 851 CURVE SMOOTH",
"216 851 LINE SMOOTH",
"193.322 851 OFFCURVE",
"182 839.678 OFFCURVE",
"182 822 CURVE SMOOTH",
"182 779 LINE SMOOTH",
"182 761.322 OFFCURVE",
"193.322 750 OFFCURVE",
"216 750 CURVE SMOOTH"
);
}
);
width = 692;
}
);
unicode = 014C;
},
{
glyphname = Oslash;
lastChange = "2013-03-20 20:06:29 +0000";
layers = (
{
anchors = (
{
name = top;
position = "{346, 679}";
}
);
layerId = "B4B43AB8-DB99-4954-A9F8-B6F89E957C89";
name = Regular;
paths = (
{
closed = 1;
nodes = (
"28 177.032 OFFCURVE",
"78.7281 69.4522 OFFCURVE",
"172.332 15.4726 CURVE",
"142.942 -64 LINE SMOOTH",
"136.294 -82 OFFCURVE",
"146 -95 OFFCURVE",
"170 -95 CURVE SMOOTH",
"200 -95 LINE SMOOTH",
"222.333 -95 OFFCURVE",
"233.824 -86 OFFCURVE",
"239.23 -70 CURVE SMOOTH",
"259.522 -15 LINE",
"282.263 -20 OFFCURVE",
"307.469 -22 OFFCURVE",
"333 -22 CURVE SMOOTH",
"517.141 -22 OFFCURVE",
"664 109.011 OFFCURVE",
"664 361 CURVE SMOOTH",
"664 539.714 OFFCURVE",
"593.253 628.424 OFFCURVE",
"512.77 670.858 CURVE",
"538.075 739.543 LINE SMOOTH",
"544.706 758.059 OFFCURVE",
"535 771 OFFCURVE",
"511 771 CURVE SMOOTH",
"480 771 LINE SMOOTH",
"457.667 771 OFFCURVE",
"446.176 762.382 OFFCURVE",
"440.77 746.162 CURVE",
"423.338 700.344 LINE",
"398.547 704.471 OFFCURVE",
"374.024 706 OFFCURVE",
"354 706 CURVE SMOOTH",
"221.862 706 OFFCURVE",
"28 620.192 OFFCURVE",
"28 333 CURVE SMOOTH"
);
},
{
closed = 1;
nodes = (
"328.918 92 OFFCURVE",
"314.792 93.9598 OFFCURVE",
"301.401 97.5656 CURVE",
"463.586 537.516 LINE",
"495.268 492.24 OFFCURVE",
"509 422.777 OFFCURVE",
"509 342 CURVE SMOOTH",
"509 194.168 OFFCURVE",
"462.868 92 OFFCURVE",
"345 92 CURVE SMOOTH"
);
},
{
closed = 1;
nodes = (
"178 491.942 OFFCURVE",
"221.459 598 OFFCURVE",
"342 598 CURVE SMOOTH",
"357.597 598 OFFCURVE",
"371.093 596.536 OFFCURVE",
"384.519 593.217 CURVE",
"222.651 154.126 LINE",
"185.616 209.667 OFFCURVE",
"178 295.727 OFFCURVE",
"178 368 CURVE SMOOTH"
);
}
);
width = 692;
}
);
unicode = 00D8;
},
{
glyphname = Oslashacute;
lastChange = "2013-03-20 20:06:28 +0000";
layers = (
{
layerId = "B4B43AB8-DB99-4954-A9F8-B6F89E957C89";
name = Regular;
paths = (
{
closed = 1;
nodes = (
"28 177.032 OFFCURVE",
"78.7281 69.4522 OFFCURVE",
"172.332 15.4726 CURVE",
"142.942 -64 LINE SMOOTH",
"136.294 -82 OFFCURVE",
"146 -95 OFFCURVE",
"170 -95 CURVE SMOOTH",
"200 -95 LINE SMOOTH",
"222.333 -95 OFFCURVE",
"233.824 -86 OFFCURVE",
"239.23 -70 CURVE SMOOTH",
"259.522 -15 LINE",
"282.263 -20 OFFCURVE",
"307.469 -22 OFFCURVE",
"333 -22 CURVE SMOOTH",
"517.141 -22 OFFCURVE",
"664 109.011 OFFCURVE",
"664 361 CURVE SMOOTH",
"664 539.714 OFFCURVE",
"593.253 628.424 OFFCURVE",
"512.77 670.858 CURVE",
"538.075 739.543 LINE SMOOTH",
"544.706 758.059 OFFCURVE",
"535 771 OFFCURVE",
"511 771 CURVE SMOOTH",
"480 771 LINE SMOOTH",
"457.667 771 OFFCURVE",
"446.176 762.382 OFFCURVE",
"440.77 746.162 CURVE",
"423.338 700.344 LINE",
"398.547 704.471 OFFCURVE",
"374.024 706 OFFCURVE",
"354 706 CURVE SMOOTH",
"221.862 706 OFFCURVE",
"28 620.192 OFFCURVE",
"28 333 CURVE SMOOTH"
);
},
{
closed = 1;
nodes = (
"328.918 92 OFFCURVE",
"314.792 93.9598 OFFCURVE",
"301.401 97.5656 CURVE",
"463.586 537.516 LINE",
"495.268 492.24 OFFCURVE",
"509 422.777 OFFCURVE",
"509 342 CURVE SMOOTH",
"509 194.168 OFFCURVE",
"462.868 92 OFFCURVE",
"345 92 CURVE SMOOTH"
);
},
{
closed = 1;
nodes = (
"178 491.942 OFFCURVE",
"221.459 598 OFFCURVE",
"342 598 CURVE SMOOTH",
"357.597 598 OFFCURVE",
"371.093 596.536 OFFCURVE",
"384.519 593.217 CURVE",
"222.651 154.126 LINE",
"185.616 209.667 OFFCURVE",
"178 295.727 OFFCURVE",
"178 368 CURVE SMOOTH"
);
},
{
closed = 1;
nodes = (
"287.368 750.173 LINE",
"281.209 735.055 OFFCURVE",
"291 722 OFFCURVE",
"310 722 CURVE SMOOTH",
"358 722 LINE SMOOTH",
"372.597 722 OFFCURVE",
"388.14 729.771 OFFCURVE",
"393.72 738.7 CURVE",
"463.368 840.342 LINE",
"472.494 852.658 OFFCURVE",
"468.658 868 OFFCURVE",
"445 868 CURVE SMOOTH",
"367 868 LINE SMOOTH",
"351.864 868 OFFCURVE",
"336.728 859.351 OFFCURVE",
"332.073 847.714 CURVE"
);
}
);
width = 692;
}
);
unicode = 01FE;
},
{
glyphname = Otilde;
lastChange = "2013-03-20 20:06:28 +0000";
layers = (
{
layerId = "B4B43AB8-DB99-4954-A9F8-B6F89E957C89";
name = Regular;
paths = (
{
closed = 1;
nodes = (
"28 101.505 OFFCURVE",
"142.988 -22 OFFCURVE",
"333 -22 CURVE SMOOTH",
"517.141 -22 OFFCURVE",
"664 109.011 OFFCURVE",
"664 361 CURVE SMOOTH",
"664 666.464 OFFCURVE",
"459.911 706 OFFCURVE",
"354 706 CURVE SMOOTH",
"221.862 706 OFFCURVE",
"28 620.192 OFFCURVE",
"28 333 CURVE SMOOTH"
);
},
{
closed = 1;
nodes = (
"199.795 92 OFFCURVE",
"178 249.352 OFFCURVE",
"178 368 CURVE SMOOTH",
"178 491.942 OFFCURVE",
"221.459 598 OFFCURVE",
"342 598 CURVE SMOOTH",
"464.528 598 OFFCURVE",
"509 488.951 OFFCURVE",
"509 342 CURVE SMOOTH",
"509 194.168 OFFCURVE",
"462.868 92 OFFCURVE",
"345 92 CURVE SMOOTH"
);
},
{
closed = 1;
nodes = (
"216.729 868 OFFCURVE",
"161 849.002 OFFCURVE",
"161 764 CURVE SMOOTH",
"161 753.968 OFFCURVE",
"166.587 740 OFFCURVE",
"188 740 CURVE SMOOTH",
"219 740 LINE SMOOTH",
"233.597 740 OFFCURVE",
"246 746.202 OFFCURVE",
"246 760 CURVE SMOOTH",
"246 770.984 OFFCURVE",
"247.596 772 OFFCURVE",
"261 772 CURVE SMOOTH",
"291.826 772 OFFCURVE",
"376.826 734 OFFCURVE",
"440 734 CURVE SMOOTH",
"486.501 734 OFFCURVE",
"531 768.611 OFFCURVE",
"531 843 CURVE SMOOTH",
"531 853.032 OFFCURVE",
"525.413 867 OFFCURVE",
"504 867 CURVE SMOOTH",
"480 867 LINE SMOOTH",
"466.217 867 OFFCURVE",
"450 860.513 OFFCURVE",
"450 844 CURVE SMOOTH",
"450 827.394 OFFCURVE",
"448.029 827 OFFCURVE",
"431 827 CURVE SMOOTH",
"388.55 827 OFFCURVE",
"305.55 868 OFFCURVE",
"249 868 CURVE SMOOTH"
);
}
);
width = 692;
}
);
unicode = 00D5;
},
{
glyphname = OE;
lastChange = "2013-03-20 20:06:29 +0000";
layers = (
{
anchors = (
{
name = top;
position = "{488, 679}";
}
);
layerId = "B4B43AB8-DB99-4954-A9F8-B6F89E957C89";
name = Regular;
paths = (
{
closed = 1;
nodes = (
"839.375 589 LINE",
"836.028 534.614 LINE SMOOTH",
"834.822 516.5 OFFCURVE",
"846.322 505 OFFCURVE",
"869 505 CURVE SMOOTH",
"917 505 LINE SMOOTH",
"939.678 505 OFFCURVE",
"951 516.322 OFFCURVE",
"951 534 CURVE SMOOTH",
"951 660 LINE SMOOTH",
"951 677.678 OFFCURVE",
"939.678 689 OFFCURVE",
"917 689 CURVE SMOOTH",
"553 689 LINE SMOOTH",
"530.322 689 OFFCURVE",
"519 677.678 OFFCURVE",
"519 660 CURVE",
"519 666.08 LINE",
"466.88 697.878 OFFCURVE",
"406.178 706 OFFCURVE",
"361 706 CURVE SMOOTH",
"228.729 706 OFFCURVE",
"35 617.075 OFFCURVE",
"35 330 CURVE SMOOTH",
"35 98.4393 OFFCURVE",
"150.11 -22 OFFCURVE",
"340 -22 CURVE SMOOTH",
"407.333 -22 OFFCURVE",
"470.36 -7 OFFCURVE",
"519 26.955 CURVE",
"519 19 LINE SMOOTH",
"519 1.32233 OFFCURVE",
"530.322 -10 OFFCURVE",
"553 -10 CURVE SMOOTH",
"937 -10 LINE SMOOTH",
"959.678 -10 OFFCURVE",
"971 1.32233 OFFCURVE",
"971 19 CURVE SMOOTH",
"971 145 LINE SMOOTH",
"971 162.678 OFFCURVE",
"959.678 174 OFFCURVE",
"937 174 CURVE SMOOTH",
"889 174 LINE SMOOTH",
"866.322 174 OFFCURVE",
"854.822 162.5 OFFCURVE",
"856.033 144.335 CURVE SMOOTH",
"859.355 92 LINE",
"661 92 LINE",
"661 298 LINE",
"778.307 298 LINE",
"776.035 264.68 LINE SMOOTH",
"774.822 246.5 OFFCURVE",
"786.322 235 OFFCURVE",
"809 235 CURVE SMOOTH",
"857 235 LINE SMOOTH",
"879.678 235 OFFCURVE",
"891 246.322 OFFCURVE",
"891 264 CURVE SMOOTH",
"891 433 LINE SMOOTH",
"891 450.678 OFFCURVE",
"879.678 462 OFFCURVE",
"857 462 CURVE SMOOTH",
"809 462 LINE SMOOTH",
"786.322 462 OFFCURVE",
"774.822 450.5 OFFCURVE",
"776.033 432.335 CURVE SMOOTH",
"779.131 396 LINE",
"661 396 LINE",
"661 589 LINE"
);
},
{
closed = 1;
nodes = (
"185 487.977 OFFCURVE",
"228.567 598 OFFCURVE",
"349 598 CURVE SMOOTH",
"471.423 598 OFFCURVE",
"516 484.987 OFFCURVE",
"516 339 CURVE SMOOTH",
"516 195.158 OFFCURVE",
"469.838 92 OFFCURVE",
"352 92 CURVE SMOOTH",
"206.773 92 OFFCURVE",
"185 246.357 OFFCURVE",
"185 368 CURVE SMOOTH"
);
}
);
width = 976;
}
);
unicode = 0152;
},
{
glyphname = P;
lastChange = "2013-03-20 20:06:28 +0000";
layers = (
{
layerId = "B4B43AB8-DB99-4954-A9F8-B6F89E957C89";
name = Regular;
paths = (
{
closed = 1;
nodes = (
"25 15 LINE SMOOTH",
"25 0.694971 OFFCURVE",
"38.3687 -10 OFFCURVE",
"55 -10 CURVE SMOOTH",
"302 -10 LINE SMOOTH",
"318.631 -10 OFFCURVE",
"332 0.694971 OFFCURVE",
"332 15 CURVE SMOOTH",
"332 64 LINE SMOOTH",
"332 76.6777 OFFCURVE",
"319.678 89 OFFCURVE",
"302 89 CURVE SMOOTH",
"234 89 LINE",
"234 262.609 LINE",
"250.301 261.544 OFFCURVE",
"270.406 261 OFFCURVE",
"288 261 CURVE SMOOTH",
"445.305 261 OFFCURVE",
"545 353.109 OFFCURVE",
"545 490 CURVE SMOOTH",
"545 625.851 OFFCURVE",
"441.825 695 OFFCURVE",
"264 695 CURVE SMOOTH",
"205.655 695 OFFCURVE",
"118.187 691.984 OFFCURVE",
"54.2976 688.989 CURVE",
"35.2894 689 OFFCURVE",
"25 676.138 OFFCURVE",
"25 664 CURVE SMOOTH",
"25 614 LINE SMOOTH",
"25 601.322 OFFCURVE",
"37.3223 589 OFFCURVE",
"55 589 CURVE SMOOTH",
"92 589 LINE",
"92 89 LINE",
"55 89 LINE SMOOTH",
"37.3223 89 OFFCURVE",
"25 76.6777 OFFCURVE",
"25 64 CURVE SMOOTH"
);
},
{
closed = 1;
nodes = (
"234 592 LINE",
"255 592 LINE SMOOTH",
"333.764 592 OFFCURVE",
"400 576.908 OFFCURVE",
"400 483 CURVE SMOOTH",
"400 388.788 OFFCURVE",
"345.294 360 OFFCURVE",
"265 360 CURVE SMOOTH",
"234 360.17 LINE"
);
}
);
width = 565;
}
);
unicode = 0050;
},
{
glyphname = Thorn;
lastChange = "2013-03-20 20:06:28 +0000";
layers = (
{
layerId = "B4B43AB8-DB99-4954-A9F8-B6F89E957C89";
name = Regular;
paths = (
{
closed = 1;
nodes = (
"298 -10 LINE SMOOTH",
"320.678 -10 OFFCURVE",
"332 1.32233 OFFCURVE",
"332 19 CURVE SMOOTH",
"332 61 LINE SMOOTH",
"332 78.6777 OFFCURVE",
"320.156 90.5215 OFFCURVE",
"297.002 88.9779 CURVE",
"234 89 LINE",
"234 148.446 LINE",
"246.629 147.498 OFFCURVE",
"261.461 147 OFFCURVE",
"283 147 CURVE SMOOTH",
"432.154 147 OFFCURVE",
"545 228.379 OFFCURVE",
"545 374 CURVE SMOOTH",
"545 510.85 OFFCURVE",
"444.826 578 OFFCURVE",
"267 578 CURVE SMOOTH",
"234 578 LINE",
"234 589 LINE",
"266 589 LINE",
"288.156 587.479 OFFCURVE",
"300 599.322 OFFCURVE",
"300 617 CURVE SMOOTH",
"300 660 LINE SMOOTH",
"300 677.678 OFFCURVE",
"288.678 689 OFFCURVE",
"266 689 CURVE SMOOTH",
"59 689 LINE SMOOTH",
"36.3223 689 OFFCURVE",
"25 677.678 OFFCURVE",
"25 660 CURVE SMOOTH",
"25 617 LINE SMOOTH",
"25 599.322 OFFCURVE",
"36.8438 587.479 OFFCURVE",
"59.9978 589.022 CURVE",
"92 589 LINE",
"92 89 LINE",
"59 89 LINE",
"36.8438 90.5215 OFFCURVE",
"25 78.6777 OFFCURVE",
"25 61 CURVE SMOOTH",
"25 19 LINE SMOOTH",
"25 1.32233 OFFCURVE",
"36.3223 -10 OFFCURVE",
"59 -10 CURVE SMOOTH"
);
},
{
closed = 1;
nodes = (
"269 473 LINE SMOOTH",
"344.838 473 OFFCURVE",
"400 453.797 OFFCURVE",
"400 366 CURVE SMOOTH",
"400 274.575 OFFCURVE",
"349.04 246 OFFCURVE",
"250 246 CURVE SMOOTH",
"234 246.143 LINE",
"234 473 LINE"
);
}
);
width = 565;
}
);
unicode = 00DE;
},
{
glyphname = R;
lastChange = "2013-03-20 20:06:29 +0000";
layers = (
{
anchors = (
{
name = bottom;
position = "{308, 0}";
},
{
name = top;
position = "{308, 679}";
}
);
layerId = "B4B43AB8-DB99-4954-A9F8-B6F89E957C89";
name = Regular;
paths = (
{
closed = 1;
nodes = (
"25 15 LINE SMOOTH",
"25 0.694971 OFFCURVE",
"38.3687 -10 OFFCURVE",
"55 -10 CURVE SMOOTH",
"282 -10 LINE SMOOTH",
"300.678 -10 OFFCURVE",
"312 1.32233 OFFCURVE",
"312 15 CURVE SMOOTH",
"312 64 LINE SMOOTH",
"312 76.6777 OFFCURVE",
"299.678 89 OFFCURVE",
"282 89 CURVE SMOOTH",
"234 89 LINE",
"234 273.428 LINE",
"246.083 272.492 OFFCURVE",
"259.333 272 OFFCURVE",
"276 272 CURVE SMOOTH",
"285.388 272 LINE",
"418.614 8.4881 LINE",
"424.125 -1 OFFCURVE",
"437.199 -10 OFFCURVE",
"454 -10 CURVE SMOOTH",
"586 -10 LINE SMOOTH",
"602.631 -10 OFFCURVE",
"616 0.694971 OFFCURVE",
"616 15 CURVE SMOOTH",
"616 64 LINE SMOOTH",
"616 76.6777 OFFCURVE",
"603.678 89 OFFCURVE",
"586 89 CURVE SMOOTH",
"534.589 89 LINE",
"424.477 305.46 LINE",
"494.688 342.498 OFFCURVE",
"543 411.568 OFFCURVE",
"543 499 CURVE SMOOTH",
"543 630.904 OFFCURVE",
"445.751 695 OFFCURVE",
"268 695 CURVE SMOOTH",
"209.67 695 OFFCURVE",
"118.203 691.985 OFFCURVE",
"54.2976 688.989 CURVE",
"36.3223 689 OFFCURVE",
"25 677.678 OFFCURVE",
"25 664 CURVE SMOOTH",
"25 614 LINE SMOOTH",
"25 601.322 OFFCURVE",
"37.3223 589 OFFCURVE",
"55 589 CURVE SMOOTH",
"92 589 LINE",
"92 89 LINE",
"55 89 LINE SMOOTH",
"37.3223 89 OFFCURVE",
"25 76.6777 OFFCURVE",
"25 64 CURVE SMOOTH"
);
},
{
closed = 1;
nodes = (
"234 592 LINE",
"255 592 LINE SMOOTH",
"333.587 592 OFFCURVE",
"398 576.106 OFFCURVE",
"398 488 CURVE SMOOTH",
"398 407.091 OFFCURVE",
"340.403 370 OFFCURVE",
"242 370 CURVE SMOOTH",
"234 370.044 LINE"
);
}
);
width = 616;
}
);
unicode = 0052;
},
{
glyphname = Racute;
lastChange = "2013-03-20 20:06:28 +0000";
layers = (
{
layerId = "B4B43AB8-DB99-4954-A9F8-B6F89E957C89";
name = Regular;
paths = (
{
closed = 1;
nodes = (
"25 15 LINE SMOOTH",
"25 0.694971 OFFCURVE",
"38.3687 -10 OFFCURVE",
"55 -10 CURVE SMOOTH",
"282 -10 LINE SMOOTH",
"300.678 -10 OFFCURVE",
"312 1.32233 OFFCURVE",
"312 15 CURVE SMOOTH",
"312 64 LINE SMOOTH",
"312 76.6777 OFFCURVE",
"299.678 89 OFFCURVE",
"282 89 CURVE SMOOTH",
"234 89 LINE",
"234 273.428 LINE",
"246.083 272.492 OFFCURVE",
"259.333 272 OFFCURVE",
"276 272 CURVE SMOOTH",
"285.388 272 LINE",
"418.614 8.4881 LINE",
"424.125 -1 OFFCURVE",
"437.199 -10 OFFCURVE",
"454 -10 CURVE SMOOTH",
"586 -10 LINE SMOOTH",
"602.631 -10 OFFCURVE",
"616 0.694971 OFFCURVE",
"616 15 CURVE SMOOTH",
"616 64 LINE SMOOTH",
"616 76.6777 OFFCURVE",
"603.678 89 OFFCURVE",
"586 89 CURVE SMOOTH",
"534.589 89 LINE",
"424.477 305.46 LINE",
"494.688 342.498 OFFCURVE",
"543 411.568 OFFCURVE",
"543 499 CURVE SMOOTH",
"543 630.904 OFFCURVE",
"445.751 695 OFFCURVE",
"268 695 CURVE SMOOTH",
"209.67 695 OFFCURVE",
"118.203 691.985 OFFCURVE",
"54.2976 688.989 CURVE",
"36.3223 689 OFFCURVE",
"25 677.678 OFFCURVE",
"25 664 CURVE SMOOTH",
"25 614 LINE SMOOTH",
"25 601.322 OFFCURVE",
"37.3223 589 OFFCURVE",
"55 589 CURVE SMOOTH",
"92 589 LINE",
"92 89 LINE",
"55 89 LINE SMOOTH",
"37.3223 89 OFFCURVE",
"25 76.6777 OFFCURVE",
"25 64 CURVE SMOOTH"
);
},
{
closed = 1;
nodes = (
"234 592 LINE",
"255 592 LINE SMOOTH",
"333.587 592 OFFCURVE",
"398 576.106 OFFCURVE",
"398 488 CURVE SMOOTH",
"398 407.091 OFFCURVE",
"340.403 370 OFFCURVE",
"242 370 CURVE SMOOTH",
"234 370.044 LINE"
);
},
{
closed = 1;
nodes = (
"198.368 750.173 LINE",
"192.209 735.055 OFFCURVE",
"202 722 OFFCURVE",
"221 722 CURVE SMOOTH",
"269 722 LINE SMOOTH",
"283.597 722 OFFCURVE",
"299.14 729.771 OFFCURVE",
"304.72 738.7 CURVE",
"374.368 840.342 LINE",
"383.494 852.658 OFFCURVE",
"379.658 868 OFFCURVE",
"356 868 CURVE SMOOTH",
"278 868 LINE SMOOTH",
"262.864 868 OFFCURVE",
"247.728 859.351 OFFCURVE",
"243.073 847.714 CURVE"
);
}
);
width = 616;
}
);
unicode = 0154;
},
{
glyphname = Rcaron;
lastChange = "2013-03-20 20:06:28 +0000";
layers = (
{
layerId = "B4B43AB8-DB99-4954-A9F8-B6F89E957C89";
name = Regular;
paths = (
{
closed = 1;
nodes = (
"25 15 LINE SMOOTH",
"25 0.694971 OFFCURVE",
"38.3687 -10 OFFCURVE",
"55 -10 CURVE SMOOTH",
"282 -10 LINE SMOOTH",
"300.678 -10 OFFCURVE",
"312 1.32233 OFFCURVE",
"312 15 CURVE SMOOTH",
"312 64 LINE SMOOTH",
"312 76.6777 OFFCURVE",
"299.678 89 OFFCURVE",
"282 89 CURVE SMOOTH",
"234 89 LINE",
"234 273.428 LINE",
"246.083 272.492 OFFCURVE",
"259.333 272 OFFCURVE",
"276 272 CURVE SMOOTH",
"285.388 272 LINE",
"418.614 8.4881 LINE",
"424.125 -1 OFFCURVE",
"437.199 -10 OFFCURVE",
"454 -10 CURVE SMOOTH",
"586 -10 LINE SMOOTH",
"602.631 -10 OFFCURVE",
"616 0.694971 OFFCURVE",
"616 15 CURVE SMOOTH",
"616 64 LINE SMOOTH",
"616 76.6777 OFFCURVE",
"603.678 89 OFFCURVE",
"586 89 CURVE SMOOTH",
"534.589 89 LINE",
"424.477 305.46 LINE",
"494.688 342.498 OFFCURVE",
"543 411.568 OFFCURVE",
"543 499 CURVE SMOOTH",
"543 630.904 OFFCURVE",
"445.751 695 OFFCURVE",
"268 695 CURVE SMOOTH",
"209.67 695 OFFCURVE",
"118.203 691.985 OFFCURVE",
"54.2976 688.989 CURVE",
"36.3223 689 OFFCURVE",
"25 677.678 OFFCURVE",
"25 664 CURVE SMOOTH",
"25 614 LINE SMOOTH",
"25 601.322 OFFCURVE",
"37.3223 589 OFFCURVE",
"55 589 CURVE SMOOTH",
"92 589 LINE",
"92 89 LINE",
"55 89 LINE SMOOTH",
"37.3223 89 OFFCURVE",
"25 76.6777 OFFCURVE",
"25 64 CURVE SMOOTH"
);
},
{
closed = 1;
nodes = (
"234 592 LINE",
"255 592 LINE SMOOTH",
"333.587 592 OFFCURVE",
"398 576.106 OFFCURVE",
"398 488 CURVE SMOOTH",
"398 407.091 OFFCURVE",
"340.403 370 OFFCURVE",
"242 370 CURVE SMOOTH",
"234 370.044 LINE"
);
},
{
closed = 1;
nodes = (
"348 873 LINE SMOOTH",
"333.403 873 OFFCURVE",
"318.358 865.477 OFFCURVE",
"312 857 CURVE SMOOTH",
"266.885 800.687 LINE",
"220.617 857.326 LINE SMOOTH",
"213.007 867.211 OFFCURVE",
"197.569 873 OFFCURVE",
"184 873 CURVE SMOOTH",
"127 873 LINE SMOOTH",
"104.348 873 OFFCURVE",
"97.8085 859.922 OFFCURVE",
"109 845 CURVE SMOOTH",
"191.094 737.917 LINE SMOOTH",
"197.358 729.523 OFFCURVE",
"212.403 722 OFFCURVE",
"227 722 CURVE SMOOTH",
"303 722 LINE SMOOTH",
"317.597 722 OFFCURVE",
"332.642 729.523 OFFCURVE",
"339 738 CURVE SMOOTH",
"420.906 844.917 LINE SMOOTH",
"432.191 859.922 OFFCURVE",
"425.652 873 OFFCURVE",
"403 873 CURVE SMOOTH"
);
}
);
width = 616;
}
);
unicode = 0158;
},
{
glyphname = Rcommaaccent;
lastChange = "2013-03-20 20:06:28 +0000";
layers = (
{
layerId = "B4B43AB8-DB99-4954-A9F8-B6F89E957C89";
name = Regular;
paths = (
{
closed = 1;
nodes = (
"25 15 LINE SMOOTH",
"25 0.694971 OFFCURVE",
"38.3687 -10 OFFCURVE",
"55 -10 CURVE SMOOTH",
"282 -10 LINE SMOOTH",
"300.678 -10 OFFCURVE",
"312 1.32233 OFFCURVE",
"312 15 CURVE SMOOTH",
"312 64 LINE SMOOTH",
"312 76.6777 OFFCURVE",
"299.678 89 OFFCURVE",
"282 89 CURVE SMOOTH",
"234 89 LINE",
"234 273.428 LINE",
"246.083 272.492 OFFCURVE",
"259.333 272 OFFCURVE",
"276 272 CURVE SMOOTH",
"285.388 272 LINE",
"418.614 8.4881 LINE",
"424.125 -1 OFFCURVE",
"437.199 -10 OFFCURVE",
"454 -10 CURVE SMOOTH",
"586 -10 LINE SMOOTH",
"602.631 -10 OFFCURVE",
"616 0.694971 OFFCURVE",
"616 15 CURVE SMOOTH",
"616 64 LINE SMOOTH",
"616 76.6777 OFFCURVE",
"603.678 89 OFFCURVE",
"586 89 CURVE SMOOTH",
"534.589 89 LINE",
"424.477 305.46 LINE",
"494.688 342.498 OFFCURVE",
"543 411.568 OFFCURVE",
"543 499 CURVE SMOOTH",
"543 630.904 OFFCURVE",
"445.751 695 OFFCURVE",
"268 695 CURVE SMOOTH",
"209.67 695 OFFCURVE",
"118.203 691.985 OFFCURVE",
"54.2976 688.989 CURVE",
"36.3223 689 OFFCURVE",
"25 677.678 OFFCURVE",
"25 664 CURVE SMOOTH",
"25 614 LINE SMOOTH",
"25 601.322 OFFCURVE",
"37.3223 589 OFFCURVE",
"55 589 CURVE SMOOTH",
"92 589 LINE",
"92 89 LINE",
"55 89 LINE SMOOTH",
"37.3223 89 OFFCURVE",
"25 76.6777 OFFCURVE",
"25 64 CURVE SMOOTH"
);
},
{
closed = 1;
nodes = (
"234 592 LINE",
"255 592 LINE SMOOTH",
"333.587 592 OFFCURVE",
"398 576.106 OFFCURVE",
"398 488 CURVE SMOOTH",
"398 407.091 OFFCURVE",
"340.403 370 OFFCURVE",
"242 370 CURVE SMOOTH",
"234 370.044 LINE"
);
},
{
closed = 1;
nodes = (
"345.547 -217 LINE SMOOTH",
"367.967 -181 OFFCURVE",
"384 -155 OFFCURVE",
"384 -123 CURVE SMOOTH",
"384 -83 OFFCURVE",
"352.266 -60 OFFCURVE",
"309 -60 CURVE SMOOTH",
"262.854 -60 OFFCURVE",
"237 -89 OFFCURVE",
"237 -120 CURVE SMOOTH",
"237 -150 OFFCURVE",
"254.326 -169 OFFCURVE",
"266.37 -184 CURVE",
"245.655 -252 LINE",
"241.808 -263 OFFCURVE",
"244.126 -274 OFFCURVE",
"260.733 -280 CURVE",
"272.231 -285 LINE SMOOTH",
"284.746 -291 OFFCURVE",
"301.388 -284 OFFCURVE",
"307.206 -276 CURVE"
);
}
);
width = 616;
}
);
unicode = 0156;
},
{
glyphname = S;
lastChange = "2013-03-20 20:06:29 +0000";
layers = (
{
anchors = (
{
name = bottom;
position = "{259, 0}";
},
{
name = top;
position = "{259, 679}";
}
);
layerId = "B4B43AB8-DB99-4954-A9F8-B6F89E957C89";
name = Regular;
paths = (
{
closed = 1;
nodes = (
"128.824 706 OFFCURVE",
"42 609.408 OFFCURVE",
"42 494 CURVE SMOOTH",
"42 371.051 OFFCURVE",
"137.744 325.355 OFFCURVE",
"229.209 294.524 CURVE SMOOTH",
"304.142 269.551 OFFCURVE",
"351 242.651 OFFCURVE",
"351 176 CURVE SMOOTH",
"351 104.835 OFFCURVE",
"300.439 85 OFFCURVE",
"242 85 CURVE SMOOTH",
"203.727 85 OFFCURVE",
"169.064 97.7432 OFFCURVE",
"151.16 111.205 CURVE",
"154.983 190.519 LINE",
"156.299 205.066 OFFCURVE",
"142.631 216 OFFCURVE",
"126 216 CURVE SMOOTH",
"70 216 LINE SMOOTH",
"53.3687 216 OFFCURVE",
"40 205.305 OFFCURVE",
"40 191 CURVE SMOOTH",
"40 32 LINE SMOOTH",
"40 20.4177 OFFCURVE",
"46.6234 9.37867 OFFCURVE",
"65.0532 4.35236 CURVE",
"95.7523 -5 OFFCURVE",
"164.627 -22 OFFCURVE",
"237 -22 CURVE SMOOTH",
"398.278 -22 OFFCURVE",
"492 64.0931 OFFCURVE",
"492 198 CURVE SMOOTH",
"492 335.884 OFFCURVE",
"373.697 377.828 OFFCURVE",
"288.34 410.345 CURVE SMOOTH",
"210.722 439.684 OFFCURVE",
"181 466.009 OFFCURVE",
"181 521 CURVE SMOOTH",
"181 571.262 OFFCURVE",
"219.16 599 OFFCURVE",
"273 599 CURVE SMOOTH",
"301.826 599 OFFCURVE",
"328 590.946 OFFCURVE",
"347.799 580.614 CURVE",
"345.015 518.447 LINE",
"343.701 503.934 OFFCURVE",
"357.369 493 OFFCURVE",
"374 493 CURVE SMOOTH",
"430 493 LINE SMOOTH",
"447.678 493 OFFCURVE",
"460 505.322 OFFCURVE",
"460 518 CURVE SMOOTH",
"460 656 LINE SMOOTH",
"460 667.582 OFFCURVE",
"453.377 678.621 OFFCURVE",
"434.947 683.648 CURVE SMOOTH",
"409.102 691.339 OFFCURVE",
"348.363 706 OFFCURVE",
"283 706 CURVE SMOOTH"
);
}
);
width = 517;
}
);
unicode = 0053;
},
{
glyphname = Sacute;
lastChange = "2013-03-20 20:06:28 +0000";
layers = (
{
layerId = "B4B43AB8-DB99-4954-A9F8-B6F89E957C89";
name = Regular;
paths = (
{
closed = 1;
nodes = (
"128.824 706 OFFCURVE",
"42 609.408 OFFCURVE",
"42 494 CURVE SMOOTH",
"42 371.051 OFFCURVE",
"137.744 325.355 OFFCURVE",
"229.209 294.524 CURVE SMOOTH",
"304.142 269.551 OFFCURVE",
"351 242.651 OFFCURVE",
"351 176 CURVE SMOOTH",
"351 104.835 OFFCURVE",
"300.439 85 OFFCURVE",
"242 85 CURVE SMOOTH",
"203.727 85 OFFCURVE",
"169.064 97.7432 OFFCURVE",
"151.16 111.205 CURVE",
"154.983 190.519 LINE",
"156.299 205.066 OFFCURVE",
"142.631 216 OFFCURVE",
"126 216 CURVE SMOOTH",
"70 216 LINE SMOOTH",
"53.3687 216 OFFCURVE",
"40 205.305 OFFCURVE",
"40 191 CURVE SMOOTH",
"40 32 LINE SMOOTH",
"40 20.4177 OFFCURVE",
"46.6234 9.37867 OFFCURVE",
"65.0532 4.35236 CURVE",
"95.7523 -5 OFFCURVE",
"164.627 -22 OFFCURVE",
"237 -22 CURVE SMOOTH",
"398.278 -22 OFFCURVE",
"492 64.0931 OFFCURVE",
"492 198 CURVE SMOOTH",
"492 335.884 OFFCURVE",
"373.697 377.828 OFFCURVE",
"288.34 410.345 CURVE SMOOTH",
"210.722 439.684 OFFCURVE",
"181 466.009 OFFCURVE",
"181 521 CURVE SMOOTH",
"181 571.262 OFFCURVE",
"219.16 599 OFFCURVE",
"273 599 CURVE SMOOTH",
"301.826 599 OFFCURVE",
"328 590.946 OFFCURVE",
"347.799 580.614 CURVE",
"345.015 518.447 LINE",
"343.701 503.934 OFFCURVE",
"357.369 493 OFFCURVE",
"374 493 CURVE SMOOTH",
"430 493 LINE SMOOTH",
"447.678 493 OFFCURVE",
"460 505.322 OFFCURVE",
"460 518 CURVE SMOOTH",
"460 656 LINE SMOOTH",
"460 667.582 OFFCURVE",
"453.377 678.621 OFFCURVE",
"434.947 683.648 CURVE SMOOTH",
"409.102 691.339 OFFCURVE",
"348.363 706 OFFCURVE",
"283 706 CURVE SMOOTH"
);
},
{
closed = 1;
nodes = (
"223.368 750.173 LINE",
"217.209 735.055 OFFCURVE",
"227 722 OFFCURVE",
"246 722 CURVE SMOOTH",
"294 722 LINE SMOOTH",
"308.597 722 OFFCURVE",
"324.14 729.771 OFFCURVE",
"329.72 738.7 CURVE",
"399.368 840.342 LINE",
"408.494 852.658 OFFCURVE",
"404.658 868 OFFCURVE",
"381 868 CURVE SMOOTH",
"303 868 LINE SMOOTH",
"287.864 868 OFFCURVE",
"272.728 859.351 OFFCURVE",
"268.073 847.714 CURVE"
);
}
);
width = 517;
}
);
unicode = 015A;
},
{
glyphname = Scaron;
lastChange = "2013-03-20 20:06:28 +0000";
layers = (
{
layerId = "B4B43AB8-DB99-4954-A9F8-B6F89E957C89";
name = Regular;
paths = (
{
closed = 1;
nodes = (
"128.824 706 OFFCURVE",
"42 609.408 OFFCURVE",
"42 494 CURVE SMOOTH",
"42 371.051 OFFCURVE",
"137.744 325.355 OFFCURVE",
"229.209 294.524 CURVE SMOOTH",
"304.142 269.551 OFFCURVE",
"351 242.651 OFFCURVE",
"351 176 CURVE SMOOTH",
"351 104.835 OFFCURVE",
"300.439 85 OFFCURVE",
"242 85 CURVE SMOOTH",
"203.727 85 OFFCURVE",
"169.064 97.7432 OFFCURVE",
"151.16 111.205 CURVE",
"154.983 190.519 LINE",
"156.299 205.066 OFFCURVE",
"142.631 216 OFFCURVE",
"126 216 CURVE SMOOTH",
"70 216 LINE SMOOTH",
"53.3687 216 OFFCURVE",
"40 205.305 OFFCURVE",
"40 191 CURVE SMOOTH",
"40 32 LINE SMOOTH",
"40 20.4177 OFFCURVE",
"46.6234 9.37867 OFFCURVE",
"65.0532 4.35236 CURVE",
"95.7523 -5 OFFCURVE",
"164.627 -22 OFFCURVE",
"237 -22 CURVE SMOOTH",
"398.278 -22 OFFCURVE",
"492 64.0931 OFFCURVE",
"492 198 CURVE SMOOTH",
"492 335.884 OFFCURVE",
"373.697 377.828 OFFCURVE",
"288.34 410.345 CURVE SMOOTH",
"210.722 439.684 OFFCURVE",
"181 466.009 OFFCURVE",
"181 521 CURVE SMOOTH",
"181 571.262 OFFCURVE",
"219.16 599 OFFCURVE",
"273 599 CURVE SMOOTH",
"301.826 599 OFFCURVE",
"328 590.946 OFFCURVE",
"347.799 580.614 CURVE",
"345.015 518.447 LINE",
"343.701 503.934 OFFCURVE",
"357.369 493 OFFCURVE",
"374 493 CURVE SMOOTH",
"430 493 LINE SMOOTH",
"447.678 493 OFFCURVE",
"460 505.322 OFFCURVE",
"460 518 CURVE SMOOTH",
"460 656 LINE SMOOTH",
"460 667.582 OFFCURVE",
"453.377 678.621 OFFCURVE",
"434.947 683.648 CURVE SMOOTH",
"409.102 691.339 OFFCURVE",
"348.363 706 OFFCURVE",
"283 706 CURVE SMOOTH"
);
},
{
closed = 1;
nodes = (
"355 873 LINE SMOOTH",
"340.403 873 OFFCURVE",
"325.358 865.477 OFFCURVE",
"319 857 CURVE SMOOTH",
"273.885 800.687 LINE",
"227.617 857.326 LINE SMOOTH",
"220.007 867.211 OFFCURVE",
"204.569 873 OFFCURVE",
"191 873 CURVE SMOOTH",
"134 873 LINE SMOOTH",
"111.348 873 OFFCURVE",
"104.809 859.922 OFFCURVE",
"116 845 CURVE SMOOTH",
"198.094 737.917 LINE SMOOTH",
"204.358 729.523 OFFCURVE",
"219.403 722 OFFCURVE",
"234 722 CURVE SMOOTH",
"310 722 LINE SMOOTH",
"324.597 722 OFFCURVE",
"339.642 729.523 OFFCURVE",
"346 738 CURVE SMOOTH",
"427.906 844.917 LINE SMOOTH",
"439.191 859.922 OFFCURVE",
"432.652 873 OFFCURVE",
"410 873 CURVE SMOOTH"
);
}
);
width = 517;
}
);
unicode = 0160;
},
{
glyphname = Scedilla;
lastChange = "2013-03-20 20:06:28 +0000";
layers = (
{
layerId = "B4B43AB8-DB99-4954-A9F8-B6F89E957C89";
name = Regular;
paths = (
{
closed = 1;
nodes = (
"128.621 706 OFFCURVE",
"42 605.303 OFFCURVE",
"42 490 CURVE SMOOTH",
"42 366.893 OFFCURVE",
"137.901 323.302 OFFCURVE",
"229.209 292.524 CURVE SMOOTH",
"304.244 267.517 OFFCURVE",
"349 242.557 OFFCURVE",
"349 170 CURVE SMOOTH",
"349 104.736 OFFCURVE",
"300.33 85 OFFCURVE",
"242 85 CURVE SMOOTH",
"203.727 85 OFFCURVE",
"169.064 97.7432 OFFCURVE",
"151.16 111.205 CURVE",
"154.983 190.519 LINE",
"156.299 205.066 OFFCURVE",
"142.631 216 OFFCURVE",
"126 216 CURVE SMOOTH",
"70 216 LINE SMOOTH",
"53.3687 216 OFFCURVE",
"40 205.305 OFFCURVE",
"40 191 CURVE SMOOTH",
"40 32 LINE SMOOTH",
"40 20.4177 OFFCURVE",
"46.6234 9.37867 OFFCURVE",
"65.0532 4.35236 CURVE",
"91.5774 -4 OFFCURVE",
"148.756 -18 OFFCURVE",
"211.496 -21 CURVE",
"189.601 -53 LINE SMOOTH",
"181.766 -66 OFFCURVE",
"183.447 -77 OFFCURVE",
"195.238 -88 CURVE",
"204.791 -95 LINE SMOOTH",
"218.142 -105 OFFCURVE",
"221 -110 OFFCURVE",
"221 -124 CURVE SMOOTH",
"221 -139 OFFCURVE",
"212.558 -149 OFFCURVE",
"185.176 -172 CURVE SMOOTH",
"173.627 -182 OFFCURVE",
"171.589 -193 OFFCURVE",
"182.16 -206 CURVE SMOOTH",
"190.287 -216 LINE",
"197.95 -227 OFFCURVE",
"218.311 -230 OFFCURVE",
"231.321 -221 CURVE SMOOTH",
"278.937 -190 OFFCURVE",
"334 -143 OFFCURVE",
"334 -108 CURVE SMOOTH",
"334 -81 OFFCURVE",
"317.386 -62 OFFCURVE",
"290.878 -38 CURVE SMOOTH",
"281.847 -31 LINE",
"478.306 292.182 LINE",
"487.53 258.745 OFFCURVE",
"492 227.22 OFFCURVE",
"492 198 CURVE",
"492 337.78 OFFCURVE",
"374.79 380.792 OFFCURVE",
"289.34 413.345 CURVE SMOOTH",
"211.457 442.784 OFFCURVE",
"183 466.219 OFFCURVE",
"183 521 CURVE SMOOTH",
"183 571.403 OFFCURVE",
"219.367 599 OFFCURVE",
"273 599 CURVE SMOOTH",
"301.826 599 OFFCURVE",
"328 590.946 OFFCURVE",
"347.799 580.614 CURVE",
"345.015 518.447 LINE",
"343.701 503.934 OFFCURVE",
"357.369 493 OFFCURVE",
"374 493 CURVE SMOOTH",
"430 493 LINE SMOOTH",
"447.678 493 OFFCURVE",
"460 505.322 OFFCURVE",
"460 518 CURVE SMOOTH",
"460 656 LINE SMOOTH",
"460 667.582 OFFCURVE",
"453.377 678.621 OFFCURVE",
"434.947 683.648 CURVE SMOOTH",
"409.102 691.339 OFFCURVE",
"348.363 706 OFFCURVE",
"283 706 CURVE SMOOTH"
);
}
);
width = 517;
}
);
unicode = 015E;
},
{
glyphname = Scommaaccent;
lastChange = "2013-03-20 20:06:28 +0000";
layers = (
{
layerId = "B4B43AB8-DB99-4954-A9F8-B6F89E957C89";
name = Regular;
paths = (
{
closed = 1;
nodes = (
"128.824 706 OFFCURVE",
"42 609.408 OFFCURVE",
"42 494 CURVE SMOOTH",
"42 371.051 OFFCURVE",
"137.744 325.355 OFFCURVE",
"229.209 294.524 CURVE SMOOTH",
"304.142 269.551 OFFCURVE",
"351 242.651 OFFCURVE",
"351 176 CURVE SMOOTH",
"351 104.835 OFFCURVE",
"300.439 85 OFFCURVE",
"242 85 CURVE SMOOTH",
"203.727 85 OFFCURVE",
"169.064 97.7432 OFFCURVE",
"151.16 111.205 CURVE",
"154.983 190.519 LINE",
"156.299 205.066 OFFCURVE",
"142.631 216 OFFCURVE",
"126 216 CURVE SMOOTH",
"70 216 LINE SMOOTH",
"53.3687 216 OFFCURVE",
"40 205.305 OFFCURVE",
"40 191 CURVE SMOOTH",
"40 32 LINE SMOOTH",
"40 20.4177 OFFCURVE",
"46.6234 9.37867 OFFCURVE",
"65.0532 4.35236 CURVE",
"95.7523 -5 OFFCURVE",
"164.627 -22 OFFCURVE",
"237 -22 CURVE SMOOTH",
"398.278 -22 OFFCURVE",
"492 64.0931 OFFCURVE",
"492 198 CURVE SMOOTH",
"492 335.884 OFFCURVE",
"373.697 377.828 OFFCURVE",
"288.34 410.345 CURVE SMOOTH",
"210.722 439.684 OFFCURVE",
"181 466.009 OFFCURVE",
"181 521 CURVE SMOOTH",
"181 571.262 OFFCURVE",
"219.16 599 OFFCURVE",
"273 599 CURVE SMOOTH",
"301.826 599 OFFCURVE",
"328 590.946 OFFCURVE",
"347.799 580.614 CURVE",
"345.015 518.447 LINE",
"343.701 503.934 OFFCURVE",
"357.369 493 OFFCURVE",
"374 493 CURVE SMOOTH",
"430 493 LINE SMOOTH",
"447.678 493 OFFCURVE",
"460 505.322 OFFCURVE",
"460 518 CURVE SMOOTH",
"460 656 LINE SMOOTH",
"460 667.582 OFFCURVE",
"453.377 678.621 OFFCURVE",
"434.947 683.648 CURVE SMOOTH",
"409.102 691.339 OFFCURVE",
"348.363 706 OFFCURVE",
"283 706 CURVE SMOOTH"
);
},
{
closed = 1;
nodes = (
"289.547 -217 LINE SMOOTH",
"311.967 -181 OFFCURVE",
"328 -155 OFFCURVE",
"328 -123 CURVE SMOOTH",
"328 -83 OFFCURVE",
"296.266 -60 OFFCURVE",
"253 -60 CURVE SMOOTH",
"206.854 -60 OFFCURVE",
"181 -89 OFFCURVE",
"181 -120 CURVE SMOOTH",
"181 -150 OFFCURVE",
"198.326 -169 OFFCURVE",
"210.37 -184 CURVE",
"189.655 -252 LINE",
"185.808 -263 OFFCURVE",
"188.126 -274 OFFCURVE",
"204.733 -280 CURVE",
"216.231 -285 LINE SMOOTH",
"228.746 -291 OFFCURVE",
"245.388 -284 OFFCURVE",
"251.206 -276 CURVE"
);
}
);
width = 517;
}
);
unicode = 0218;
},
{
glyphname = T;
lastChange = "2013-03-20 20:06:29 +0000";
layers = (
{
anchors = (
{
name = bottom;
position = "{297, 0}";
},
{
name = center;
position = "{297, 340}";
},
{
name = top;
position = "{297, 679}";
}
);
layerId = "B4B43AB8-DB99-4954-A9F8-B6F89E957C89";
name = Regular;
paths = (
{
closed = 1;
nodes = (
"436 -10 LINE SMOOTH",
"452.631 -10 OFFCURVE",
"466 0.694971 OFFCURVE",
"466 15 CURVE SMOOTH",
"466 64 LINE SMOOTH",
"466 76.6777 OFFCURVE",
"453.678 89 OFFCURVE",
"436 89 CURVE SMOOTH",
"368 89 LINE",
"368 589 LINE",
"472.349 589 LINE",
"468.031 521.64 LINE SMOOTH",
"466.701 506.934 OFFCURVE",
"480.369 496 OFFCURVE",
"497 496 CURVE SMOOTH",
"558 496 LINE SMOOTH",
"575.678 496 OFFCURVE",
"588 508.322 OFFCURVE",
"588 521 CURVE SMOOTH",
"588 664 LINE SMOOTH",
"588 676.678 OFFCURVE",
"575.678 689 OFFCURVE",
"558 689 CURVE SMOOTH",
"35 689 LINE SMOOTH",
"17.3223 689 OFFCURVE",
"5 676.678 OFFCURVE",
"5 664 CURVE SMOOTH",
"5 521 LINE SMOOTH",
"5 508.322 OFFCURVE",
"17.3223 496 OFFCURVE",
"35 496 CURVE SMOOTH",
"96 496 LINE SMOOTH",
"112.631 496 OFFCURVE",
"126.299 506.934 OFFCURVE",
"124.938 521.905 CURVE SMOOTH",
"120.651 589 LINE",
"225 589 LINE",
"225 89 LINE",
"158 89 LINE SMOOTH",
"139.322 89 OFFCURVE",
"128 77.6777 OFFCURVE",
"128 64 CURVE SMOOTH",
"128 15 LINE SMOOTH",
"128 2.86176 OFFCURVE",
"138.289 -10 OFFCURVE",
"158 -10 CURVE SMOOTH"
);
}
);
width = 593;
}
);
unicode = 0054;
},
{
glyphname = Tbar;
lastChange = "2013-03-20 20:06:28 +0000";
layers = (
{
layerId = "B4B43AB8-DB99-4954-A9F8-B6F89E957C89";
name = Regular;
paths = (
{
closed = 1;
nodes = (
"225 355 LINE",
"149 355 LINE SMOOTH",
"126.322 355 OFFCURVE",
"115 343.678 OFFCURVE",
"115 326 CURVE SMOOTH",
"115 306 LINE SMOOTH",
"115 288.322 OFFCURVE",
"126.322 277 OFFCURVE",
"149 277 CURVE SMOOTH",
"225 277 LINE",
"225 89 LINE",
"158 89 LINE SMOOTH",
"139.322 89 OFFCURVE",
"128 77.6777 OFFCURVE",
"128 64 CURVE SMOOTH",
"128 15 LINE SMOOTH",
"128 2.86176 OFFCURVE",
"138.289 -10 OFFCURVE",
"158 -10 CURVE SMOOTH",
"436 -10 LINE SMOOTH",
"452.631 -10 OFFCURVE",
"466 0.694971 OFFCURVE",
"466 15 CURVE SMOOTH",
"466 64 LINE SMOOTH",
"466 76.6777 OFFCURVE",
"453.678 89 OFFCURVE",
"436 89 CURVE SMOOTH",
"368 89 LINE",
"368 277 LINE",
"447 277 LINE SMOOTH",
"469.678 277 OFFCURVE",
"481 288.322 OFFCURVE",
"481 306 CURVE SMOOTH",
"481 326 LINE SMOOTH",
"481 343.678 OFFCURVE",
"469.678 355 OFFCURVE",
"447 355 CURVE SMOOTH",
"368 355 LINE",
"368 589 LINE",
"472.349 589 LINE",
"468.031 521.64 LINE SMOOTH",
"466.701 506.934 OFFCURVE",
"480.369 496 OFFCURVE",
"497 496 CURVE SMOOTH",
"558 496 LINE SMOOTH",
"575.678 496 OFFCURVE",
"588 508.322 OFFCURVE",
"588 521 CURVE SMOOTH",
"588 664 LINE SMOOTH",
"588 676.678 OFFCURVE",
"575.678 689 OFFCURVE",
"558 689 CURVE SMOOTH",
"35 689 LINE SMOOTH",
"17.3223 689 OFFCURVE",
"5 676.678 OFFCURVE",
"5 664 CURVE SMOOTH",
"5 521 LINE SMOOTH",
"5 508.322 OFFCURVE",
"17.3223 496 OFFCURVE",
"35 496 CURVE SMOOTH",
"96 496 LINE SMOOTH",
"112.631 496 OFFCURVE",
"126.299 506.934 OFFCURVE",
"124.938 521.905 CURVE SMOOTH",
"120.651 589 LINE",
"225 589 LINE"
);
}
);
width = 593;
}
);
unicode = 0166;
},
{
glyphname = Tcaron;
lastChange = "2013-03-20 20:06:28 +0000";
layers = (
{
layerId = "B4B43AB8-DB99-4954-A9F8-B6F89E957C89";
name = Regular;
paths = (
{
closed = 1;
nodes = (
"436 -10 LINE SMOOTH",
"452.631 -10 OFFCURVE",
"466 0.694971 OFFCURVE",
"466 15 CURVE SMOOTH",
"466 64 LINE SMOOTH",
"466 76.6777 OFFCURVE",
"453.678 89 OFFCURVE",
"436 89 CURVE SMOOTH",
"368 89 LINE",
"368 589 LINE",
"472.349 589 LINE",
"468.031 521.64 LINE SMOOTH",
"466.701 506.934 OFFCURVE",
"480.369 496 OFFCURVE",
"497 496 CURVE SMOOTH",
"558 496 LINE SMOOTH",
"575.678 496 OFFCURVE",
"588 508.322 OFFCURVE",
"588 521 CURVE SMOOTH",
"588 664 LINE SMOOTH",
"588 676.678 OFFCURVE",
"575.678 689 OFFCURVE",
"558 689 CURVE SMOOTH",
"35 689 LINE SMOOTH",
"17.3223 689 OFFCURVE",
"5 676.678 OFFCURVE",
"5 664 CURVE SMOOTH",
"5 521 LINE SMOOTH",
"5 508.322 OFFCURVE",
"17.3223 496 OFFCURVE",
"35 496 CURVE SMOOTH",
"96 496 LINE SMOOTH",
"112.631 496 OFFCURVE",
"126.299 506.934 OFFCURVE",
"124.938 521.905 CURVE SMOOTH",
"120.651 589 LINE",
"225 589 LINE",
"225 89 LINE",
"158 89 LINE SMOOTH",
"139.322 89 OFFCURVE",
"128 77.6777 OFFCURVE",
"128 64 CURVE SMOOTH",
"128 15 LINE SMOOTH",
"128 2.86176 OFFCURVE",
"138.289 -10 OFFCURVE",
"158 -10 CURVE SMOOTH"
);
},
{
closed = 1;
nodes = (
"379 873 LINE SMOOTH",
"364.403 873 OFFCURVE",
"349.358 865.477 OFFCURVE",
"343 857 CURVE SMOOTH",
"297.885 800.687 LINE",
"251.617 857.326 LINE SMOOTH",
"244.007 867.211 OFFCURVE",
"228.569 873 OFFCURVE",
"215 873 CURVE SMOOTH",
"158 873 LINE SMOOTH",
"135.348 873 OFFCURVE",
"128.809 859.922 OFFCURVE",
"140 845 CURVE SMOOTH",
"222.094 737.917 LINE SMOOTH",
"228.358 729.523 OFFCURVE",
"243.403 722 OFFCURVE",
"258 722 CURVE SMOOTH",
"334 722 LINE SMOOTH",
"348.597 722 OFFCURVE",
"363.642 729.523 OFFCURVE",
"370 738 CURVE SMOOTH",
"451.906 844.917 LINE SMOOTH",
"463.191 859.922 OFFCURVE",
"456.652 873 OFFCURVE",
"434 873 CURVE SMOOTH"
);
}
);
width = 593;
}
);
unicode = 0164;
},
{
glyphname = Tcedilla;
lastChange = "2013-03-20 20:06:28 +0000";
layers = (
{
layerId = "B4B43AB8-DB99-4954-A9F8-B6F89E957C89";
name = Regular;
paths = (
{
closed = 1;
nodes = (
"436 -10 LINE SMOOTH",
"452.631 -10 OFFCURVE",
"466 0.694971 OFFCURVE",
"466 15 CURVE SMOOTH",
"466 64 LINE SMOOTH",
"466 76.6777 OFFCURVE",
"453.678 89 OFFCURVE",
"436 89 CURVE SMOOTH",
"368 89 LINE",
"368 589 LINE",
"472.349 589 LINE",
"468.031 521.64 LINE SMOOTH",
"466.701 506.934 OFFCURVE",
"480.369 496 OFFCURVE",
"497 496 CURVE SMOOTH",
"558 496 LINE SMOOTH",
"575.678 496 OFFCURVE",
"588 508.322 OFFCURVE",
"588 521 CURVE SMOOTH",
"588 664 LINE SMOOTH",
"588 676.678 OFFCURVE",
"575.678 689 OFFCURVE",
"558 689 CURVE SMOOTH",
"35 689 LINE SMOOTH",
"17.3223 689 OFFCURVE",
"5 676.678 OFFCURVE",
"5 664 CURVE SMOOTH",
"5 521 LINE SMOOTH",
"5 508.322 OFFCURVE",
"17.3223 496 OFFCURVE",
"35 496 CURVE SMOOTH",
"96 496 LINE SMOOTH",
"112.631 496 OFFCURVE",
"126.299 506.934 OFFCURVE",
"124.938 521.905 CURVE SMOOTH",
"120.651 589 LINE",
"225 589 LINE",
"225 89 LINE",
"158 89 LINE SMOOTH",
"139.322 89 OFFCURVE",
"128 77.6777 OFFCURVE",
"128 64 CURVE SMOOTH",
"128 15 LINE SMOOTH",
"128 2.86176 OFFCURVE",
"138.289 -10 OFFCURVE",
"158 -10 CURVE SMOOTH",
"263.767 -10 LINE",
"233.682 -53 LINE",
"225.766 -66 OFFCURVE",
"227.447 -77 OFFCURVE",
"239.238 -88 CURVE",
"248.791 -95 LINE SMOOTH",
"262.142 -105 OFFCURVE",
"265 -110 OFFCURVE",
"265 -124 CURVE SMOOTH",
"265 -139 OFFCURVE",
"256.558 -149 OFFCURVE",
"229.176 -172 CURVE SMOOTH",
"217.627 -182 OFFCURVE",
"215.589 -193 OFFCURVE",
"226.16 -206 CURVE SMOOTH",
"234.287 -216 LINE",
"241.95 -227 OFFCURVE",
"262.311 -230 OFFCURVE",
"275.321 -221 CURVE SMOOTH",
"322.937 -190 OFFCURVE",
"378 -143 OFFCURVE",
"378 -108 CURVE SMOOTH",
"378 -81 OFFCURVE",
"361.386 -62 OFFCURVE",
"334.878 -38 CURVE SMOOTH",
"325.897 -31 LINE",
"338.782 -10 LINE"
);
}
);
width = 593;
}
);
unicode = 0162;
},
{
glyphname = Tcommaaccent;
lastChange = "2013-03-20 20:06:28 +0000";
layers = (
{
layerId = "B4B43AB8-DB99-4954-A9F8-B6F89E957C89";
name = Regular;
paths = (
{
closed = 1;
nodes = (
"436 -10 LINE SMOOTH",
"452.631 -10 OFFCURVE",
"466 0.694971 OFFCURVE",
"466 15 CURVE SMOOTH",
"466 64 LINE SMOOTH",
"466 76.6777 OFFCURVE",
"453.678 89 OFFCURVE",
"436 89 CURVE SMOOTH",
"368 89 LINE",
"368 589 LINE",
"472.349 589 LINE",
"468.031 521.64 LINE SMOOTH",
"466.701 506.934 OFFCURVE",
"480.369 496 OFFCURVE",
"497 496 CURVE SMOOTH",
"558 496 LINE SMOOTH",
"575.678 496 OFFCURVE",
"588 508.322 OFFCURVE",
"588 521 CURVE SMOOTH",
"588 664 LINE SMOOTH",
"588 676.678 OFFCURVE",
"575.678 689 OFFCURVE",
"558 689 CURVE SMOOTH",
"35 689 LINE SMOOTH",
"17.3223 689 OFFCURVE",
"5 676.678 OFFCURVE",
"5 664 CURVE SMOOTH",
"5 521 LINE SMOOTH",
"5 508.322 OFFCURVE",
"17.3223 496 OFFCURVE",
"35 496 CURVE SMOOTH",
"96 496 LINE SMOOTH",
"112.631 496 OFFCURVE",
"126.299 506.934 OFFCURVE",
"124.938 521.905 CURVE SMOOTH",
"120.651 589 LINE",
"225 589 LINE",
"225 89 LINE",
"158 89 LINE SMOOTH",
"139.322 89 OFFCURVE",
"128 77.6777 OFFCURVE",
"128 64 CURVE SMOOTH",
"128 15 LINE SMOOTH",
"128 2.86176 OFFCURVE",
"138.289 -10 OFFCURVE",
"158 -10 CURVE SMOOTH"
);
},
{
closed = 1;
nodes = (
"333.547 -217 LINE SMOOTH",
"355.967 -181 OFFCURVE",
"372 -155 OFFCURVE",
"372 -123 CURVE SMOOTH",
"372 -83 OFFCURVE",
"340.266 -60 OFFCURVE",
"297 -60 CURVE SMOOTH",
"250.854 -60 OFFCURVE",
"225 -89 OFFCURVE",
"225 -120 CURVE SMOOTH",
"225 -150 OFFCURVE",
"242.326 -169 OFFCURVE",
"254.37 -184 CURVE",
"233.655 -252 LINE",
"229.808 -263 OFFCURVE",
"232.126 -274 OFFCURVE",
"248.733 -280 CURVE",
"260.231 -285 LINE SMOOTH",
"272.746 -291 OFFCURVE",
"289.388 -284 OFFCURVE",
"295.206 -276 CURVE"
);
}
);
width = 593;
}
);
unicode = 021A;
},
{
glyphname = U;
lastChange = "2013-03-20 20:06:29 +0000";
layers = (
{
anchors = (
{
name = ogonek;
position = "{642, 10}";
},
{
name = top;
position = "{357, 679}";
}
);
layerId = "B4B43AB8-DB99-4954-A9F8-B6F89E957C89";
name = Regular;
paths = (
{
closed = 1;
nodes = (
"220 588 LINE",
"258 588 LINE SMOOTH",
"274.631 588 OFFCURVE",
"288 598.695 OFFCURVE",
"288 613 CURVE SMOOTH",
"288 664 LINE SMOOTH",
"288 676.678 OFFCURVE",
"275.678 689 OFFCURVE",
"258 689 CURVE SMOOTH",
"40 689 LINE SMOOTH",
"23.3687 689 OFFCURVE",
"10 678.305 OFFCURVE",
"10 664 CURVE SMOOTH",
"10 613 LINE SMOOTH",
"10 600.322 OFFCURVE",
"22.3223 588 OFFCURVE",
"40 588 CURVE SMOOTH",
"78 588 LINE",
"78 249 LINE SMOOTH",
"78 81.4177 OFFCURVE",
"140.051 -22 OFFCURVE",
"357 -22 CURVE SMOOTH",
"579.575 -22 OFFCURVE",
"635 124.023 OFFCURVE",
"635 260 CURVE SMOOTH",
"635 588 LINE",
"673 588 LINE SMOOTH",
"689.631 588 OFFCURVE",
"703 598.695 OFFCURVE",
"703 613 CURVE SMOOTH",
"703 664 LINE SMOOTH",
"703 676.678 OFFCURVE",
"690.678 689 OFFCURVE",
"673 689 CURVE SMOOTH",
"471 689 LINE SMOOTH",
"454.369 689 OFFCURVE",
"441 678.305 OFFCURVE",
"441 664 CURVE SMOOTH",
"441 613 LINE SMOOTH",
"441 600.322 OFFCURVE",
"453.322 588 OFFCURVE",
"471 588 CURVE SMOOTH",
"509 588 LINE",
"509 281 LINE SMOOTH",
"509 161.234 OFFCURVE",
"474.035 88 OFFCURVE",
"360 88 CURVE SMOOTH",
"233.386 88 OFFCURVE",
"220 167.424 OFFCURVE",
"220 284 CURVE SMOOTH"
);
}
);
width = 713;
}
);
unicode = 0055;
},
{
glyphname = Uacute;
lastChange = "2013-03-20 20:06:28 +0000";
layers = (
{
layerId = "B4B43AB8-DB99-4954-A9F8-B6F89E957C89";
name = Regular;
paths = (
{
closed = 1;
nodes = (
"220 588 LINE",
"258 588 LINE SMOOTH",
"274.631 588 OFFCURVE",
"288 598.695 OFFCURVE",
"288 613 CURVE SMOOTH",
"288 664 LINE SMOOTH",
"288 676.678 OFFCURVE",
"275.678 689 OFFCURVE",
"258 689 CURVE SMOOTH",
"40 689 LINE SMOOTH",
"23.3687 689 OFFCURVE",
"10 678.305 OFFCURVE",
"10 664 CURVE SMOOTH",
"10 613 LINE SMOOTH",
"10 600.322 OFFCURVE",
"22.3223 588 OFFCURVE",
"40 588 CURVE SMOOTH",
"78 588 LINE",
"78 249 LINE SMOOTH",
"78 81.4177 OFFCURVE",
"140.051 -22 OFFCURVE",
"357 -22 CURVE SMOOTH",
"579.575 -22 OFFCURVE",
"635 124.023 OFFCURVE",
"635 260 CURVE SMOOTH",
"635 588 LINE",
"673 588 LINE SMOOTH",
"689.631 588 OFFCURVE",
"703 598.695 OFFCURVE",
"703 613 CURVE SMOOTH",
"703 664 LINE SMOOTH",
"703 676.678 OFFCURVE",
"690.678 689 OFFCURVE",
"673 689 CURVE SMOOTH",
"471 689 LINE SMOOTH",
"454.369 689 OFFCURVE",
"441 678.305 OFFCURVE",
"441 664 CURVE SMOOTH",
"441 613 LINE SMOOTH",
"441 600.322 OFFCURVE",
"453.322 588 OFFCURVE",
"471 588 CURVE SMOOTH",
"509 588 LINE",
"509 281 LINE SMOOTH",
"509 161.234 OFFCURVE",
"474.035 88 OFFCURVE",
"360 88 CURVE SMOOTH",
"233.386 88 OFFCURVE",
"220 167.424 OFFCURVE",
"220 284 CURVE SMOOTH"
);
},
{
closed = 1;
nodes = (
"323.368 750.173 LINE",
"317.209 735.055 OFFCURVE",
"327 722 OFFCURVE",
"346 722 CURVE SMOOTH",
"394 722 LINE SMOOTH",
"408.597 722 OFFCURVE",
"424.14 729.771 OFFCURVE",
"429.72 738.7 CURVE",
"499.368 840.342 LINE",
"508.494 852.658 OFFCURVE",
"504.658 868 OFFCURVE",
"481 868 CURVE SMOOTH",
"403 868 LINE SMOOTH",
"387.864 868 OFFCURVE",
"372.728 859.351 OFFCURVE",
"368.073 847.714 CURVE"
);
}
);
width = 713;
}
);
unicode = 00DA;
},
{
glyphname = Ubreve;
lastChange = "2013-03-20 20:06:28 +0000";
layers = (
{
layerId = "B4B43AB8-DB99-4954-A9F8-B6F89E957C89";
name = Regular;
paths = (
{
closed = 1;
nodes = (
"220 588 LINE",
"258 588 LINE SMOOTH",
"274.631 588 OFFCURVE",
"288 598.695 OFFCURVE",
"288 613 CURVE SMOOTH",
"288 664 LINE SMOOTH",
"288 676.678 OFFCURVE",
"275.678 689 OFFCURVE",
"258 689 CURVE SMOOTH",
"40 689 LINE SMOOTH",
"23.3687 689 OFFCURVE",
"10 678.305 OFFCURVE",
"10 664 CURVE SMOOTH",
"10 613 LINE SMOOTH",
"10 600.322 OFFCURVE",
"22.3223 588 OFFCURVE",
"40 588 CURVE SMOOTH",
"78 588 LINE",
"78 249 LINE SMOOTH",
"78 81.4177 OFFCURVE",
"140.051 -22 OFFCURVE",
"357 -22 CURVE SMOOTH",
"579.575 -22 OFFCURVE",
"635 124.023 OFFCURVE",
"635 260 CURVE SMOOTH",
"635 588 LINE",
"673 588 LINE SMOOTH",
"689.631 588 OFFCURVE",
"703 598.695 OFFCURVE",
"703 613 CURVE SMOOTH",
"703 664 LINE SMOOTH",
"703 676.678 OFFCURVE",
"690.678 689 OFFCURVE",
"673 689 CURVE SMOOTH",
"471 689 LINE SMOOTH",
"454.369 689 OFFCURVE",
"441 678.305 OFFCURVE",
"441 664 CURVE SMOOTH",
"441 613 LINE SMOOTH",
"441 600.322 OFFCURVE",
"453.322 588 OFFCURVE",
"471 588 CURVE SMOOTH",
"509 588 LINE",
"509 281 LINE SMOOTH",
"509 161.234 OFFCURVE",
"474.035 88 OFFCURVE",
"360 88 CURVE SMOOTH",
"233.386 88 OFFCURVE",
"220 167.424 OFFCURVE",
"220 284 CURVE SMOOTH"
);
},
{
closed = 1;
nodes = (
"328.127 821 OFFCURVE",
"311.86 830.196 OFFCURVE",
"305.552 855.425 CURVE SMOOTH",
"301.118 873.161 OFFCURVE",
"289.333 882 OFFCURVE",
"267 882 CURVE SMOOTH",
"235 882 LINE SMOOTH",
"212.322 882 OFFCURVE",
"201 870.678 OFFCURVE",
"201 853 CURVE SMOOTH",
"203.091 775.57 OFFCURVE",
"267.452 725 OFFCURVE",
"379 725 CURVE SMOOTH",
"484.051 725 OFFCURVE",
"553.704 774.1 OFFCURVE",
"559.952 852.203 CURVE SMOOTH",
"561.178 870.5 OFFCURVE",
"549.678 882 OFFCURVE",
"527 882 CURVE SMOOTH",
"496 882 LINE SMOOTH",
"474.658 882 OFFCURVE",
"461.311 873.992 OFFCURVE",
"455.683 855.983 CURVE SMOOTH",
"446.781 827.498 OFFCURVE",
"428.586 821 OFFCURVE",
"382 821 CURVE SMOOTH"
);
}
);
width = 713;
}
);
unicode = 016C;
},
{
glyphname = Ucircumflex;
lastChange = "2013-03-20 20:06:28 +0000";
layers = (
{
layerId = "B4B43AB8-DB99-4954-A9F8-B6F89E957C89";
name = Regular;
paths = (
{
closed = 1;
nodes = (
"220 588 LINE",
"258 588 LINE SMOOTH",
"274.631 588 OFFCURVE",
"288 598.695 OFFCURVE",
"288 613 CURVE SMOOTH",
"288 664 LINE SMOOTH",
"288 676.678 OFFCURVE",
"275.678 689 OFFCURVE",
"258 689 CURVE SMOOTH",
"40 689 LINE SMOOTH",
"23.3687 689 OFFCURVE",
"10 678.305 OFFCURVE",
"10 664 CURVE SMOOTH",
"10 613 LINE SMOOTH",
"10 600.322 OFFCURVE",
"22.3223 588 OFFCURVE",
"40 588 CURVE SMOOTH",
"78 588 LINE",
"78 249 LINE SMOOTH",
"78 81.4177 OFFCURVE",
"140.051 -22 OFFCURVE",
"357 -22 CURVE SMOOTH",
"579.575 -22 OFFCURVE",
"635 124.023 OFFCURVE",
"635 260 CURVE SMOOTH",
"635 588 LINE",
"673 588 LINE SMOOTH",
"689.631 588 OFFCURVE",
"703 598.695 OFFCURVE",
"703 613 CURVE SMOOTH",
"703 664 LINE SMOOTH",
"703 676.678 OFFCURVE",
"690.678 689 OFFCURVE",
"673 689 CURVE SMOOTH",
"471 689 LINE SMOOTH",
"454.369 689 OFFCURVE",
"441 678.305 OFFCURVE",
"441 664 CURVE SMOOTH",
"441 613 LINE SMOOTH",
"441 600.322 OFFCURVE",
"453.322 588 OFFCURVE",
"471 588 CURVE SMOOTH",
"509 588 LINE",
"509 281 LINE SMOOTH",
"509 161.234 OFFCURVE",
"474.035 88 OFFCURVE",
"360 88 CURVE SMOOTH",
"233.386 88 OFFCURVE",
"220 167.424 OFFCURVE",
"220 284 CURVE SMOOTH"
);
},
{
closed = 1;
nodes = (
"283 722 LINE SMOOTH",
"297.597 722 OFFCURVE",
"312.642 729.523 OFFCURVE",
"319 738 CURVE SMOOTH",
"364.115 794.313 LINE",
"410.383 737.674 LINE SMOOTH",
"417.993 727.789 OFFCURVE",
"433.431 722 OFFCURVE",
"447 722 CURVE SMOOTH",
"504 722 LINE SMOOTH",
"526.652 722 OFFCURVE",
"533.191 735.078 OFFCURVE",
"522 750 CURVE SMOOTH",
"439.906 857.083 LINE SMOOTH",
"433.642 865.477 OFFCURVE",
"418.597 873 OFFCURVE",
"404 873 CURVE SMOOTH",
"328 873 LINE SMOOTH",
"313.403 873 OFFCURVE",
"298.358 865.477 OFFCURVE",
"292 857 CURVE SMOOTH",
"210.094 750.083 LINE SMOOTH",
"198.809 735.078 OFFCURVE",
"205.348 722 OFFCURVE",
"228 722 CURVE SMOOTH"
);
}
);
width = 713;
}
);
unicode = 00DB;
},
{
glyphname = Udieresis;
lastChange = "2013-03-20 20:06:28 +0000";
layers = (
{
layerId = "B4B43AB8-DB99-4954-A9F8-B6F89E957C89";
name = Regular;
paths = (
{
closed = 1;
nodes = (
"220 588 LINE",
"258 588 LINE SMOOTH",
"274.631 588 OFFCURVE",
"288 598.695 OFFCURVE",
"288 613 CURVE SMOOTH",
"288 664 LINE SMOOTH",
"288 676.678 OFFCURVE",
"275.678 689 OFFCURVE",
"258 689 CURVE SMOOTH",
"40 689 LINE SMOOTH",
"23.3687 689 OFFCURVE",
"10 678.305 OFFCURVE",
"10 664 CURVE SMOOTH",
"10 613 LINE SMOOTH",
"10 600.322 OFFCURVE",
"22.3223 588 OFFCURVE",
"40 588 CURVE SMOOTH",
"78 588 LINE",
"78 249 LINE SMOOTH",
"78 81.4177 OFFCURVE",
"140.051 -22 OFFCURVE",
"357 -22 CURVE SMOOTH",
"579.575 -22 OFFCURVE",
"635 124.023 OFFCURVE",
"635 260 CURVE SMOOTH",
"635 588 LINE",
"673 588 LINE SMOOTH",
"689.631 588 OFFCURVE",
"703 598.695 OFFCURVE",
"703 613 CURVE SMOOTH",
"703 664 LINE SMOOTH",
"703 676.678 OFFCURVE",
"690.678 689 OFFCURVE",
"673 689 CURVE SMOOTH",
"471 689 LINE SMOOTH",
"454.369 689 OFFCURVE",
"441 678.305 OFFCURVE",
"441 664 CURVE SMOOTH",
"441 613 LINE SMOOTH",
"441 600.322 OFFCURVE",
"453.322 588 OFFCURVE",
"471 588 CURVE SMOOTH",
"509 588 LINE",
"509 281 LINE SMOOTH",
"509 161.234 OFFCURVE",
"474.035 88 OFFCURVE",
"360 88 CURVE SMOOTH",
"233.386 88 OFFCURVE",
"220 167.424 OFFCURVE",
"220 284 CURVE SMOOTH"
);
},
{
closed = 1;
nodes = (
"507.548 728 OFFCURVE",
"544 756.641 OFFCURVE",
"544 800 CURVE SMOOTH",
"544 841.924 OFFCURVE",
"513.25 870 OFFCURVE",
"467 870 CURVE SMOOTH",
"424.107 870 OFFCURVE",
"390 841.14 OFFCURVE",
"390 800 CURVE SMOOTH",
"390 758.097 OFFCURVE",
"422.714 728 OFFCURVE",
"467 728 CURVE SMOOTH"
);
},
{
closed = 1;
nodes = (
"304.548 728 OFFCURVE",
"341 756.641 OFFCURVE",
"341 800 CURVE SMOOTH",
"341 841.924 OFFCURVE",
"310.25 870 OFFCURVE",
"264 870 CURVE SMOOTH",
"221.107 870 OFFCURVE",
"187 841.14 OFFCURVE",
"187 800 CURVE SMOOTH",
"187 758.097 OFFCURVE",
"219.714 728 OFFCURVE",
"264 728 CURVE SMOOTH"
);
}
);
width = 713;
}
);
unicode = 00DC;
},
{
glyphname = Ugrave;
lastChange = "2013-03-20 20:06:28 +0000";
layers = (
{
layerId = "B4B43AB8-DB99-4954-A9F8-B6F89E957C89";
name = Regular;
paths = (
{
closed = 1;
nodes = (
"220 588 LINE",
"258 588 LINE SMOOTH",
"274.631 588 OFFCURVE",
"288 598.695 OFFCURVE",
"288 613 CURVE SMOOTH",
"288 664 LINE SMOOTH",
"288 676.678 OFFCURVE",
"275.678 689 OFFCURVE",
"258 689 CURVE SMOOTH",
"40 689 LINE SMOOTH",
"23.3687 689 OFFCURVE",
"10 678.305 OFFCURVE",
"10 664 CURVE SMOOTH",
"10 613 LINE SMOOTH",
"10 600.322 OFFCURVE",
"22.3223 588 OFFCURVE",
"40 588 CURVE SMOOTH",
"78 588 LINE",
"78 249 LINE SMOOTH",
"78 81.4177 OFFCURVE",
"140.051 -22 OFFCURVE",
"357 -22 CURVE SMOOTH",
"579.575 -22 OFFCURVE",
"635 124.023 OFFCURVE",
"635 260 CURVE SMOOTH",
"635 588 LINE",
"673 588 LINE SMOOTH",
"689.631 588 OFFCURVE",
"703 598.695 OFFCURVE",
"703 613 CURVE SMOOTH",
"703 664 LINE SMOOTH",
"703 676.678 OFFCURVE",
"690.678 689 OFFCURVE",
"673 689 CURVE SMOOTH",
"471 689 LINE SMOOTH",
"454.369 689 OFFCURVE",
"441 678.305 OFFCURVE",
"441 664 CURVE SMOOTH",
"441 613 LINE SMOOTH",
"441 600.322 OFFCURVE",
"453.322 588 OFFCURVE",
"471 588 CURVE SMOOTH",
"509 588 LINE",
"509 281 LINE SMOOTH",
"509 161.234 OFFCURVE",
"474.035 88 OFFCURVE",
"360 88 CURVE SMOOTH",
"233.386 88 OFFCURVE",
"220 167.424 OFFCURVE",
"220 284 CURVE SMOOTH"
);
},
{
closed = 1;
nodes = (
"383.701 845.071 LINE",
"376.244 859.817 OFFCURVE",
"365.333 868 OFFCURVE",
"343 868 CURVE SMOOTH",
"273 868 LINE SMOOTH",
"246.348 868 OFFCURVE",
"239.863 855 OFFCURVE",
"252.869 837.118 CURVE SMOOTH",
"317.579 741.393 LINE",
"327.358 728.523 OFFCURVE",
"340.403 722 OFFCURVE",
"360 722 CURVE SMOOTH",
"400 722 LINE SMOOTH",
"423 722 OFFCURVE",
"432.914 735.219 OFFCURVE",
"424.619 753.191 CURVE SMOOTH"
);
}
);
width = 713;
}
);
unicode = 00D9;
},
{
glyphname = Uhungarumlaut;
lastChange = "2013-03-20 20:06:28 +0000";
layers = (
{
layerId = "B4B43AB8-DB99-4954-A9F8-B6F89E957C89";
name = Regular;
paths = (
{
closed = 1;
nodes = (
"220 588 LINE",
"258 588 LINE SMOOTH",
"274.631 588 OFFCURVE",
"288 598.695 OFFCURVE",
"288 613 CURVE SMOOTH",
"288 664 LINE SMOOTH",
"288 676.678 OFFCURVE",
"275.678 689 OFFCURVE",
"258 689 CURVE SMOOTH",
"40 689 LINE SMOOTH",
"23.3687 689 OFFCURVE",
"10 678.305 OFFCURVE",
"10 664 CURVE SMOOTH",
"10 613 LINE SMOOTH",
"10 600.322 OFFCURVE",
"22.3223 588 OFFCURVE",
"40 588 CURVE SMOOTH",
"78 588 LINE",
"78 249 LINE SMOOTH",
"78 81.4177 OFFCURVE",
"140.051 -22 OFFCURVE",
"357 -22 CURVE SMOOTH",
"579.575 -22 OFFCURVE",
"635 124.023 OFFCURVE",
"635 260 CURVE SMOOTH",
"635 588 LINE",
"673 588 LINE SMOOTH",
"689.631 588 OFFCURVE",
"703 598.695 OFFCURVE",
"703 613 CURVE SMOOTH",
"703 664 LINE SMOOTH",
"703 676.678 OFFCURVE",
"690.678 689 OFFCURVE",
"673 689 CURVE SMOOTH",
"471 689 LINE SMOOTH",
"454.369 689 OFFCURVE",
"441 678.305 OFFCURVE",
"441 664 CURVE SMOOTH",
"441 613 LINE SMOOTH",
"441 600.322 OFFCURVE",
"453.322 588 OFFCURVE",
"471 588 CURVE SMOOTH",
"509 588 LINE",
"509 281 LINE SMOOTH",
"509 161.234 OFFCURVE",
"474.035 88 OFFCURVE",
"360 88 CURVE SMOOTH",
"233.386 88 OFFCURVE",
"220 167.424 OFFCURVE",
"220 284 CURVE SMOOTH"
);
},
{
closed = 1;
nodes = (
"388.368 750.173 LINE",
"382.209 735.055 OFFCURVE",
"392 722 OFFCURVE",
"411 722 CURVE SMOOTH",
"449 722 LINE SMOOTH",
"463.597 722 OFFCURVE",
"479.14 729.771 OFFCURVE",
"484.72 738.7 CURVE",
"554.368 840.342 LINE",
"563.494 852.658 OFFCURVE",
"559.658 868 OFFCURVE",
"536 868 CURVE SMOOTH",
"468 868 LINE SMOOTH",
"452.864 868 OFFCURVE",
"437.728 859.351 OFFCURVE",
"433.073 847.714 CURVE"
);
},
{
closed = 1;
nodes = (
"254.368 750.173 LINE",
"248.209 735.055 OFFCURVE",
"258 722 OFFCURVE",
"277 722 CURVE SMOOTH",
"315 722 LINE SMOOTH",
"329.597 722 OFFCURVE",
"345.14 729.771 OFFCURVE",
"350.72 738.7 CURVE",
"420.368 840.342 LINE",
"429.494 852.658 OFFCURVE",
"425.658 868 OFFCURVE",
"402 868 CURVE SMOOTH",
"334 868 LINE SMOOTH",
"318.864 868 OFFCURVE",
"303.728 859.351 OFFCURVE",
"299.073 847.714 CURVE"
);
}
);
width = 713;
}
);
unicode = 0170;
},
{
glyphname = Umacron;
lastChange = "2013-03-20 20:06:28 +0000";
layers = (
{
layerId = "B4B43AB8-DB99-4954-A9F8-B6F89E957C89";
name = Regular;
paths = (
{
closed = 1;
nodes = (
"220 588 LINE",
"258 588 LINE SMOOTH",
"274.631 588 OFFCURVE",
"288 598.695 OFFCURVE",
"288 613 CURVE SMOOTH",
"288 664 LINE SMOOTH",
"288 676.678 OFFCURVE",
"275.678 689 OFFCURVE",
"258 689 CURVE SMOOTH",
"40 689 LINE SMOOTH",
"23.3687 689 OFFCURVE",
"10 678.305 OFFCURVE",
"10 664 CURVE SMOOTH",
"10 613 LINE SMOOTH",
"10 600.322 OFFCURVE",
"22.3223 588 OFFCURVE",
"40 588 CURVE SMOOTH",
"78 588 LINE",
"78 249 LINE SMOOTH",
"78 81.4177 OFFCURVE",
"140.051 -22 OFFCURVE",
"357 -22 CURVE SMOOTH",
"579.575 -22 OFFCURVE",
"635 124.023 OFFCURVE",
"635 260 CURVE SMOOTH",
"635 588 LINE",
"673 588 LINE SMOOTH",
"689.631 588 OFFCURVE",
"703 598.695 OFFCURVE",
"703 613 CURVE SMOOTH",
"703 664 LINE SMOOTH",
"703 676.678 OFFCURVE",
"690.678 689 OFFCURVE",
"673 689 CURVE SMOOTH",
"471 689 LINE SMOOTH",
"454.369 689 OFFCURVE",
"441 678.305 OFFCURVE",
"441 664 CURVE SMOOTH",
"441 613 LINE SMOOTH",
"441 600.322 OFFCURVE",
"453.322 588 OFFCURVE",
"471 588 CURVE SMOOTH",
"509 588 LINE",
"509 281 LINE SMOOTH",
"509 161.234 OFFCURVE",
"474.035 88 OFFCURVE",
"360 88 CURVE SMOOTH",
"233.386 88 OFFCURVE",
"220 167.424 OFFCURVE",
"220 284 CURVE SMOOTH"
);
},
{
closed = 1;
nodes = (
"486 750 LINE SMOOTH",
"508.678 750 OFFCURVE",
"520 761.322 OFFCURVE",
"520 779 CURVE SMOOTH",
"520 822 LINE SMOOTH",
"520 839.678 OFFCURVE",
"508.678 851 OFFCURVE",
"486 851 CURVE SMOOTH",
"226 851 LINE SMOOTH",
"203.322 851 OFFCURVE",
"192 839.678 OFFCURVE",
"192 822 CURVE SMOOTH",
"192 779 LINE SMOOTH",
"192 761.322 OFFCURVE",
"203.322 750 OFFCURVE",
"226 750 CURVE SMOOTH"
);
}
);
width = 713;
}
);
unicode = 016A;
},
{
glyphname = Uogonek;
lastChange = "2013-03-20 20:06:28 +0000";
layers = (
{
layerId = "B4B43AB8-DB99-4954-A9F8-B6F89E957C89";
name = Regular;
paths = (
{
closed = 1;
nodes = (
"314 -198 OFFCURVE",
"349.197 -243 OFFCURVE",
"413 -243 CURVE SMOOTH",
"452.35 -243 OFFCURVE",
"489.315 -226 OFFCURVE",
"510.45 -211 CURVE",
"530 -199 OFFCURVE",
"530 -189 OFFCURVE",
"522.168 -174 CURVE",
"512.416 -155 LINE SMOOTH",
"506.862 -143 OFFCURVE",
"485.924 -137 OFFCURVE",
"471.675 -145 CURVE SMOOTH",
"457.581 -152 OFFCURVE",
"450.275 -154 OFFCURVE",
"441 -154 CURVE SMOOTH",
"424.403 -154 OFFCURVE",
"423 -146 OFFCURVE",
"423 -128 CURVE SMOOTH",
"423 -96 OFFCURVE",
"439.718 -49 OFFCURVE",
"510.794 2.89883 CURVE SMOOTH",
"602.706 69.4552 OFFCURVE",
"635 160.086 OFFCURVE",
"635 260 CURVE SMOOTH",
"635 588 LINE",
"673 588 LINE SMOOTH",
"689.631 588 OFFCURVE",
"703 598.695 OFFCURVE",
"703 613 CURVE SMOOTH",
"703 664 LINE SMOOTH",
"703 676.678 OFFCURVE",
"690.678 689 OFFCURVE",
"673 689 CURVE SMOOTH",
"471 689 LINE SMOOTH",
"454.369 689 OFFCURVE",
"441 678.305 OFFCURVE",
"441 664 CURVE SMOOTH",
"441 613 LINE SMOOTH",
"441 600.322 OFFCURVE",
"453.322 588 OFFCURVE",
"471 588 CURVE SMOOTH",
"509 588 LINE",
"509 281 LINE SMOOTH",
"509 161.234 OFFCURVE",
"474.035 88 OFFCURVE",
"360 88 CURVE SMOOTH",
"233.386 88 OFFCURVE",
"220 167.424 OFFCURVE",
"220 284 CURVE SMOOTH",
"220 588 LINE",
"258 588 LINE SMOOTH",
"274.631 588 OFFCURVE",
"288 598.695 OFFCURVE",
"288 613 CURVE SMOOTH",
"288 664 LINE SMOOTH",
"288 676.678 OFFCURVE",
"275.678 689 OFFCURVE",
"258 689 CURVE SMOOTH",
"40 689 LINE SMOOTH",
"23.3687 689 OFFCURVE",
"10 678.305 OFFCURVE",
"10 664 CURVE SMOOTH",
"10 613 LINE SMOOTH",
"10 600.322 OFFCURVE",
"22.3223 588 OFFCURVE",
"40 588 CURVE SMOOTH",
"78 588 LINE",
"78 249 LINE SMOOTH",
"78 81.4177 OFFCURVE",
"140.051 -22 OFFCURVE",
"357 -22 CURVE SMOOTH",
"376.478 -22 LINE",
"342.309 -57 OFFCURVE",
"314 -100 OFFCURVE",
"314 -147 CURVE SMOOTH"
);
}
);
width = 713;
}
);
unicode = 0172;
},
{
glyphname = Uring;
lastChange = "2013-03-20 20:06:28 +0000";
layers = (
{
layerId = "B4B43AB8-DB99-4954-A9F8-B6F89E957C89";
name = Regular;
paths = (
{
closed = 1;
nodes = (
"220 588 LINE",
"258 588 LINE SMOOTH",
"274.631 588 OFFCURVE",
"288 598.695 OFFCURVE",
"288 613 CURVE SMOOTH",
"288 664 LINE SMOOTH",
"288 676.678 OFFCURVE",
"275.678 689 OFFCURVE",
"258 689 CURVE SMOOTH",
"40 689 LINE SMOOTH",
"23.3687 689 OFFCURVE",
"10 678.305 OFFCURVE",
"10 664 CURVE SMOOTH",
"10 613 LINE SMOOTH",
"10 600.322 OFFCURVE",
"22.3223 588 OFFCURVE",
"40 588 CURVE SMOOTH",
"78 588 LINE",
"78 249 LINE SMOOTH",
"78 81.4177 OFFCURVE",
"140.051 -22 OFFCURVE",
"357 -22 CURVE SMOOTH",
"579.575 -22 OFFCURVE",
"635 124.023 OFFCURVE",
"635 260 CURVE SMOOTH",
"635 588 LINE",
"673 588 LINE SMOOTH",
"689.631 588 OFFCURVE",
"703 598.695 OFFCURVE",
"703 613 CURVE SMOOTH",
"703 664 LINE SMOOTH",
"703 676.678 OFFCURVE",
"690.678 689 OFFCURVE",
"673 689 CURVE SMOOTH",
"471 689 LINE SMOOTH",
"454.369 689 OFFCURVE",
"441 678.305 OFFCURVE",
"441 664 CURVE SMOOTH",
"441 613 LINE SMOOTH",
"441 600.322 OFFCURVE",
"453.322 588 OFFCURVE",
"471 588 CURVE SMOOTH",
"509 588 LINE",
"509 281 LINE SMOOTH",
"509 161.234 OFFCURVE",
"474.035 88 OFFCURVE",
"360 88 CURVE SMOOTH",
"233.386 88 OFFCURVE",
"220 167.424 OFFCURVE",
"220 284 CURVE SMOOTH"
);
},
{
closed = 1;
nodes = (
"440.215 708 OFFCURVE",
"488 761.612 OFFCURVE",
"488 824 CURVE SMOOTH",
"488 876.138 OFFCURVE",
"445.711 929 OFFCURVE",
"374 929 CURVE SMOOTH",
"309.214 929 OFFCURVE",
"259 877.618 OFFCURVE",
"259 819 CURVE SMOOTH",
"259 761.97 OFFCURVE",
"300.064 708 OFFCURVE",
"372 708 CURVE SMOOTH"
);
},
{
closed = 1;
nodes = (
"390.812 857 OFFCURVE",
"402 842.858 OFFCURVE",
"402 819 CURVE SMOOTH",
"402 796.084 OFFCURVE",
"389.665 780 OFFCURVE",
"374 780 CURVE SMOOTH",
"358.618 780 OFFCURVE",
"347 795.957 OFFCURVE",
"347 819 CURVE SMOOTH",
"347 843.138 OFFCURVE",
"356.804 857 OFFCURVE",
"374 857 CURVE SMOOTH"
);
}
);
width = 713;
}
);
unicode = 016E;
},
